<?xml version="1.0" encoding="UTF-8" standalone="no"?>
<!DOCTYPE svg PUBLIC "-//W3C//DTD SVG 20010904//EN"
              "http://www.w3.org/TR/2001/REC-SVG-20010904/DTD/svg10.dtd">

<svg xmlns="http://www.w3.org/2000/svg"
     width="0.426667in" height="0.426667in"
     viewBox="0 0 128 128">
  <path id="Unnamed #1"
        fill="none" stroke="black" stroke-width="1"
        d="M 38.55,90.73
           C 38.55,90.73 56.36,103.09 56.36,103.09
             56.36,103.09 90.73,69.82 90.73,69.82" />
  <path id="Unnamed"
        fill="none" stroke="black" stroke-width="1"
        d="M 86.50,95.25
           C 103.25,95.25 108.25,95.25 114.75,88.50
             121.25,81.75 123.00,79.50 124.00,69.75
             123.50,60.25 122.06,58.44 114.44,50.44
             107.31,45.31 104.00,45.25 95.50,45.69
             95.00,39.94 92.09,35.61 89.61,33.39
             86.62,30.85 80.57,29.52 73.96,31.61
             70.04,27.04 66.96,23.87 61.35,21.74
             54.96,20.22 48.70,20.91 43.70,21.78
             36.78,22.83 31.78,27.91 29.50,33.62
             27.48,38.87 26.65,41.78 25.48,45.78
             21.13,45.91 17.48,46.39 12.65,49.78
             7.26,53.61 4.09,59.39 3.39,63.87
             2.70,68.35 2.96,74.87 4.74,79.65
             6.52,84.43 8.13,86.61 13.39,90.87
             18.69,95.06 21.88,95.09 30.06,95.03" />
</svg>
