<?xml version="1.0" encoding="utf-8"?>
<svg viewBox="0 0 500 500" xmlns="http://www.w3.org/2000/svg">
  <path style="fill: rgb(255, 255, 255); stroke: rgb(206, 206, 206);" d="M 299.022 217.99 L 396.272 218.093 C 398.671 218.045 401.137 214.485 401.45 211.822 L 401.45 116.114 C 401.295 111.62 393.788 107.988 390.058 112.697 L 362.563 140.911 C 299.882 80.6 225.09 85.335 173.117 114.107 C 129.056 138.499 99.029 190.507 98.551 214.17 C 98.561 216.714 100.641 219.052 104.135 219.14 C 116.036 219.439 134.007 218.821 144.531 218.985 C 152.188 219.104 153.088 216.515 153.088 216.515 C 164.015 185.363 192.066 157.851 228.599 149.613 C 263.161 141.818 299.991 153.026 324.286 178.813 L 294.906 208.172 C 292.082 211.662 294.927 217.745 299.022 217.99 Z" transform="matrix(1, 0, 0, 1, 2.842170943040401e-14, 0)"/>
  <path style="stroke: rgb(206, 206, 206); fill: rgb(255, 255, 255);" d="M 299.022 401.859 L 396.272 401.962 C 398.671 401.914 401.137 398.354 401.45 395.691 L 401.45 299.983 C 401.295 295.489 393.788 291.857 390.058 296.566 L 362.563 324.78 C 299.882 264.469 225.09 269.204 173.117 297.976 C 129.056 322.368 99.029 374.376 98.551 398.039 C 98.561 400.583 100.641 402.921 104.135 403.009 C 116.036 403.308 134.007 402.69 144.531 402.854 C 152.188 402.973 153.088 400.384 153.088 400.384 C 164.015 369.232 192.066 341.72 228.599 333.482 C 263.161 325.687 299.991 336.895 324.286 362.682 L 294.906 392.041 C 292.082 395.531 294.927 401.614 299.022 401.859 Z" transform="matrix(-1, 0, 0, -1, 500.002014, 680.541992)"/>
</svg>