<?xml version="1.0" encoding="UTF-8" standalone="no"?>
<!-- Created with Inkscape (http://www.inkscape.org/) -->

<svg
   width="800mm"
   height="300mm"
   viewBox="0 0 800 300"
   version="1.1"
   id="svg3634"
   inkscape:export-filename="banner.png"
   inkscape:export-xdpi="96"
   inkscape:export-ydpi="96"
   inkscape:version="1.2.2 (732a01da63, 2022-12-09)"
   sodipodi:docname="banner.svg"
   xmlns:inkscape="http://www.inkscape.org/namespaces/inkscape"
   xmlns:sodipodi="http://sodipodi.sourceforge.net/DTD/sodipodi-0.dtd"
   xmlns="http://www.w3.org/2000/svg"
   xmlns:svg="http://www.w3.org/2000/svg">
  <sodipodi:namedview
     id="namedview3636"
     pagecolor="#ffffff"
     bordercolor="#000000"
     borderopacity="0.25"
     inkscape:showpageshadow="2"
     inkscape:pageopacity="0.0"
     inkscape:pagecheckerboard="0"
     inkscape:deskcolor="#d1d1d1"
     inkscape:document-units="mm"
     showgrid="false"
     inkscape:zoom="0.26110523"
     inkscape:cx="1131.7276"
     inkscape:cy="428.94583"
     inkscape:window-width="1920"
     inkscape:window-height="1009"
     inkscape:window-x="-8"
     inkscape:window-y="-8"
     inkscape:window-maximized="1"
     inkscape:current-layer="text38400" />
  <defs
     id="defs3631">
    <rect
       x="1326.9835"
       y="660.7836"
       width="557.87468"
       height="333.09993"
       id="rect38402" />
    <rect
       x="1933.6045"
       y="460.38202"
       width="27.081295"
       height="37.913813"
       id="rect15568" />
    <rect
       x="1152.7919"
       y="675.97267"
       width="474.90431"
       height="300.64507"
       id="rect14778" />
    <rect
       x="928.74432"
       y="49.788355"
       width="846.40204"
       height="547.67191"
       id="rect11332" />
    <rect
       x="1200.6653"
       y="164.68456"
       width="323.62431"
       height="158.93975"
       id="rect11326" />
    <rect
       x="1194.9205"
       y="275.75089"
       width="1719.6132"
       height="769.80457"
       id="rect3853" />
    <rect
       x="1180.7445"
       y="417.05195"
       width="373.72187"
       height="281.64547"
       id="rect3847" />
    <inkscape:path-effect
       effect="powerstroke"
       id="path-effect2881"
       is_visible="true"
       lpeversion="1"
       offset_points="48,0.0015106975"
       not_jump="false"
       sort_points="true"
       interpolator_type="CentripetalCatmullRom"
       interpolator_beta="0"
       start_linecap_type="zerowidth"
       linejoin_type="round"
       miter_limit="4"
       scale_width="0"
       end_linecap_type="zerowidth" />
    <inkscape:path-effect
       join="true"
       close="true"
       autoreverse="true"
       effect="fill_between_many"
       method="bsplinespiro"
       linkedpaths="#path2062,0,1"
       id="path-effect2883"
       is_visible="true"
       lpeversion="0" />
    <inkscape:path-effect
       effect="powerstroke"
       id="path-effect1944"
       is_visible="true"
       lpeversion="1"
       offset_points="0.51323519,3.1147519 | 2.559281,1.97374 | 4.8,0.44770624"
       not_jump="false"
       sort_points="true"
       interpolator_type="CentripetalCatmullRom"
       interpolator_beta="0"
       start_linecap_type="square"
       linejoin_type="spiro"
       miter_limit="5"
       scale_width="1.6"
       end_linecap_type="zerowidth" />
  </defs>
  <g
     inkscape:label="Layer 1"
     inkscape:groupmode="layer"
     id="layer1">
    <path
       style="fill:#e34848;fill-opacity:1;fill-rule:nonzero;stroke:none;stroke-width:0.895416;stroke-dasharray:none;stroke-opacity:1"
       d="m 95.417838,249.68604 c 0.112241,0.2703 0.280671,0.94076 0.673447,1.62181 0.225855,0.39162 0.555027,0.87472 0.946364,1.41042 0.143521,0.19646 0.257332,0.41226 0.359144,0.63324 0.05091,0.11049 0.105078,0.21986 0.171859,0.32154 0.06678,0.10168 0.146831,0.19388 0.228997,0.28359 4.899411,5.3492 10.712751,11.62227 16.412161,17.76019 0.18441,0.1986 0.36449,0.40298 0.57386,0.57508 0.20937,0.17209 0.45563,0.29265 0.70818,0.39099 3.13755,1.22173 6.23941,2.42676 9.1333,3.554 2.19862,0.85642 4.63711,1.81481 7.1885,2.81952 0.0638,0.0251 0.12638,0.0532 0.18963,0.0798 0.0632,0.0265 0.12901,0.0466 0.19577,0.0622 6.20217,1.4548 12.97927,3.05217 18.97394,4.42425 0.086,0.0197 0.17097,0.0442 0.25764,0.0608 0.0867,0.0166 0.17566,0.0163 0.26347,0.008 4.38952,-0.43855 8.12826,-0.8684 9.96181,-1.24204 1.28849,-0.26256 2.06897,-0.63245 2.48277,-0.75894 -0.41788,-0.11225 -1.21057,-0.4552 -2.5073,-0.67351 -1.78932,-0.30123 -5.37085,-0.59397 -9.59999,-0.87408 -5.59062,-1.92051 -12.0599,-4.09691 -18.00833,-6.1043 -2.40756,-1.25621 -4.707,-2.45797 -6.77632,-3.54742 -2.47349,-1.30223 -5.10501,-2.6904 -7.77856,-4.09883 -4.52097,-5.7509 -9.53634,-12.11834 -13.89914,-17.59828 -0.086,-0.50689 -0.17663,-0.95309 -0.27261,-1.30812 -0.20518,-0.75895 -0.56121,-1.35151 -0.67345,-1.62182 l -1.91118,-4.60257 -9.205148,3.82237 z"
       id="path1054"
       inkscape:path-effect="#path-effect1944"
       inkscape:original-d="m 100.02041,247.77485 1.31216,3.15998 15.70152,18.36768 15.91661,7.26164 18.7128,5.33945 12.47518,-0.21358"
       sodipodi:nodetypes="cccccc" />
    <path
       d="m 97.328555,423.64054 5.172535,-21.44256 0.2518,-5.90095 5.52225,-25.20412 18.33059,-39.13723 0.16902,-0.36087 0.11011,-0.40293 10.00036,-36.59205 0.0667,-0.24413 0.0431,-0.26924 6.0427,-37.72024 0.12304,-0.76803 -0.12501,-0.7966 c -1.15921,-7.38656 -3.62581,-19.54867 -3.62581,-19.54867 l -15.53178,-10.18543 -16.66335,1.90464 -13.836483,3.0195 14.516223,-20.02464 7.8874,-19.09623 1.88097,-10.03278 c 0,0 1.20915,-6.77249 1.81372,-10.15872 l 11.22035,-16.73259 31.15611,-8.08524 24.59623,-0.49123 22.51465,8.54878 10.26576,12.32341 9.08159,21.69766 4.35598,26.02898 0.009,0.0516 0.003,0.0169 6.8226,37.66039 0.0177,0.0978 0.0156,0.0713 8.00713,36.42748 0.17589,0.8002 0.42267,0.65731 14.70905,22.87471 0.31003,0.48213 0.3952,0.36049 21.01267,19.16665 0.35672,0.32538 0.39268,0.21917 27.70974,15.46596 0.18313,0.10222 0.1611,0.0695 18.63578,8.03928 0.21589,0.0931 0.1901,0.0572 c 1.64337,0.49415 3.28674,0.9883 4.93012,1.48246 7.26818,0.85489 14.53636,1.70979 21.80454,2.56468 l -19.66624,-10.09255 -4.69479,-1.45413 -18.1782,-8.07798 -27.03811,-15.33854 -20.1209,-18.6389 -13.80783,-21.85432 -7.61217,-35.60812 -6.59038,-37.58003 -4.23744,-26.6212 -0.0852,-0.53544 -0.21934,-0.53711 -9.38431,-22.97983 -0.26635,-0.65222 -0.47206,-0.58081 -11.3769,-13.99761 -0.78498,-0.9658 -1.18582,-0.46174 -24.46027,-9.52443 -0.83683,-0.32585 -0.93401,0.0106 -26.07968,0.29837 -0.55061,0.007 -0.56978,0.14398 -33.61113,8.49302 -1.8326,0.46307 -1.11432,1.62867 -13.12686,19.18596 -0.63226,0.92409 -0.22023,1.16474 -2.9425,20.21408 -6.08753,17.81808 -12.393157,23.12455 0.284053,8.14069 19.731894,-4.06464 13.21239,-0.61101 9.82596,7.0908 2.69209,16.35109 -5.73164,36.69808 -9.68176,35.98468 -18.23823,39.29144 -0.224744,0.48417 -0.107466,0.50399 -5.574512,26.1422 -0.08648,0.40554 -0.01454,0.3896 -0.235738,6.31731 z"
       id="path2885"
       style="fill:#e34848;fill-opacity:1;stroke:none;stroke-opacity:1"
       transform="matrix(0.56854271,0,0,0.54462998,17.281466,39.961002)"
       inkscape:original-d="M 0,0"
       inkscape:path-effect="#path-effect2883"
       class="UnoptimicedTransforms" />
    <path
       style="fill:#cc2121;fill-opacity:1;fill-rule:nonzero;stroke:none;stroke-width:12.8006;stroke-dasharray:none;stroke-opacity:1"
       d="m 125.18629,457.90381 c 2.02782,-8.10967 4.21269,-16.84744 6.5455,-26.17683 0.10065,-2.27566 0.20696,-4.67925 0.31862,-7.20376 2.23348,-9.83422 4.56454,-20.09807 6.98803,-30.76888 7.47192,-15.39031 15.20851,-31.32578 23.19609,-47.77823 0.0693,-0.1427 0.14061,-0.28962 0.21388,-0.44054 0.0453,-0.16 0.0918,-0.32404 0.13934,-0.49189 4.12989,-14.57843 8.34969,-29.47429 12.65477,-44.67114 0.0276,-0.0975 0.0557,-0.19686 0.0844,-0.298 0.0179,-0.10778 0.0361,-0.21737 0.0546,-0.32868 2.512,-15.12742 5.06156,-30.48102 7.64662,-46.04839 0.0512,-0.30849 0.10314,-0.6211 0.1557,-0.9376 -0.0521,-0.32039 -0.10487,-0.64463 -0.1582,-0.97248 -0.36586,-2.24904 -0.83528,-4.86473 -1.33576,-7.53309 -0.49781,-2.6542 -1.02501,-5.35339 -1.50843,-7.78083 -0.95752,-4.808 -1.74402,-8.55085 -1.74402,-8.55085 -6.48959,-4.1056 -13.04239,-8.25119 -19.65439,-12.43424 -6.96883,0.76844 -13.99896,1.54365 -21.08632,2.32516 -5.79143,1.21926 -11.62888,2.44821 -17.50911,3.68617 6.08056,-8.09201 12.20473,-16.24206 18.36927,-24.44583 3.30618,-7.72221 6.63374,-15.49434 9.98097,-23.31243 0.78896,-4.05971 1.5825,-8.14301 2.38023,-12.24789 0,0 1.52065,-8.2167 2.29513,-12.4016 4.71176,-6.77864 9.44535,-13.58867 14.19858,-20.42696 13.09029,-3.27718 26.23424,-6.5678 39.42591,-9.87036 10.3394,-0.19921 20.71584,-0.39913 31.12483,-0.59968 9.46891,3.46849 18.96717,6.94773 28.49072,10.43623 4.31941,5.00225 8.65023,10.01772 12.99062,15.04426 3.82286,8.81132 7.6541,17.64197 11.49212,26.48823 1.83444,10.57489 3.67208,21.16828 5.51219,31.77584 0.004,0.021 0.007,0.042 0.0109,0.063 0.001,0.007 0.003,0.0137 0.004,0.0206 2.8768,15.31955 5.75504,30.64679 8.63354,45.97542 0.007,0.0397 0.0149,0.0795 0.0224,0.11925 0.007,0.029 0.0132,0.058 0.0198,0.087 3.38042,14.83625 6.75836,29.66165 10.13244,44.47008 0.0743,0.32617 0.14852,0.65184 0.22261,0.977 0.17859,0.26794 0.3569,0.53545 0.53486,0.80243 6.21779,9.32842 12.42309,18.63812 18.61329,27.92515 0.13111,0.1967 0.2619,0.39293 0.39231,0.58858 0.16722,0.14715 0.33394,0.29386 0.50011,0.44009 8.89489,7.82721 17.75957,15.62784 26.59008,23.39839 0.15108,0.13295 0.30157,0.26537 0.4514,0.39722 0.1664,0.0896 0.33206,0.1788 0.49691,0.26756 11.74883,6.32617 23.43896,12.62073 35.06475,18.88065 0.0777,0.0418 0.15496,0.0834 0.23175,0.12479 0.0684,0.0285 0.13636,0.0567 0.20386,0.0848 7.91717,3.29489 15.77935,6.5669 23.58228,9.81425 0.0918,0.0382 0.18288,0.0761 0.2732,0.1137 0.0809,0.0235 0.1611,0.0467 0.24056,0.0698 1.00351,0.2911 5.23521,1.51867 6.23872,1.80977 9.19693,1.04359 18.39521,2.08734 27.59214,3.13093 -8.22055,-4.06989 -16.51762,-8.17765 -24.88626,-12.32085 -1.96417,-0.58691 -3.94486,-1.17875 -5.94094,-1.77519 -7.61134,-3.26298 -15.28048,-6.55074 -23.00325,-9.86149 -11.32932,-6.20031 -22.73625,-12.44309 -34.21486,-18.7251 -8.43659,-7.53948 -16.92521,-15.12545 -25.46161,-22.75413 -5.79316,-8.84563 -11.61838,-17.74022 -17.47285,-26.67947 -3.19559,-14.42092 -6.40698,-28.91317 -9.63267,-43.46993 -2.76815,-15.22785 -5.54847,-30.52259 -8.33967,-45.87722 -1.78077,-10.79279 -3.56843,-21.62734 -5.36219,-32.49882 -0.0358,-0.21719 -0.0718,-0.4351 -0.10785,-0.65366 -0.0923,-0.21796 -0.1848,-0.43656 -0.27756,-0.65569 -3.94932,-9.32971 -7.90828,-18.6822 -11.8752,-28.05349 -0.11214,-0.26491 -0.2245,-0.53036 -0.33704,-0.79622 -0.19884,-0.23601 -0.39798,-0.47239 -0.59736,-0.70904 -4.79409,-5.69033 -9.59363,-11.38713 -14.39669,-17.08811 -0.33091,-0.39278 -0.66207,-0.78584 -0.99333,-1.17903 -0.5001,-0.18786 -1.00035,-0.37578 -1.50057,-0.56369 -10.3199,-3.87663 -20.63893,-7.75294 -30.95278,-11.6273 -0.35321,-0.13269 -0.70625,-0.2653 -1.05896,-0.3978 -0.39439,0.004 -0.78842,0.009 -1.18192,0.013 -11.0169,0.12159 -22.01907,0.24302 -33.00194,0.36424 -0.23279,0.003 -0.46507,0.005 -0.69685,0.008 -0.2409,0.0587 -0.48127,0.11732 -0.72101,0.17576 -14.2173,3.46576 -28.39684,6.92231 -42.53245,10.36815 -0.77567,0.18909 -1.54879,0.37755 -2.31914,0.56534 -0.47182,0.66526 -0.94192,1.32811 -1.4101,1.98825 -5.56088,7.84094 -11.09878,15.64947 -16.61113,23.42198 -0.26799,0.37787 -0.53473,0.75397 -0.80008,1.12812 -0.0934,0.47655 -0.18631,0.95059 -0.27869,1.4219 -1.24873,8.27574 -2.49012,16.50283 -3.72353,24.67708 -2.58517,7.29978 -5.1534,14.55176 -7.70335,21.75209 -5.26685,9.48077 -10.49537,18.89256 -15.68268,28.23015 0.12082,3.34029 0.24066,6.65362 0.35945,9.93805 8.40002,-1.6693 16.72483,-3.32366 24.96934,-4.96206 5.63026,-0.25119 11.20459,-0.49988 16.71937,-0.74591 4.19191,2.91832 8.33756,5.80444 12.43407,8.65635 1.14997,6.7382 2.2858,13.39359 3.40666,19.96121 -2.45198,15.1455 -4.8703,30.08305 -7.25299,44.80054 -4.14902,14.87682 -8.23409,29.52435 -12.2516,43.92961 -7.83189,16.27736 -15.52748,32.27141 -23.07921,47.96648 -0.0968,0.20111 -0.1916,0.3982 -0.28441,0.5911 -0.0464,0.20995 -0.0918,0.41513 -0.13599,0.61526 -2.41662,10.93314 -4.76916,21.57638 -7.05416,31.91407 -0.0377,0.17048 -0.0742,0.3356 -0.10943,0.49507 -0.006,0.16495 -0.0125,0.3236 -0.0184,0.47562 -0.10454,2.70265 -0.20407,5.27583 -0.29831,7.71208 1.55259,9.49036 3.00674,18.37892 4.35635,26.62853 z m 0,0 c -1.34961,-8.24961 -2.80376,-17.13817 -4.35635,-26.62855 0.0942,-2.43623 0.19377,-5.00941 0.29831,-7.71205 0.006,-0.15203 0.012,-0.31068 0.0184,-0.47563 0.0353,-0.15947 0.0718,-0.32459 0.10943,-0.49507 2.285,-10.33769 4.63754,-20.98093 7.05416,-31.91407 0.0442,-0.20013 0.0896,-0.40531 0.13599,-0.61526 0.0928,-0.1929 0.18765,-0.38999 0.2844,-0.59107 7.55174,-15.6951 15.24733,-31.68915 23.07923,-47.96651 4.0175,-14.40526 8.10257,-29.05279 12.25159,-43.92961 2.38269,-14.71749 4.80101,-29.65504 7.25299,-44.80055 -1.12086,-6.56761 -2.25669,-13.223 -3.40666,-19.9612 -4.09651,-2.85191 -8.24216,-5.73803 -12.43407,-8.65635 -5.51478,0.24603 -11.08911,0.49472 -16.71937,0.74591 -8.24451,1.6384 -16.56932,3.29276 -24.96934,4.96206 -0.11879,-3.28443 -0.23863,-6.59776 -0.35945,-9.93805 5.18731,-9.33759 10.41583,-18.74938 15.68268,-28.23015 2.54995,-7.20033 5.11818,-14.45231 7.70335,-21.75209 1.23341,-8.17425 2.4748,-16.40134 3.72353,-24.67708 0.0924,-0.47131 0.18529,-0.94535 0.27869,-1.4219 0.26535,-0.37415 0.53209,-0.75025 0.80008,-1.12812 5.51235,-7.77251 11.05025,-15.58104 16.61113,-23.42198 0.46818,-0.66014 0.93828,-1.32299 1.41009,-1.98825 0.77036,-0.18779 1.54348,-0.37625 2.31903,-0.56531 14.13573,-3.44587 28.31527,-6.90242 42.53257,-10.36818 0.23974,-0.0584 0.48011,-0.11704 0.72101,-0.17576 0.23178,-0.003 0.46406,-0.005 0.69676,-0.008 10.98296,-0.12122 21.98513,-0.24265 33.00203,-0.36424 0.3935,-0.004 0.78753,-0.009 1.18192,-0.013 0.35271,0.1325 0.70575,0.26511 1.05896,0.3978 10.31385,3.87436 20.63288,7.75067 30.95285,11.62733 0.50015,0.18788 1.0004,0.3758 1.5005,0.56366 0.33126,0.39319 0.66242,0.78625 0.99333,1.17903 4.80306,5.70098 9.6026,11.39778 14.39665,17.08806 0.19942,0.2367 0.39856,0.47308 0.5974,0.70909 0.11254,0.26586 0.2249,0.53131 0.33704,0.79622 3.96692,9.37129 7.92588,18.72378 11.8752,28.05349 0.0928,0.21913 0.18529,0.43773 0.27756,0.65569 0.0361,0.21856 0.072,0.43647 0.10785,0.65366 1.79376,10.87148 3.58142,21.70603 5.36219,32.49882 2.7912,15.35463 5.57152,30.64937 8.33967,45.87722 3.22569,14.55676 6.43708,29.04901 9.63267,43.46993 5.85447,8.93925 11.67969,17.83384 17.47285,26.67947 8.5364,7.62868 17.02502,15.21465 25.46161,22.75413 11.47861,6.28201 22.88554,12.52479 34.21486,18.7251 7.72277,3.31075 15.39191,6.59851 23.00325,9.86149 1.99608,0.59644 3.97677,1.18828 5.94094,1.77519 8.36864,4.1432 16.66571,8.25096 24.88626,12.32085 -9.19693,-1.04359 -18.39521,-2.08734 -27.59214,-3.13093 22.21216,6.44347 -28.45088,-8.25324 -6.23872,-1.80977 -0.0795,-0.0231 -0.15967,-0.0463 -0.24056,-0.0698 -0.0903,-0.0376 -0.18141,-0.0755 -0.2732,-0.1137 -7.80293,-3.24735 -15.66511,-6.51936 -23.58228,-9.81425 -0.0675,-0.0281 -0.13547,-0.0564 -0.20386,-0.0848 -0.0768,-0.0413 -0.15405,-0.0829 -0.23175,-0.12479 -11.62579,-6.25992 -23.31592,-12.55448 -35.06475,-18.88065 -0.16485,-0.0888 -0.33051,-0.17796 -0.49691,-0.26756 -0.14983,-0.13185 -0.30032,-0.26427 -0.4514,-0.39722 -8.83051,-7.77055 -17.69519,-15.57118 -26.59008,-23.39839 -0.16617,-0.14623 -0.33289,-0.29294 -0.50011,-0.44009 -0.13041,-0.19565 -0.2612,-0.39188 -0.39231,-0.58858 -6.1902,-9.28703 -12.3955,-18.59673 -18.61329,-27.92515 -0.17796,-0.26698 -0.35627,-0.53449 -0.53486,-0.80243 -0.0741,-0.32516 -0.14829,-0.65083 -0.22258,-0.97688 -3.37411,-14.80855 -6.75205,-29.63395 -10.13247,-44.4702 -0.007,-0.029 -0.0132,-0.058 -0.0198,-0.087 -0.007,-0.0398 -0.0149,-0.0796 -0.0224,-0.11935 -2.87848,-15.32853 -5.75672,-30.65577 -8.63352,-45.97532 -0.001,-0.007 -0.003,-0.0137 -0.004,-0.0206 -0.004,-0.021 -0.007,-0.042 -0.0109,-0.063 -1.84011,-10.60756 -3.67775,-21.20095 -5.51217,-31.77575 -3.83804,-8.84635 -7.66928,-17.677 -11.49214,-26.48832 -4.34039,-5.02654 -8.67121,-10.04201 -12.99062,-15.04426 -9.52355,-3.4885 -19.02181,-6.96774 -28.49064,-10.4362 -10.40907,0.20052 -20.78551,0.40044 -31.12483,0.59965 -13.19175,3.30256 -26.3357,6.59318 -39.42599,9.87036 -4.75323,6.83829 -9.48682,13.64832 -14.19857,20.42693 -0.77449,4.18493 -2.29514,12.40163 -2.29514,12.40163 -0.79773,4.10488 -1.59127,8.18818 -2.38023,12.24789 -3.34723,7.81809 -6.67479,15.59022 -9.98097,23.31243 -6.16454,8.20377 -12.28871,16.35382 -18.36927,24.44583 5.88023,-1.23796 11.71768,-2.46691 17.50911,-3.68617 7.08736,-0.78151 14.11749,-1.55672 21.08632,-2.32516 6.612,4.18305 13.1648,8.32864 19.65439,12.43424 0,0 0.7865,3.74285 1.74402,8.55085 0.48342,2.42744 1.01062,5.12663 1.50843,7.78083 0.50048,2.66836 0.9699,5.28405 1.33576,7.53309 0.0533,0.32785 0.10608,0.65209 0.1582,0.97248 -0.0526,0.3165 -0.10447,0.62911 -0.1557,0.9376 -2.58506,15.56737 -5.13462,30.92097 -7.64662,46.04839 -0.0185,0.11131 -0.0367,0.2209 -0.0546,0.32868 -0.0286,0.10114 -0.0568,0.20051 -0.0844,0.29803 -4.30507,15.19682 -8.52487,30.09268 -12.65476,44.67111 -0.0476,0.16785 -0.094,0.33189 -0.13934,0.49189 -0.0733,0.15092 -0.1446,0.29784 -0.21388,0.44054 -7.98758,16.45245 -15.72417,32.38792 -23.19609,47.77824 -2.42349,10.6708 -4.75455,20.93465 -6.98804,30.76889 -0.11165,2.52449 -0.21796,4.92808 -0.31862,7.20376 -2.3328,9.32937 -4.51767,18.06714 -6.54549,26.17681 z"
       id="path2062"
       sodipodi:nodetypes="cccccccccccccccccccccccccccccccccccccccccccccccsccccccccccccccccccccccccccccccccccccccccccccccccc"
       inkscape:linked-fill="path2885"
       transform="matrix(0.44928787,0,0,0.44613017,16.372225,66.403636)"
       inkscape:original-d="m 125.18629,457.90381 6.54549,-26.1768 0.31863,-7.2038 6.98803,-30.76887 23.19609,-47.77823 0.21388,-0.44054 0.13934,-0.49189 12.65476,-44.67111 0.0844,-0.29803 0.0546,-0.32868 7.64662,-46.04839 0.1557,-0.9376 -0.1582,-0.97248 c -1.4669,-9.01742 -4.58821,-23.86477 -4.58821,-23.86477 l -19.65439,-12.43424 -21.08632,2.32516 -17.50911,3.68617 18.36927,-24.44583 9.98097,-23.31243 2.38023,-12.24789 c 0,0 1.5301,-8.26776 2.29514,-12.40163 l 14.19857,-20.42693 39.42591,-9.87036 31.12483,-0.59968 28.49072,10.43623 12.99062,15.04426 11.49212,26.48823 5.51219,31.77584 0.0109,0.063 0.004,0.0206 8.63352,45.97532 0.0224,0.11935 0.0198,0.087 10.13247,44.4702 0.22258,0.97688 0.53486,0.80243 18.61329,27.92515 0.39231,0.58858 0.50011,0.44009 26.59008,23.39839 0.4514,0.39722 0.49691,0.26756 35.06475,18.88065 0.23175,0.12479 0.20386,0.0848 23.58228,9.81425 0.2732,0.1137 0.24056,0.0698 c 2.07957,0.60325 4.15914,1.20651 6.23872,1.80977 9.19738,1.04364 18.39476,2.08729 27.59214,3.13093 l -24.88626,-12.32085 -5.94094,-1.77519 -23.00325,-9.86149 -34.21486,-18.7251 -25.46161,-22.75413 -17.47285,-26.67947 -9.63267,-43.46993 -8.33967,-45.87722 -5.36219,-32.49882 -0.10785,-0.65366 -0.27756,-0.65569 -11.8752,-28.05349 -0.33704,-0.79622 -0.59736,-0.70904 -14.39669,-17.08811 -0.99333,-1.17903 -1.50057,-0.56369 -30.95278,-11.6273 -1.05896,-0.3978 -1.18192,0.013 -33.00203,0.36424 -0.69676,0.008 -0.72101,0.17576 -42.53257,10.36818 -2.31903,0.56531 -1.41009,1.98825 -16.61113,23.42198 -0.80008,1.12812 -0.27869,1.4219 -3.72353,24.67708 -7.70335,21.75209 -15.68268,28.23015 0.35945,9.93805 24.96934,-4.96206 16.71937,-0.74591 12.43407,8.65635 3.40666,19.96121 -7.25299,44.80054 -12.2516,43.92963 -23.07922,47.96649 -0.2844,0.59107 -0.13599,0.61526 -7.05416,31.91407 -0.10943,0.49507 -0.0184,0.47562 -0.29831,7.71209 z"
       inkscape:path-effect="#path-effect2881"
       class="UnoptimicedTransforms" />
    <ellipse
       style="fill:#6e0000;fill-opacity:0;stroke:#2a2a2a;stroke-width:18.0247;stroke-dasharray:none;stroke-opacity:1"
       id="path144"
       cx="130.58473"
       cy="179.38631"
       inkscape:highlight-color="#3b80ee"
       rx="107.75982"
       ry="107.00246" />
    <ellipse
       style="fill:#e34848;fill-opacity:1;fill-rule:evenodd;stroke:none;stroke-width:6.08156;stroke-dasharray:none;stroke-opacity:1"
       id="path2137"
       cx="116.25983"
       cy="141.20943"
       rx="6.6372967"
       ry="6.5906472" />
    <g
       id="path11439"
       transform="translate(3.0399621,29.3863)">
      <path
         style="color:#000000;fill:#2a2a2a;fill-rule:evenodd;stroke-width:0.804564;-inkscape-stroke:none"
         d="m 131.76969,215.95457 35.54942,14.27905 9.91124,1.25036 c 3.05221,0.30857 5.53913,0.47473 7.37613,0.92634 3.52676,0.867 5.15339,1.59255 9.16962,3.07659 5.3867,2.17394 10.50008,4.52729 15.04861,7.41068 -0.0125,-0.008 0.4815,0.40275 1.50485,1.20312 4.51675,3.53253 2.44623,1.79773 6.0781,5.14205 2.36683,2.47397 1.26917,1.25866 3.65334,3.95972 l 1.13135,1.28151 17.34321,3.34275 -4.57891,-14.1708 c -2.53818,-2.83427 -1.39585,-1.59548 -4.35715,-4.68128 l -0.17132,-0.17759 -0.18058,-0.16638 c -2.44466,-2.2431 -4.26059,-4.04901 -7.56907,-6.37556 -7.63201,-5.36691 -15.84437,-9.85186 -24.57012,-13.21509 l -0.0417,-0.016 -0.0432,-0.016 c -3.88781,-1.44458 -6.6202,-2.60614 -11.12979,-3.74694 -3.77161,-0.95412 -6.98664,-1.07367 -9.44126,-1.4047 z"
         id="path22635"
         sodipodi:nodetypes="cccsccsccccccccscccscc" />
    </g>
    <g
       aria-label="riller."
       transform="matrix(17.273421,0,0,17.273421,-22667.004,-11351.679)"
       id="text38400"
       style="font-size:14.6667px;font-family:Tahoma;-inkscape-font-specification:Tahoma;white-space:pre;shape-inside:url(#rect38402);display:inline;fill:#2a2a2a;fill-rule:evenodd;stroke:#2a2a2a;stroke-width:0">
      <path
         d="m 1332.1979,667.61133 h -0.072 q -0.1504,-0.043 -0.3223,-0.0501 -0.1647,-0.0143 -0.401,-0.0143 -0.5443,0 -1.0814,0.23632 -0.5371,0.23633 -1.0169,0.70183 v 5.67905 h -1.3464 v -7.99937 h 1.3464 v 1.18881 q 0.7376,-0.6517 1.2819,-0.91667 0.5514,-0.27214 1.0671,-0.27214 0.2076,0 0.3079,0.0143 0.1074,0.007 0.2363,0.0286 z"
         id="path52829" />
      <path
         d="m 1334.6185,674.16408 h -1.3464 v -7.99937 h 1.3464 z m 0.093,-9.33856 h -1.5325 v -1.39649 h 1.5325 z"
         id="path52831" />
      <path
         d="m 1337.9844,674.16408 h -1.3464 v -11.14326 h 1.3464 z"
         id="path52833" />
      <path
         d="m 1341.3789,674.16408 h -1.3463 v -11.14326 h 1.3463 z"
         id="path52835" />
      <path
         d="m 1346.8288,674.35028 q -1.9121,0 -2.972,-1.07422 -1.0527,-1.08139 -1.0527,-3.06512 0,-1.95508 1.0241,-3.10808 1.0241,-1.16015 2.6784,-1.16015 0.7447,0 1.3177,0.21484 0.5729,0.21484 1.0026,0.67318 0.4297,0.45833 0.6588,1.12435 0.2292,0.65886 0.2292,1.61849 v 0.73047 h -5.543 q 0,1.39649 0.7018,2.13412 0.7019,0.73763 1.9408,0.73763 0.444,0 0.8665,-0.10026 0.4297,-0.10026 0.7735,-0.25781 0.3652,-0.16471 0.6159,-0.3151 0.2506,-0.15756 0.4153,-0.29362 h 0.079 v 1.4681 q -0.2363,0.0931 -0.5872,0.23633 -0.3509,0.13606 -0.6302,0.21484 -0.3939,0.10742 -0.7162,0.16472 -0.3151,0.0573 -0.8021,0.0573 z m 1.5755,-5.07749 q -0.014,-0.54427 -0.1289,-0.93815 -0.1145,-0.39388 -0.3294,-0.66602 -0.2363,-0.30078 -0.6087,-0.45833 -0.3652,-0.15756 -0.9095,-0.15756 -0.5371,0 -0.9167,0.16472 -0.3724,0.15755 -0.6803,0.46549 -0.3008,0.31511 -0.4584,0.70183 -0.1575,0.37956 -0.2005,0.88802 z"
         id="path52837" />
      <path
         d="m 1355.3152,667.61133 h -0.072 q -0.1504,-0.043 -0.3223,-0.0501 -0.1647,-0.0143 -0.4011,-0.0143 -0.5442,0 -1.0813,0.23632 -0.5371,0.23633 -1.017,0.70183 v 5.67905 h -1.3463 v -7.99937 h 1.3463 v 1.18881 q 0.7377,-0.6517 1.2819,-0.91667 0.5515,-0.27214 1.0671,-0.27214 0.2077,0 0.3079,0.0143 0.1075,0.007 0.2364,0.0286 z"
         id="path52839" />
      <path
         d="m 1357.3445,674.04675 h -1.7116 v -2.04102 h 1.7116 z"
         style="fill:#e34848"
         id="path52841" />
    </g>
  </g>
</svg>
