<svg xmlns="http://www.w3.org/2000/svg" height="40" viewBox="0 -960 960 960" width="40"><path fill="#ffffff" d="M295.518-118.359q-23.825 0-40.095-16.441-16.269-16.441-16.269-40.477 0-24.037 16.283-40.457 16.284-16.42 40.1-16.42 23.815 0 40.357 16.441 16.542 16.441 16.542 40.478 0 24.036-16.441 40.456t-40.477 16.42Zm372.846 0q-23.825 0-40.094-16.441Q612-151.241 612-175.277q0-24.037 16.284-40.457 16.283-16.42 40.099-16.42 23.816 0 40.357 16.441 16.542 16.441 16.542 40.478 0 24.036-16.441 40.456t-40.477 16.42Zm-435.8-627.667L343.538-513h266.231q6.924 0 12.564-3.461 5.641-3.462 8.975-9.616l109.487-198.41q4.615-8.462.769-15-3.846-6.539-13.077-6.539H232.564Zm-16.662-32.436h517.123q25.686 0 38.53 21.403 12.843 21.403 1.638 43.264L662.3-511.372q-8.595 13.821-22.565 22.314-13.971 8.494-29.27 8.494H324.564l-52.795 97.077q-5.641 9.231-.128 20t17.051 10.769h436.59v32.436H292.567q-33.991 0-49.298-25.496-15.308-25.496-.244-53.45l63.231-113.079-148.647-313.001H86.051v-32.436h92.231l37.62 79.282ZM343.538-513h280.847-280.847Z"/></svg>