<?xml version="1.0" encoding="UTF-8" standalone="no"?>
<!-- Created with Inkscape (http://www.inkscape.org/) -->

<svg
   width="390mm"
   height="170mm"
   viewBox="0 0 390 170"
   version="1.1"
   id="svg5"
   inkscape:version="1.1.1 (3bf5ae0d25, 2021-09-20)"
   sodipodi:docname="icon.svg"
   xmlns:inkscape="http://www.inkscape.org/namespaces/inkscape"
   xmlns:sodipodi="http://sodipodi.sourceforge.net/DTD/sodipodi-0.dtd"
   xmlns="http://www.w3.org/2000/svg"
   xmlns:svg="http://www.w3.org/2000/svg">
  <sodipodi:namedview
     id="namedview7"
     pagecolor="#ffffff"
     bordercolor="#666666"
     borderopacity="1.0"
     inkscape:pageshadow="2"
     inkscape:pageopacity="0.0"
     inkscape:pagecheckerboard="0"
     inkscape:document-units="mm"
     showgrid="false"
     width="298mm"
     inkscape:zoom="1.0381216"
     inkscape:cx="427.21391"
     inkscape:cy="508.12928"
     inkscape:window-width="1920"
     inkscape:window-height="1009"
     inkscape:window-x="-8"
     inkscape:window-y="-8"
     inkscape:window-maximized="1"
     inkscape:current-layer="layer1" />
  <defs
     id="defs2" />
  <g
     inkscape:label="Layer 1"
     inkscape:groupmode="layer"
     id="layer1">
    <rect
       style="opacity:1;fill:#303030;fill-opacity:1;stroke:none;stroke-width:0.79375;stroke-linejoin:round;paint-order:stroke fill markers"
       id="rect846"
       width="389.96896"
       height="139.54904"
       x="1.0508772e-06"
       y="0.0056317891" />
    <rect
       style="opacity:1;fill:#ffffff;fill-opacity:1;stroke:none;stroke-width:0.79375;stroke-linejoin:round;paint-order:stroke fill markers"
       id="rect1476"
       width="390.0108"
       height="30.473722"
       x="1.0508771e-06"
       y="139.55467"
       ry="0" />
    <g
       aria-label="Qriller"
       id="text4340"
       style="font-size:86.0777px;line-height:1.25;font-family:'Playfair Display';-inkscape-font-specification:'Playfair Display';fill:#ffffff;stroke-width:0.264583">
      <path
         d="m 78.613672,96.975225 1.291166,0.516466 q -1.032933,3.529189 -2.410176,5.853279 -1.291165,2.41018 -3.012719,3.95958 -1.635477,1.46332 -4.476041,2.66841 -2.754486,1.20508 -7.144448,1.20508 -4.562118,0 -8.866003,-1.54939 -4.217808,-1.46332 -8.779925,-3.61527 -4.562118,-2.15194 -10.071091,-3.95957 -0.602544,-0.17216 -1.11901,-0.34431 -0.516466,-0.17216 -0.946855,-0.25824 -1.635476,0.60255 -3.529185,0.94686 -1.89371,0.34431 -3.615264,0.34431 -1.721554,0 -2.840564,-0.43039 -1.11901,-0.43039 -1.11901,-1.29116 0,-1.807635 4.648196,-1.807635 3.012719,0 6.455827,0.688621 3.098797,-0.860777 5.336817,-1.979787 2.238021,-1.032932 4.562118,-1.979787 2.410176,-0.946854 5.767206,-1.205087 l 0.08608,1.377243 q -2.582331,0.258233 -4.47604,0.946854 -1.89371,0.7747 -3.787419,1.635477 -1.89371,0.860777 -4.47604,1.635471 4.303884,0.86078 9.382469,1.80764 5.078584,0.94685 9.812857,1.63547 4.734274,0.68862 8.091304,0.68862 6.197594,0 9.72678,-1.80763 3.615263,-1.80763 5.508972,-5.681125 z M 46.16238,32.84734 q 8.177381,0 14.288898,3.701341 6.197594,3.701341 9.554624,10.673634 3.443108,6.886216 3.443108,16.785151 0,9.640703 -3.529185,16.871229 -3.443108,7.230527 -9.640702,11.276179 -6.197595,4.045651 -14.202821,4.045651 -8.177381,0 -14.374975,-3.701341 -6.111517,-3.701341 -9.554624,-10.673634 -3.357031,-6.972294 -3.357031,-16.785151 0,-9.640702 3.529186,-16.871229 3.529186,-7.230527 9.640702,-11.276178 6.197594,-4.045652 14.20282,-4.045652 z m -0.344311,1.549398 q -5.59505,0 -9.726779,3.873497 -4.13173,3.873496 -6.455828,10.673634 -2.23802,6.800138 -2.23802,15.752219 0,9.124236 2.496253,15.924374 2.582331,6.714061 6.886216,10.415402 4.389963,3.615263 9.640702,3.615263 5.595051,0 9.72678,-3.873497 4.13173,-3.873496 6.36975,-10.673634 2.324098,-6.886216 2.324098,-15.752219 0,-9.210313 -2.582331,-15.924374 -2.496254,-6.71406 -6.800138,-10.329324 -4.303885,-3.701341 -9.640703,-3.701341 z"
         id="path14704" />
      <path
         d="m 107.27748,49.460336 q 2.3241,0 4.04565,0.946854 1.80763,0.946855 2.75449,2.496253 1.03293,1.463321 1.03293,3.357031 0,2.151942 -1.37724,3.787418 -1.29117,1.635477 -3.52919,1.635477 -1.80763,0 -3.18487,-1.11901 -1.37725,-1.205088 -1.37725,-3.357031 0,-1.635476 0.86078,-2.754486 0.94686,-1.205088 2.06587,-1.893709 -0.60255,-0.860777 -1.80764,-0.860777 -2.6684,0 -4.90643,1.635476 -2.238015,1.549398 -3.787414,4.045652 -1.549398,2.496253 -2.410175,5.336817 -0.860777,2.754486 -0.860777,5.164662 v 18.248472 q 0,4.217807 2.410175,5.681128 2.496253,1.377243 6.714061,1.377243 v 1.807632 q -1.97979,-0.08608 -5.595051,-0.172156 -3.615263,-0.172155 -7.660915,-0.172155 -2.926642,0 -5.853283,0.172155 -2.840564,0.08608 -4.303885,0.172156 v -1.807632 q 3.529185,0 4.992506,-1.291165 1.549399,-1.291166 1.549399,-4.906429 v -26.94232 q 0,-3.873496 -1.377243,-5.681128 -1.377243,-1.893709 -5.164662,-1.893709 v -1.807632 q 2.754486,0.258233 5.336817,0.258233 2.496253,0 4.734273,-0.258233 2.324098,-0.344311 4.217808,-0.946854 v 10.759712 q 0.946854,-2.496253 2.668408,-4.992507 1.807632,-2.582331 4.303888,-4.303885 2.49625,-1.721553 5.50897,-1.721553 z"
         id="path14706" />
      <path
         d="m 128.62472,29.145999 q 2.23802,0 3.8735,1.635476 1.63548,1.635476 1.63548,3.873496 0,2.238021 -1.63548,3.873497 -1.63548,1.635476 -3.8735,1.635476 -2.23802,0 -3.87349,-1.635476 -1.63548,-1.635476 -1.63548,-3.873497 0,-2.23802 1.63548,-3.873496 1.63547,-1.635476 3.87349,-1.635476 z m 4.47604,20.57257 v 37.271643 q 0,3.615263 1.46332,4.906429 1.5494,1.291165 5.07859,1.291165 v 1.807632 q -1.46332,-0.08608 -4.47604,-0.172156 -2.92664,-0.172155 -5.93936,-0.172155 -2.92664,0 -5.93936,0.172155 -3.01272,0.08608 -4.47604,0.172156 v -1.807632 q 3.52918,0 4.9925,-1.291165 1.5494,-1.291166 1.5494,-4.906429 v -26.94232 q 0,-3.873496 -1.37724,-5.681128 -1.37725,-1.893709 -5.16466,-1.893709 v -1.807632 q 2.75448,0.258233 5.33681,0.258233 2.49626,0 4.73428,-0.258233 2.32409,-0.344311 4.2178,-0.946854 z"
         id="path14708" />
      <path
         d="m 157.71892,27.510523 v 59.479689 q 0,3.615263 1.46332,4.906429 1.5494,1.291165 5.07859,1.291165 v 1.807632 q -1.46332,-0.08608 -4.47604,-0.172156 -2.92664,-0.172155 -5.93936,-0.172155 -2.92665,0 -5.93936,0.172155 -3.01272,0.08608 -4.47604,0.172156 v -1.807632 q 3.52918,0 4.9925,-1.291165 1.5494,-1.291166 1.5494,-4.906429 V 37.839846 q 0,-3.873496 -1.37724,-5.681128 -1.37725,-1.893709 -5.16466,-1.893709 v -1.807632 q 2.75448,0.258233 5.33681,0.258233 2.49626,0 4.73428,-0.258233 2.32409,-0.344311 4.2178,-0.946854 z"
         id="path14710" />
      <path
         d="m 182.33709,27.510523 v 59.479689 q 0,3.615263 1.46332,4.906429 1.5494,1.291165 5.07858,1.291165 v 1.807632 q -1.46332,-0.08608 -4.47604,-0.172156 -2.92664,-0.172155 -5.93936,-0.172155 -2.92664,0 -5.93936,0.172155 -3.01272,0.08608 -4.47604,0.172156 v -1.807632 q 3.52918,0 4.99251,-1.291165 1.54939,-1.291166 1.54939,-4.906429 V 37.839846 q 0,-3.873496 -1.37724,-5.681128 -1.37724,-1.893709 -5.16466,-1.893709 v -1.807632 q 2.75449,0.258233 5.33682,0.258233 2.49625,0 4.73427,-0.258233 2.3241,-0.344311 4.21781,-0.946854 z"
         id="path14712" />
      <path
         d="m 213.32497,49.460336 q 7.57484,0 11.79264,4.648195 4.30389,4.562118 4.30389,14.288898 h -30.38543 l -0.0861,-1.635476 h 22.20805 q 0.17215,-4.217807 -0.68862,-7.746993 -0.86078,-3.615263 -2.75449,-5.767206 -1.80763,-2.151942 -4.73427,-2.151942 -3.95958,0 -7.05837,3.959574 -3.01272,3.959574 -3.61527,12.567344 l 0.25824,0.344311 q -0.17216,1.291165 -0.25824,2.840564 -0.0861,1.549398 -0.0861,3.098797 0,5.853283 1.8937,10.07109 1.89371,4.217807 4.90643,6.455828 3.0988,2.151942 6.36975,2.151942 2.58233,0 4.90643,-0.774699 2.3241,-0.860777 4.30389,-2.754487 1.97978,-1.893709 3.4431,-5.078584 l 1.72156,0.688622 q -0.94686,2.840564 -3.0988,5.508973 -2.15194,2.668408 -5.42289,4.389962 -3.27096,1.635476 -7.57484,1.635476 -6.19759,0 -10.67364,-2.840564 -4.38996,-2.840564 -6.80013,-7.83307 -2.3241,-5.078584 -2.3241,-11.620489 0,-7.574838 2.41017,-12.997733 2.41018,-5.508972 6.80014,-8.435614 4.38997,-3.012719 10.24325,-3.012719 z"
         id="path14714" />
      <path
         d="m 262.73346,49.460336 q 2.3241,0 4.04565,0.946854 1.80763,0.946855 2.75449,2.496253 1.03293,1.463321 1.03293,3.357031 0,2.151942 -1.37724,3.787418 -1.29117,1.635477 -3.52919,1.635477 -1.80763,0 -3.18487,-1.11901 -1.37725,-1.205088 -1.37725,-3.357031 0,-1.635476 0.86078,-2.754486 0.94685,-1.205088 2.06586,-1.893709 -0.60254,-0.860777 -1.80763,-0.860777 -2.66841,0 -4.90643,1.635476 -2.23802,1.549398 -3.78742,4.045652 -1.54939,2.496253 -2.41017,5.336817 -0.86078,2.754486 -0.86078,5.164662 v 18.248472 q 0,4.217807 2.41018,5.681128 2.49625,1.377243 6.71406,1.377243 v 1.807632 q -1.97979,-0.08608 -5.59505,-0.172156 -3.61527,-0.172155 -7.66092,-0.172155 -2.92664,0 -5.85328,0.172155 -2.84056,0.08608 -4.30389,0.172156 v -1.807632 q 3.52919,0 4.99251,-1.291165 1.5494,-1.291166 1.5494,-4.906429 v -26.94232 q 0,-3.873496 -1.37724,-5.681128 -1.37725,-1.893709 -5.16467,-1.893709 v -1.807632 q 2.75449,0.258233 5.33682,0.258233 2.49625,0 4.73427,-0.258233 2.3241,-0.344311 4.21781,-0.946854 v 10.759712 q 0.94686,-2.496253 2.66841,-4.992507 1.80763,-2.582331 4.30389,-4.303885 2.49625,-1.721553 5.50897,-1.721553 z"
         id="path14716" />
    </g>
    <g
       aria-label="Conceptual learning | worksheets grandmaster"
       id="text20819"
       style="font-size:9.87778px;line-height:1.25;font-family:'Playfair Display';-inkscape-font-specification:'Playfair Display';fill:#303030;stroke-width:0.264583">
      <path
         d="m 21.743037,151.10004 q 0.651933,0 1.0668,0.19755 0.424745,0.18768 0.750711,0.4445 0.197556,0.14817 0.296334,0.0395 0.108655,-0.11854 0.148167,-0.54328 h 0.227189 q -0.01976,0.36548 -0.02963,0.889 -0.0099,0.52352 -0.0099,1.38289 h -0.227189 q -0.06914,-0.42475 -0.128411,-0.67169 -0.05927,-0.25682 -0.148166,-0.43462 -0.07902,-0.1778 -0.217312,-0.3556 -0.306211,-0.40499 -0.770466,-0.58279 -0.464256,-0.18768 -0.977901,-0.18768 -0.484011,0 -0.879122,0.24694 -0.385233,0.23707 -0.671689,0.69145 -0.276578,0.45438 -0.434622,1.09643 -0.148167,0.64206 -0.148167,1.44216 0,0.82973 0.167922,1.47179 0.167922,0.63217 0.464256,1.0668 0.306211,0.43462 0.7112,0.66181 0.414867,0.21731 0.889,0.21731 0.4445,0 0.928512,-0.1778 0.484011,-0.1778 0.760589,-0.57291 0.217311,-0.28646 0.296333,-0.6223 0.0889,-0.33585 0.158044,-0.93839 h 0.227189 q 0,0.89888 0.0099,1.45203 0.0099,0.54328 0.02963,0.91864 h -0.227189 q -0.03951,-0.42475 -0.138289,-0.5334 -0.0889,-0.10866 -0.306212,0.0296 -0.365477,0.25682 -0.780344,0.45438 -0.404989,0.18768 -1.047045,0.18768 -0.938389,0 -1.649589,-0.42475 -0.701322,-0.42474 -1.096434,-1.22484 -0.385233,-0.8001 -0.385233,-1.92617 0,-1.10631 0.404989,-1.93605 0.404989,-0.82973 1.106311,-1.29399 0.7112,-0.46425 1.629834,-0.46425 z"
         id="path27013" />
      <path
         d="m 27.580802,153.00645 q 0.632178,0 1.135945,0.27658 0.503767,0.27658 0.8001,0.86924 0.306211,0.59267 0.306211,1.54094 0,0.94826 -0.306211,1.54093 -0.296333,0.58279 -0.8001,0.85937 -0.503767,0.27658 -1.135945,0.27658 -0.6223,0 -1.135945,-0.27658 -0.503766,-0.27658 -0.809977,-0.85937 -0.296334,-0.59267 -0.296334,-1.54093 0,-0.94827 0.296334,-1.54094 0.306211,-0.59266 0.809977,-0.86924 0.513645,-0.27658 1.135945,-0.27658 z m 0,0.19756 q -0.563033,0 -0.928511,0.58279 -0.3556,0.58278 -0.3556,1.90641 0,1.32362 0.3556,1.90641 0.365478,0.57291 0.928511,0.57291 0.563034,0 0.918634,-0.57291 0.365478,-0.58279 0.365478,-1.90641 0,-1.32363 -0.365478,-1.90641 -0.3556,-0.58279 -0.918634,-0.58279 z"
         id="path27015" />
      <path
         d="m 33.892688,153.00645 q 0.375356,0 0.6223,0.0988 0.256822,0.0988 0.424745,0.27658 0.187677,0.19755 0.2667,0.49389 0.07902,0.29633 0.07902,0.8001 v 2.63736 q 0,0.41487 0.167922,0.56304 0.1778,0.14816 0.582789,0.14816 v 0.20744 q -0.167922,-0.01 -0.513644,-0.0198 -0.345723,-0.0197 -0.671689,-0.0197 -0.325967,0 -0.642056,0.0197 -0.306211,0.01 -0.464256,0.0198 v -0.20744 q 0.3556,0 0.503767,-0.14816 0.148167,-0.14817 0.148167,-0.56304 v -2.85468 q 0,-0.30621 -0.04939,-0.56303 -0.04939,-0.25682 -0.227189,-0.41487 -0.167922,-0.15804 -0.523523,-0.15804 -0.414866,0 -0.730955,0.23707 -0.306211,0.23706 -0.484011,0.65193 -0.167923,0.40499 -0.167923,0.90876 v 2.19286 q 0,0.41487 0.148167,0.56304 0.148167,0.14816 0.503767,0.14816 v 0.20744 q -0.158045,-0.01 -0.474134,-0.0198 -0.306211,-0.0197 -0.632178,-0.0197 -0.325966,0 -0.671689,0.0197 -0.345722,0.01 -0.513644,0.0198 v -0.20744 q 0.404989,0 0.572911,-0.14816 0.1778,-0.14817 0.1778,-0.56304 v -3.09174 q 0,-0.4445 -0.158044,-0.65194 -0.158045,-0.21731 -0.592667,-0.21731 v -0.20743 q 0.316089,0.0296 0.612422,0.0296 0.286456,0 0.543278,-0.0296 0.2667,-0.0395 0.484011,-0.10866 v 1.16558 q 0.256823,-0.67169 0.7112,-0.92851 0.464256,-0.2667 0.968023,-0.2667 z"
         id="path27017" />
      <path
         d="m 38.940215,153.00645 q 0.316089,0 0.612423,0.079 0.296333,0.079 0.5334,0.23707 0.227189,0.14817 0.345722,0.34572 0.118533,0.18768 0.118533,0.41487 0,0.2667 -0.148166,0.41487 -0.148167,0.13828 -0.375356,0.13828 -0.217311,0 -0.385233,-0.12841 -0.158045,-0.12841 -0.158045,-0.36547 0,-0.22719 0.118534,-0.36548 0.128411,-0.13829 0.296333,-0.1778 -0.09878,-0.1778 -0.3556,-0.29634 -0.246945,-0.11853 -0.5334,-0.11853 -0.246945,0 -0.493889,0.11853 -0.246945,0.11854 -0.454378,0.39512 -0.207433,0.2667 -0.335845,0.74083 -0.128411,0.46425 -0.128411,1.16558 0,0.86924 0.197556,1.38289 0.197555,0.51364 0.513644,0.74083 0.325967,0.21731 0.711201,0.21731 0.256822,0 0.523522,-0.0988 0.2667,-0.0988 0.503767,-0.31609 0.237066,-0.22719 0.404989,-0.60254 l 0.187677,0.0691 q -0.09878,0.31609 -0.325966,0.64206 -0.227189,0.31609 -0.592667,0.52352 -0.365478,0.20744 -0.898878,0.20744 -0.612422,0 -1.106311,-0.31609 -0.493889,-0.31609 -0.790223,-0.89888 -0.286455,-0.59267 -0.286455,-1.40265 0,-0.80997 0.286455,-1.4224 0.296334,-0.6223 0.819856,-0.96802 0.523522,-0.3556 1.195211,-0.3556 z"
         id="path27019" />
      <path
         d="m 43.671654,153.00645 q 0.869244,0 1.353256,0.5334 0.493889,0.52352 0.493889,1.63971 h -3.486857 l -0.0099,-0.18768 h 2.548467 q 0.01975,-0.48401 -0.07902,-0.889 -0.09878,-0.41486 -0.316088,-0.66181 -0.207434,-0.24694 -0.543278,-0.24694 -0.454378,0 -0.809978,0.45438 -0.345723,0.45437 -0.414867,1.44215 l 0.02963,0.0395 q -0.01976,0.14817 -0.02963,0.32597 -0.0099,0.1778 -0.0099,0.3556 0,0.67169 0.217311,1.1557 0.217311,0.48401 0.563034,0.74083 0.3556,0.24695 0.730955,0.24695 0.296334,0 0.563034,-0.0889 0.2667,-0.0988 0.493889,-0.31609 0.227189,-0.21731 0.395111,-0.58279 l 0.197556,0.079 q -0.108656,0.32597 -0.3556,0.63218 -0.246945,0.30621 -0.6223,0.50377 -0.375356,0.18768 -0.869245,0.18768 -0.7112,0 -1.224845,-0.32597 -0.503767,-0.32597 -0.780344,-0.89888 -0.266701,-0.58279 -0.266701,-1.3335 0,-0.86924 0.276578,-1.49154 0.276578,-0.63218 0.780345,-0.96803 0.503767,-0.34572 1.175456,-0.34572 z"
         id="path27021" />
      <path
         d="m 47.840062,153.03608 v 6.06496 q 0,0.42475 0.246945,0.56303 0.256822,0.14817 0.701322,0.14817 v 0.20743 q -0.217311,-0.01 -0.602544,-0.0296 -0.385234,-0.01 -0.819856,-0.01 -0.306211,0 -0.612422,0.01 -0.296334,0.0198 -0.454378,0.0296 v -0.20743 q 0.3556,0 0.503767,-0.12841 0.148166,-0.12841 0.148166,-0.48401 v -4.9784 q 0,-0.4445 -0.158044,-0.65194 -0.158045,-0.21731 -0.592667,-0.21731 v -0.20743 q 0.316089,0.0296 0.612422,0.0296 0.286456,0 0.543278,-0.0296 0.2667,-0.0395 0.484011,-0.10866 z m 1.580445,-0.0296 q 0.523523,0 0.938389,0.28646 0.414867,0.27657 0.651934,0.81985 0.246944,0.54328 0.246944,1.34338 0,0.5334 -0.128411,1.05692 -0.128411,0.51365 -0.404989,0.93839 -0.2667,0.41487 -0.701322,0.67169 -0.424745,0.24695 -1.027289,0.24695 -0.464256,0 -0.809978,-0.21732 -0.335845,-0.21731 -0.454378,-0.52352 l 0.09878,-0.13829 q 0.138289,0.27658 0.395111,0.46426 0.2667,0.18768 0.661811,0.18768 0.553156,0 0.859367,-0.34573 0.306211,-0.34572 0.424745,-0.91863 0.128411,-0.58279 0.128411,-1.28411 0,-0.79022 -0.128411,-1.29399 -0.128412,-0.50377 -0.385234,-0.75071 -0.256822,-0.24695 -0.632178,-0.24695 -0.484011,0 -0.879122,0.40499 -0.395111,0.39511 -0.503767,1.20509 l -0.118533,-0.13829 q 0.108655,-0.83961 0.592666,-1.30386 0.493889,-0.46426 1.175456,-0.46426 z"
         id="path27023" />
      <path
         d="m 53.598805,151.50503 v 1.64959 h 1.461911 v 0.19755 h -1.461911 v 3.8227 q 0,0.46426 0.167922,0.65194 0.167923,0.18768 0.464256,0.18768 0.296333,0 0.513644,-0.23707 0.217312,-0.24695 0.375356,-0.81986 l 0.197556,0.0494 q -0.09878,0.57291 -0.395111,0.96802 -0.286456,0.39512 -0.889001,0.39512 -0.335844,0 -0.553155,-0.0889 -0.217312,-0.079 -0.385234,-0.23707 -0.217311,-0.22719 -0.306211,-0.54328 -0.07902,-0.31609 -0.07902,-0.83961 v -3.30906 h -0.948267 v -0.19755 h 0.948267 v -1.5113 q 0.246944,-0.01 0.474133,-0.0395 0.227189,-0.0296 0.414867,-0.0988 z"
         id="path27025" />
      <path
         d="m 59.98971,153.03608 v 4.12892 q 0,0.4445 0.158045,0.66181 0.167922,0.20743 0.592666,0.20743 v 0.20743 q -0.306211,-0.0296 -0.612422,-0.0296 -0.286456,0 -0.553156,0.0296 -0.256822,0.0296 -0.474133,0.10866 v -1.16558 q -0.246945,0.64206 -0.701322,0.91864 -0.444501,0.2667 -0.918634,0.2667 -0.345722,0 -0.602545,-0.0988 -0.256822,-0.0988 -0.424744,-0.27658 -0.187678,-0.19756 -0.256822,-0.51365 -0.06914,-0.31608 -0.06914,-0.78034 v -2.47932 q 0,-0.4445 -0.158044,-0.65194 -0.158045,-0.21731 -0.592667,-0.21731 v -0.20743 q 0.316089,0.0296 0.612422,0.0296 0.286456,0 0.543278,-0.0296 0.2667,-0.0395 0.484011,-0.10866 v 3.88197 q 0,0.30621 0.03951,0.56303 0.03951,0.25683 0.197556,0.41487 0.158045,0.15805 0.513645,0.15805 0.385233,0 0.681566,-0.23707 0.306212,-0.23707 0.474134,-0.64206 0.1778,-0.40499 0.1778,-0.90875 v -2.0447 q 0,-0.4445 -0.158045,-0.65194 -0.158044,-0.21731 -0.592666,-0.21731 v -0.20743 q 0.316089,0.0296 0.612422,0.0296 0.286456,0 0.543278,-0.0296 0.2667,-0.0395 0.484011,-0.10866 z"
         id="path27027" />
      <path
         d="m 62.646826,158.30094 q -0.404989,0 -0.701322,-0.14817 -0.296334,-0.15804 -0.454378,-0.43462 -0.148167,-0.27658 -0.148167,-0.64205 0,-0.43463 0.197556,-0.7112 0.207433,-0.27658 0.523522,-0.4445 0.316089,-0.16793 0.661811,-0.27658 0.3556,-0.11854 0.671689,-0.21731 0.316089,-0.10866 0.513645,-0.24695 0.207433,-0.13829 0.207433,-0.36548 v -0.61242 q 0,-0.41486 -0.128411,-0.63218 -0.118533,-0.21731 -0.325967,-0.28645 -0.207433,-0.079 -0.464255,-0.079 -0.246945,0 -0.533401,0.0691 -0.276577,0.0692 -0.4445,0.28646 0.187678,0.0395 0.325967,0.19755 0.138289,0.15805 0.138289,0.40499 0,0.24695 -0.158044,0.39511 -0.158045,0.13829 -0.404989,0.13829 -0.286456,0 -0.424745,-0.1778 -0.128411,-0.18768 -0.128411,-0.41487 0,-0.25682 0.128411,-0.41486 0.128411,-0.15805 0.325967,-0.29634 0.227189,-0.15804 0.582789,-0.2667 0.365478,-0.11853 0.819856,-0.11853 0.404988,0 0.691444,0.0988 0.286456,0.0889 0.474134,0.2667 0.256822,0.23707 0.335844,0.58279 0.07902,0.33584 0.07902,0.80998 v 2.74602 q 0,0.24694 0.06914,0.3556 0.07902,0.10865 0.237066,0.10865 0.108656,0 0.207434,-0.0494 0.09878,-0.0494 0.237067,-0.15805 l 0.108655,0.16792 q -0.207433,0.15805 -0.395111,0.2667 -0.187678,0.0988 -0.503767,0.0988 -0.286455,0 -0.474133,-0.0988 -0.187678,-0.0988 -0.286456,-0.28645 -0.0889,-0.19756 -0.0889,-0.49389 -0.2667,0.4445 -0.642056,0.66181 -0.365477,0.21731 -0.829733,0.21731 z m 0.3556,-0.39511 q 0.325967,0 0.602545,-0.18768 0.286455,-0.18768 0.513644,-0.56303 v -1.93605 q -0.118533,0.16793 -0.345722,0.28646 -0.227189,0.10865 -0.493889,0.22719 -0.2667,0.10865 -0.513645,0.2667 -0.237066,0.14816 -0.395111,0.39511 -0.158044,0.24694 -0.158044,0.64205 0,0.39512 0.207433,0.63218 0.217311,0.23707 0.582789,0.23707 z"
         id="path27029" />
      <path
         d="m 67.733873,150.48762 v 6.82554 q 0,0.41487 0.167922,0.56304 0.1778,0.14816 0.582789,0.14816 v 0.20744 q -0.167922,-0.01 -0.513645,-0.0198 -0.335844,-0.0197 -0.681566,-0.0197 -0.335845,0 -0.681567,0.0197 -0.345722,0.01 -0.513645,0.0198 v -0.20744 q 0.404989,0 0.572912,-0.14816 0.1778,-0.14817 0.1778,-0.56304 v -5.64021 q 0,-0.4445 -0.158045,-0.65193 -0.158044,-0.21731 -0.592667,-0.21731 v -0.20744 q 0.316089,0.0296 0.612423,0.0296 0.286455,0 0.543278,-0.0296 0.2667,-0.0395 0.484011,-0.10865 z"
         id="path27031" />
      <path
         d="m 72.722127,150.48762 v 6.82554 q 0,0.41487 0.167923,0.56304 0.1778,0.14816 0.582789,0.14816 v 0.20744 q -0.167923,-0.01 -0.513645,-0.0198 -0.335844,-0.0197 -0.681567,-0.0197 -0.335844,0 -0.681567,0.0197 -0.345722,0.01 -0.513644,0.0198 v -0.20744 q 0.404989,0 0.572911,-0.14816 0.1778,-0.14817 0.1778,-0.56304 v -5.64021 q 0,-0.4445 -0.158044,-0.65193 -0.158045,-0.21731 -0.592667,-0.21731 v -0.20744 q 0.316089,0.0296 0.612422,0.0296 0.286456,0 0.543278,-0.0296 0.2667,-0.0395 0.484011,-0.10865 z"
         id="path27033" />
      <path
         d="m 76.278118,153.00645 q 0.869245,0 1.353256,0.5334 0.493889,0.52352 0.493889,1.63971 h -3.486856 l -0.0099,-0.18768 h 2.548467 q 0.01976,-0.48401 -0.07902,-0.889 -0.09878,-0.41486 -0.316089,-0.66181 -0.207433,-0.24694 -0.543278,-0.24694 -0.454378,0 -0.809978,0.45438 -0.345722,0.45437 -0.414867,1.44215 l 0.02963,0.0395 q -0.01976,0.14817 -0.02963,0.32597 -0.0099,0.1778 -0.0099,0.3556 0,0.67169 0.217311,1.1557 0.217311,0.48401 0.563033,0.74083 0.3556,0.24695 0.730956,0.24695 0.296333,0 0.563033,-0.0889 0.2667,-0.0988 0.493889,-0.31609 0.227189,-0.21731 0.395112,-0.58279 l 0.197555,0.079 q -0.108655,0.32597 -0.3556,0.63218 -0.246944,0.30621 -0.6223,0.50377 -0.375356,0.18768 -0.869245,0.18768 -0.7112,0 -1.224844,-0.32597 -0.503767,-0.32597 -0.780345,-0.89888 -0.2667,-0.58279 -0.2667,-1.3335 0,-0.86924 0.276578,-1.49154 0.276578,-0.63218 0.780344,-0.96803 0.503767,-0.34572 1.175456,-0.34572 z"
         id="path27035" />
      <path
         d="m 80.278605,158.30094 q -0.404989,0 -0.701323,-0.14817 -0.296333,-0.15804 -0.454378,-0.43462 -0.148166,-0.27658 -0.148166,-0.64205 0,-0.43463 0.197555,-0.7112 0.207434,-0.27658 0.523523,-0.4445 0.316089,-0.16793 0.661811,-0.27658 0.3556,-0.11854 0.671689,-0.21731 0.316089,-0.10866 0.513644,-0.24695 0.207434,-0.13829 0.207434,-0.36548 v -0.61242 q 0,-0.41486 -0.128411,-0.63218 -0.118534,-0.21731 -0.325967,-0.28645 -0.207433,-0.079 -0.464256,-0.079 -0.246944,0 -0.5334,0.0691 -0.276578,0.0692 -0.4445,0.28646 0.187678,0.0395 0.325967,0.19755 0.138289,0.15805 0.138289,0.40499 0,0.24695 -0.158045,0.39511 -0.158044,0.13829 -0.404989,0.13829 -0.286455,0 -0.424744,-0.1778 -0.128411,-0.18768 -0.128411,-0.41487 0,-0.25682 0.128411,-0.41486 0.128411,-0.15805 0.325966,-0.29634 0.227189,-0.15804 0.582789,-0.2667 0.365478,-0.11853 0.819856,-0.11853 0.404989,0 0.691445,0.0988 0.286455,0.0889 0.474133,0.2667 0.256823,0.23707 0.335845,0.58279 0.07902,0.33584 0.07902,0.80998 v 2.74602 q 0,0.24694 0.06914,0.3556 0.07902,0.10865 0.237067,0.10865 0.108656,0 0.207434,-0.0494 0.09878,-0.0494 0.237066,-0.15805 l 0.108656,0.16792 q -0.207433,0.15805 -0.395111,0.2667 -0.187678,0.0988 -0.503767,0.0988 -0.286456,0 -0.474134,-0.0988 -0.187677,-0.0988 -0.286455,-0.28645 -0.0889,-0.19756 -0.0889,-0.49389 -0.2667,0.4445 -0.642056,0.66181 -0.365478,0.21731 -0.829733,0.21731 z m 0.3556,-0.39511 q 0.325966,0 0.602544,-0.18768 0.286456,-0.18768 0.513645,-0.56303 v -1.93605 q -0.118534,0.16793 -0.345722,0.28646 -0.227189,0.10865 -0.493889,0.22719 -0.266701,0.10865 -0.513645,0.2667 -0.237067,0.14816 -0.395111,0.39511 -0.158045,0.24694 -0.158045,0.64205 0,0.39512 0.207434,0.63218 0.217311,0.23707 0.582789,0.23707 z"
         id="path27037" />
      <path
         d="m 86.867078,153.00645 q 0.2667,0 0.464256,0.10866 0.207433,0.10865 0.316088,0.28645 0.118534,0.16792 0.118534,0.38524 0,0.24694 -0.158045,0.43462 -0.148166,0.18768 -0.404989,0.18768 -0.207433,0 -0.365477,-0.12842 -0.158045,-0.13828 -0.158045,-0.38523 0,-0.18768 0.09878,-0.31609 0.108655,-0.13829 0.237067,-0.21731 -0.06914,-0.0988 -0.207434,-0.0988 -0.306211,0 -0.563033,0.18768 -0.256823,0.1778 -0.434623,0.46426 -0.1778,0.28645 -0.276577,0.61242 -0.09878,0.31609 -0.09878,0.59267 v 2.09408 q 0,0.48402 0.276578,0.65194 0.286455,0.15804 0.770466,0.15804 v 0.20744 q -0.227189,-0.01 -0.642055,-0.0198 -0.414867,-0.0197 -0.879123,-0.0197 -0.335844,0 -0.671689,0.0197 -0.325966,0.01 -0.493889,0.0198 v -0.20744 q 0.404989,0 0.572912,-0.14816 0.1778,-0.14817 0.1778,-0.56304 v -3.09174 q 0,-0.4445 -0.158045,-0.65194 -0.158044,-0.21731 -0.592667,-0.21731 v -0.20743 q 0.316089,0.0296 0.612423,0.0296 0.286455,0 0.543278,-0.0296 0.2667,-0.0395 0.484011,-0.10866 v 1.23473 q 0.108655,-0.28646 0.306211,-0.57291 0.207433,-0.29634 0.493889,-0.49389 0.286456,-0.19756 0.632178,-0.19756 z"
         id="path27039" />
      <path
         d="m 91.509629,153.00645 q 0.375356,0 0.6223,0.0988 0.256823,0.0988 0.424745,0.27658 0.187678,0.19755 0.2667,0.49389 0.07902,0.29633 0.07902,0.8001 v 2.63736 q 0,0.41487 0.167923,0.56304 0.1778,0.14816 0.582789,0.14816 v 0.20744 q -0.167923,-0.01 -0.513645,-0.0198 -0.345722,-0.0197 -0.671689,-0.0197 -0.325967,0 -0.642056,0.0197 -0.306211,0.01 -0.464255,0.0198 v -0.20744 q 0.3556,0 0.503766,-0.14816 0.148167,-0.14817 0.148167,-0.56304 v -2.85468 q 0,-0.30621 -0.04939,-0.56303 -0.04939,-0.25682 -0.227189,-0.41487 -0.167922,-0.15804 -0.523522,-0.15804 -0.414867,0 -0.730956,0.23707 -0.306211,0.23706 -0.484011,0.65193 -0.167922,0.40499 -0.167922,0.90876 v 2.19286 q 0,0.41487 0.148166,0.56304 0.148167,0.14816 0.503767,0.14816 v 0.20744 q -0.158044,-0.01 -0.474133,-0.0198 -0.306211,-0.0197 -0.632178,-0.0197 -0.325967,0 -0.671689,0.0197 -0.345722,0.01 -0.513645,0.0198 v -0.20744 q 0.404989,0 0.572912,-0.14816 0.1778,-0.14817 0.1778,-0.56304 v -3.09174 q 0,-0.4445 -0.158045,-0.65194 -0.158044,-0.21731 -0.592667,-0.21731 v -0.20743 q 0.316089,0.0296 0.612423,0.0296 0.286455,0 0.543278,-0.0296 0.2667,-0.0395 0.484011,-0.10866 v 1.16558 q 0.256822,-0.67169 0.7112,-0.92851 0.464256,-0.2667 0.968022,-0.2667 z"
         id="path27041" />
      <path
         d="m 95.213781,150.67529 q 0.256822,0 0.4445,0.18768 0.187678,0.18768 0.187678,0.4445 0,0.25682 -0.187678,0.4445 -0.187678,0.18768 -0.4445,0.18768 -0.256823,0 -0.4445,-0.18768 -0.187678,-0.18768 -0.187678,-0.4445 0,-0.25682 0.187678,-0.4445 0.187677,-0.18768 0.4445,-0.18768 z m 0.513644,2.36079 v 4.27708 q 0,0.41487 0.167922,0.56304 0.1778,0.14816 0.582789,0.14816 v 0.20744 q -0.167922,-0.01 -0.513644,-0.0198 -0.335845,-0.0197 -0.681567,-0.0197 -0.335844,0 -0.681567,0.0197 -0.345722,0.01 -0.513644,0.0198 v -0.20744 q 0.404989,0 0.572911,-0.14816 0.1778,-0.14817 0.1778,-0.56304 v -3.09174 q 0,-0.4445 -0.158044,-0.65194 -0.158045,-0.21731 -0.592667,-0.21731 v -0.20743 q 0.316089,0.0296 0.612422,0.0296 0.286456,0 0.543278,-0.0296 0.2667,-0.0395 0.484011,-0.10866 z"
         id="path27043" />
      <path
         d="m 100.30083,153.00645 q 0.37535,0 0.6223,0.0988 0.25682,0.0988 0.42474,0.27658 0.18768,0.19755 0.2667,0.49389 0.079,0.29633 0.079,0.8001 v 2.63736 q 0,0.41487 0.16792,0.56304 0.1778,0.14816 0.58279,0.14816 v 0.20744 q -0.16793,-0.01 -0.51365,-0.0198 -0.34572,-0.0197 -0.67169,-0.0197 -0.32596,0 -0.64205,0.0197 -0.30621,0.01 -0.46426,0.0198 v -0.20744 q 0.3556,0 0.50377,-0.14816 0.14816,-0.14817 0.14816,-0.56304 v -2.85468 q 0,-0.30621 -0.0494,-0.56303 -0.0494,-0.25682 -0.22719,-0.41487 -0.16793,-0.15804 -0.52353,-0.15804 -0.414862,0 -0.730951,0.23707 -0.306211,0.23706 -0.484011,0.65193 -0.167923,0.40499 -0.167923,0.90876 v 2.19286 q 0,0.41487 0.148167,0.56304 0.148167,0.14816 0.503767,0.14816 v 0.20744 q -0.158045,-0.01 -0.474133,-0.0198 -0.306212,-0.0197 -0.632178,-0.0197 -0.325967,0 -0.671689,0.0197 -0.345723,0.01 -0.513645,0.0198 v -0.20744 q 0.404989,0 0.572911,-0.14816 0.1778,-0.14817 0.1778,-0.56304 v -3.09174 q 0,-0.4445 -0.158044,-0.65194 -0.158045,-0.21731 -0.592667,-0.21731 v -0.20743 q 0.316089,0.0296 0.612422,0.0296 0.286456,0 0.543278,-0.0296 0.2667,-0.0395 0.484011,-0.10866 v 1.16558 q 0.256823,-0.67169 0.711201,-0.92851 0.464255,-0.2667 0.968024,-0.2667 z"
         id="path27045" />
      <path
         d="m 104.59765,160.08882 q -0.52353,0 -0.98778,-0.10866 -0.46426,-0.10865 -0.75071,-0.34572 -0.27658,-0.22719 -0.27658,-0.58279 0,-0.34572 0.27658,-0.59266 0.27657,-0.24695 0.75071,-0.37536 l 0.0593,0.15804 q -0.21731,0.0692 -0.34572,0.27658 -0.12841,0.20744 -0.12841,0.46426 0,0.45438 0.41487,0.69144 0.42474,0.24695 1.09643,0.24695 0.4445,0 0.86925,-0.11854 0.42474,-0.10865 0.70132,-0.37535 0.27658,-0.2667 0.27658,-0.70132 0,-0.32597 -0.23707,-0.5334 -0.22719,-0.21732 -0.90876,-0.21732 h -0.73095 q -0.31609,0 -0.61242,-0.0494 -0.29634,-0.0494 -0.48402,-0.20744 -0.18767,-0.15804 -0.18767,-0.48401 0,-0.33584 0.27657,-0.64206 0.27658,-0.31608 1.01742,-0.64205 l 0.11853,0.0889 q -0.33584,0.1778 -0.58279,0.36548 -0.24694,0.1778 -0.24694,0.42474 0,0.31609 0.47413,0.31609 h 1.23472 q 0.41487,0 0.76059,0.11853 0.3556,0.11854 0.57291,0.37536 0.21731,0.25682 0.21731,0.67169 0,0.46425 -0.29633,0.86924 -0.29633,0.40499 -0.889,0.65194 -0.58279,0.25682 -1.45203,0.25682 z m 0.0494,-3.96099 q -0.48402,0 -0.87913,-0.15805 -0.39511,-0.16792 -0.6223,-0.51364 -0.22719,-0.34572 -0.22719,-0.889 0,-0.54328 0.22719,-0.889 0.22719,-0.34572 0.6223,-0.50377 0.39511,-0.16792 0.87913,-0.16792 0.49388,0 0.87912,0.16792 0.39511,0.15805 0.6223,0.50377 0.22719,0.34572 0.22719,0.889 0,0.54328 -0.22719,0.889 -0.22719,0.34572 -0.6223,0.51364 -0.38524,0.15805 -0.87912,0.15805 z m 0,-0.1778 q 0.37535,0 0.58278,-0.29633 0.21732,-0.29634 0.21732,-1.08656 0,-0.79022 -0.21732,-1.08656 -0.20743,-0.29633 -0.58278,-0.29633 -0.36548,0 -0.58279,0.29633 -0.21732,0.29634 -0.21732,1.08656 0,0.79022 0.21732,1.08656 0.21731,0.29633 0.58279,0.29633 z m 1.4224,-2.12372 -0.1778,-0.0692 q 0.13828,-0.33584 0.47413,-0.59266 0.33584,-0.25683 0.70132,-0.25683 0.25682,0 0.41487,0.14817 0.15804,0.13829 0.15804,0.42474 0,0.30622 -0.16792,0.43463 -0.15804,0.11853 -0.32597,0.11853 -0.14816,0 -0.27657,-0.0988 -0.12842,-0.10865 -0.14817,-0.33584 -0.0198,-0.22719 0.13829,-0.58279 l 0.12841,0.0296 q -0.41487,0.15805 -0.59267,0.33585 -0.1778,0.16792 -0.32596,0.4445 z"
         id="path27047" />
      <path
         d="m 111.46269,149.75666 v 10.4013 h -0.39511 v -10.4013 z"
         id="path27049" />
      <path
         d="m 116.71762,153.14474 v 0.20743 q -0.24694,0 -0.43462,0.0395 -0.18768,0.0296 -0.24694,0.19756 -0.0593,0.16792 0.0889,0.59267 l 1.02728,2.94357 -0.0691,-0.01 1.45203,-4.01038 0.19756,0.079 -1.80763,5.09694 q -0.0395,0 -0.079,0 -0.0395,0 -0.0889,0 l -1.61995,-4.37586 q -0.15805,-0.39511 -0.31609,-0.47413 -0.14817,-0.079 -0.25682,-0.079 v -0.20743 q 0.19755,0.0296 0.40499,0.0494 0.21731,0.01 0.46425,0.01 0.30621,0 0.64206,-0.0198 0.34572,-0.0197 0.64205,-0.0395 z m 5.4229,0 v 0.19756 q -0.18767,0.0198 -0.3556,0.16792 -0.15804,0.13829 -0.28645,0.52352 l -1.43228,4.24745 q -0.0395,0 -0.079,0 -0.0395,0 -0.0889,0 l -1.59033,-4.04002 0.22719,-1.13594 q 0.0593,0 0.10866,0 0.0593,0 0.11853,0 l 1.54094,4.07952 -0.079,0.0593 0.9779,-2.97321 q 0.10866,-0.33585 0.079,-0.52353 -0.0198,-0.19755 -0.19756,-0.28645 -0.16792,-0.0988 -0.52352,-0.11853 v -0.19756 q 0.1778,0.01 0.30621,0.0198 0.12841,0 0.24694,0.01 0.12842,0 0.27658,0 0.22719,0 0.40499,-0.01 0.18768,-0.01 0.34572,-0.0198 z"
         id="path27051" />
      <path
         d="m 124.78775,153.00645 q 0.63217,0 1.13594,0.27658 0.50377,0.27658 0.8001,0.86924 0.30621,0.59267 0.30621,1.54094 0,0.94826 -0.30621,1.54093 -0.29633,0.58279 -0.8001,0.85937 -0.50377,0.27658 -1.13594,0.27658 -0.6223,0 -1.13595,-0.27658 -0.50377,-0.27658 -0.80998,-0.85937 -0.29633,-0.59267 -0.29633,-1.54093 0,-0.94827 0.29633,-1.54094 0.30621,-0.59266 0.80998,-0.86924 0.51365,-0.27658 1.13595,-0.27658 z m 0,0.19756 q -0.56304,0 -0.92852,0.58279 -0.3556,0.58278 -0.3556,1.90641 0,1.32362 0.3556,1.90641 0.36548,0.57291 0.92852,0.57291 0.56303,0 0.91863,-0.57291 0.36548,-0.58279 0.36548,-1.90641 0,-1.32363 -0.36548,-1.90641 -0.3556,-0.58279 -0.91863,-0.58279 z"
         id="path27053" />
      <path
         d="m 130.85269,153.00645 q 0.2667,0 0.46425,0.10866 0.20744,0.10865 0.31609,0.28645 0.11854,0.16792 0.11854,0.38524 0,0.24694 -0.15805,0.43462 -0.14816,0.18768 -0.40499,0.18768 -0.20743,0 -0.36547,-0.12842 -0.15805,-0.13828 -0.15805,-0.38523 0,-0.18768 0.0988,-0.31609 0.10865,-0.13829 0.23707,-0.21731 -0.0691,-0.0988 -0.20744,-0.0988 -0.30621,0 -0.56303,0.18768 -0.25682,0.1778 -0.43462,0.46426 -0.1778,0.28645 -0.27658,0.61242 -0.0988,0.31609 -0.0988,0.59267 v 2.09408 q 0,0.48402 0.27658,0.65194 0.28645,0.15804 0.77047,0.15804 v 0.20744 q -0.22719,-0.01 -0.64206,-0.0198 -0.41487,-0.0197 -0.87912,-0.0197 -0.33585,0 -0.67169,0.0197 -0.32597,0.01 -0.49389,0.0198 v -0.20744 q 0.40499,0 0.57291,-0.14816 0.1778,-0.14817 0.1778,-0.56304 v -3.09174 q 0,-0.4445 -0.15804,-0.65194 -0.15805,-0.21731 -0.59267,-0.21731 v -0.20743 q 0.31609,0.0296 0.61242,0.0296 0.28646,0 0.54328,-0.0296 0.2667,-0.0395 0.48401,-0.10866 v 1.23473 q 0.10866,-0.28646 0.30621,-0.57291 0.20744,-0.29634 0.49389,-0.49389 0.28646,-0.19756 0.63218,-0.19756 z"
         id="path27055" />
      <path
         d="m 133.52956,150.48762 v 6.82554 q 0,0.41487 0.14817,0.56304 0.14817,0.14816 0.50377,0.14816 v 0.20744 q -0.15805,-0.01 -0.47414,-0.0198 -0.30621,-0.0197 -0.6223,-0.0197 -0.33584,0 -0.68156,0.0197 -0.34573,0.01 -0.51365,0.0198 v -0.20744 q 0.40499,0 0.57291,-0.14816 0.1778,-0.14817 0.1778,-0.56304 v -5.64021 q 0,-0.4445 -0.15804,-0.65193 -0.15805,-0.21731 -0.59267,-0.21731 v -0.20744 q 0.31609,0.0296 0.61242,0.0296 0.28646,0 0.54328,-0.0296 0.2667,-0.0395 0.48401,-0.10865 z m 3.14114,2.65712 v 0.19756 q -0.24695,0.0198 -0.46426,0.13828 -0.21731,0.10866 -0.42474,0.32597 l -1.39277,1.46191 0.13829,-0.27658 1.83726,2.51884 q 0.16793,0.22719 0.31609,0.3556 0.15805,0.12841 0.37536,0.15804 v 0.20744 q -0.10866,-0.01 -0.34572,-0.0198 -0.22719,-0.0197 -0.45438,-0.0197 -0.30621,0 -0.6223,0.0197 -0.31609,0.01 -0.47413,0.0198 v -0.20744 q 0.19755,0 0.27657,-0.0988 0.079,-0.0988 -0.0296,-0.23707 l -1.13594,-1.65947 q -0.18768,-0.2667 -0.34573,-0.34572 -0.14816,-0.079 -0.43462,-0.0889 v -0.19756 q 0.31609,-0.0395 0.51365,-0.12841 0.19755,-0.0988 0.37535,-0.28645 l 0.73096,-0.76059 q 0.31609,-0.32597 0.31609,-0.51365 0,-0.19755 -0.20744,-0.27657 -0.19755,-0.0889 -0.52352,-0.0889 v -0.19756 q 0.25682,0.01 0.57291,0.0296 0.32597,0.01 0.54328,0.01 0.16792,0 0.32597,0 0.15804,-0.01 0.29633,-0.0197 0.13829,-0.01 0.23707,-0.0198 z"
         id="path27057" />
      <path
         d="m 139.17964,153.00645 q 0.39511,0 0.67169,0.12841 0.27658,0.12841 0.40499,0.23707 0.32597,0.2667 0.39511,-0.3556 h 0.22719 q -0.0198,0.27658 -0.0296,0.66181 -0.01,0.37536 -0.01,1.01741 h -0.22719 q -0.0593,-0.36548 -0.20743,-0.7112 -0.13829,-0.34572 -0.41487,-0.56303 -0.27658,-0.22719 -0.72108,-0.22719 -0.34572,0 -0.58279,0.19755 -0.22718,0.18768 -0.22718,0.56304 0,0.29633 0.1778,0.51364 0.1778,0.20744 0.46425,0.39511 0.28646,0.1778 0.6223,0.39511 0.37536,0.23707 0.68157,0.48402 0.30621,0.24694 0.48401,0.54327 0.18768,0.29634 0.18768,0.70133 0,0.45437 -0.23707,0.76059 -0.23707,0.30621 -0.6223,0.46425 -0.37536,0.15805 -0.82973,0.15805 -0.21731,0 -0.41487,-0.0395 -0.18768,-0.0296 -0.36548,-0.0988 -0.0988,-0.0494 -0.20743,-0.11854 -0.0988,-0.0691 -0.19756,-0.14816 -0.0988,-0.079 -0.1778,0.01 -0.079,0.079 -0.11853,0.32597 h -0.22719 q 0.0198,-0.31609 0.0296,-0.77047 0.01,-0.45437 0.01,-1.20509 h 0.22719 q 0.0692,0.55316 0.19756,0.96803 0.12841,0.41486 0.40499,0.65193 0.27657,0.22719 0.77046,0.22719 0.19756,0 0.39511,-0.0889 0.20744,-0.0889 0.34573,-0.29633 0.13828,-0.20744 0.13828,-0.55316 0,-0.43462 -0.31608,-0.7112 -0.31609,-0.27658 -0.8001,-0.58279 -0.3556,-0.22719 -0.67169,-0.45438 -0.30621,-0.22719 -0.50377,-0.51364 -0.18768,-0.28646 -0.18768,-0.69145 0,-0.4445 0.19756,-0.72107 0.20743,-0.28646 0.54328,-0.41487 0.33584,-0.13829 0.72107,-0.13829 z"
         id="path27059" />
      <path
         d="m 143.37768,150.49749 v 3.69429 q 0.25683,-0.67168 0.7112,-0.92851 0.46426,-0.25682 0.96803,-0.25682 0.37535,0 0.6223,0.0988 0.25682,0.0988 0.42474,0.27658 0.18768,0.19755 0.2667,0.49389 0.079,0.29633 0.079,0.8001 v 2.63736 q 0,0.41487 0.16793,0.56304 0.1778,0.14816 0.58278,0.14816 v 0.20744 q -0.16792,-0.01 -0.51364,-0.0198 -0.34572,-0.0197 -0.67169,-0.0197 -0.32597,0 -0.64205,0.0197 -0.30622,0.01 -0.46426,0.0198 v -0.20744 q 0.3556,0 0.50377,-0.14816 0.14816,-0.14817 0.14816,-0.56304 v -2.85468 q 0,-0.30621 -0.0494,-0.56303 -0.0494,-0.25682 -0.22718,-0.41487 -0.16793,-0.15804 -0.52353,-0.15804 -0.40499,0 -0.72107,0.22719 -0.30622,0.22719 -0.48402,0.63218 -0.1778,0.40499 -0.1778,0.92851 v 2.20274 q 0,0.41487 0.14817,0.56304 0.14817,0.14816 0.50377,0.14816 v 0.20744 q -0.15805,-0.01 -0.47414,-0.0198 -0.30621,-0.0197 -0.63217,-0.0197 -0.32597,0 -0.67169,0.0197 -0.34573,0.01 -0.51365,0.0198 v -0.20744 q 0.40499,0 0.57291,-0.14816 0.1778,-0.14817 0.1778,-0.56304 v -5.63033 q 0,-0.4445 -0.15804,-0.65194 -0.15805,-0.21731 -0.59267,-0.21731 v -0.20743 q 0.31609,0.0296 0.61242,0.0296 0.28646,0 0.54328,-0.0296 0.2667,-0.0395 0.48401,-0.10866 z"
         id="path27061" />
      <path
         d="m 150.03531,153.00645 q 0.86924,0 1.35325,0.5334 0.49389,0.52352 0.49389,1.63971 h -3.48685 l -0.01,-0.18768 h 2.54847 q 0.0197,-0.48401 -0.079,-0.889 -0.0988,-0.41486 -0.31608,-0.66181 -0.20744,-0.24694 -0.54328,-0.24694 -0.45438,0 -0.80998,0.45438 -0.34572,0.45437 -0.41487,1.44215 l 0.0296,0.0395 q -0.0198,0.14817 -0.0296,0.32597 -0.01,0.1778 -0.01,0.3556 0,0.67169 0.21731,1.1557 0.21731,0.48401 0.56303,0.74083 0.3556,0.24695 0.73096,0.24695 0.29633,0 0.56303,-0.0889 0.2667,-0.0988 0.49389,-0.31609 0.22719,-0.21731 0.39511,-0.58279 l 0.19755,0.079 q -0.10865,0.32597 -0.3556,0.63218 -0.24694,0.30621 -0.6223,0.50377 -0.37535,0.18768 -0.86924,0.18768 -0.7112,0 -1.22484,-0.32597 -0.50377,-0.32597 -0.78035,-0.89888 -0.2667,-0.58279 -0.2667,-1.3335 0,-0.86924 0.27658,-1.49154 0.27658,-0.63218 0.78034,-0.96803 0.50377,-0.34572 1.17546,-0.34572 z"
         id="path27063" />
      <path
         d="m 155.03345,153.00645 q 0.86924,0 1.35325,0.5334 0.49389,0.52352 0.49389,1.63971 h -3.48685 l -0.01,-0.18768 h 2.54847 q 0.0197,-0.48401 -0.079,-0.889 -0.0988,-0.41486 -0.31609,-0.66181 -0.20743,-0.24694 -0.54327,-0.24694 -0.45438,0 -0.80998,0.45438 -0.34572,0.45437 -0.41487,1.44215 l 0.0296,0.0395 q -0.0198,0.14817 -0.0296,0.32597 -0.01,0.1778 -0.01,0.3556 0,0.67169 0.21731,1.1557 0.21732,0.48401 0.56304,0.74083 0.3556,0.24695 0.73095,0.24695 0.29634,0 0.56304,-0.0889 0.2667,-0.0988 0.49389,-0.31609 0.22719,-0.21731 0.39511,-0.58279 l 0.19755,0.079 q -0.10865,0.32597 -0.3556,0.63218 -0.24694,0.30621 -0.6223,0.50377 -0.37535,0.18768 -0.86924,0.18768 -0.7112,0 -1.22485,-0.32597 -0.50376,-0.32597 -0.78034,-0.89888 -0.2667,-0.58279 -0.2667,-1.3335 0,-0.86924 0.27658,-1.49154 0.27657,-0.63218 0.78034,-0.96803 0.50377,-0.34572 1.17546,-0.34572 z"
         id="path27065" />
      <path
         d="m 159.22161,151.50503 v 1.64959 h 1.46191 v 0.19755 h -1.46191 v 3.8227 q 0,0.46426 0.16792,0.65194 0.16792,0.18768 0.46426,0.18768 0.29633,0 0.51364,-0.23707 0.21731,-0.24695 0.37536,-0.81986 l 0.19755,0.0494 q -0.0988,0.57291 -0.39511,0.96802 -0.28646,0.39512 -0.889,0.39512 -0.33584,0 -0.55316,-0.0889 -0.21731,-0.079 -0.38523,-0.23707 -0.21731,-0.22719 -0.30621,-0.54328 -0.079,-0.31609 -0.079,-0.83961 v -3.30906 h -0.94827 v -0.19755 h 0.94827 v -1.5113 q 0.24694,-0.01 0.47413,-0.0395 0.22719,-0.0296 0.41487,-0.0988 z"
         id="path27067" />
      <path
         d="m 162.89613,153.00645 q 0.39511,0 0.67169,0.12841 0.27657,0.12841 0.40499,0.23707 0.32596,0.2667 0.39511,-0.3556 h 0.22719 q -0.0198,0.27658 -0.0296,0.66181 -0.01,0.37536 -0.01,1.01741 h -0.22718 q -0.0593,-0.36548 -0.20744,-0.7112 -0.13829,-0.34572 -0.41486,-0.56303 -0.27658,-0.22719 -0.72108,-0.22719 -0.34573,0 -0.58279,0.19755 -0.22719,0.18768 -0.22719,0.56304 0,0.29633 0.1778,0.51364 0.1778,0.20744 0.46425,0.39511 0.28646,0.1778 0.62231,0.39511 0.37535,0.23707 0.68156,0.48402 0.30621,0.24694 0.48401,0.54327 0.18768,0.29634 0.18768,0.70133 0,0.45437 -0.23707,0.76059 -0.23706,0.30621 -0.6223,0.46425 -0.37535,0.15805 -0.82973,0.15805 -0.21731,0 -0.41487,-0.0395 -0.18767,-0.0296 -0.36547,-0.0988 -0.0988,-0.0494 -0.20744,-0.11854 -0.0988,-0.0691 -0.19755,-0.14816 -0.0988,-0.079 -0.1778,0.01 -0.079,0.079 -0.11854,0.32597 h -0.22719 q 0.0198,-0.31609 0.0296,-0.77047 0.01,-0.45437 0.01,-1.20509 h 0.22718 q 0.0692,0.55316 0.19756,0.96803 0.12841,0.41486 0.40499,0.65193 0.27658,0.22719 0.77047,0.22719 0.19755,0 0.39511,-0.0889 0.20743,-0.0889 0.34572,-0.29633 0.13829,-0.20744 0.13829,-0.55316 0,-0.43462 -0.31609,-0.7112 -0.31609,-0.27658 -0.8001,-0.58279 -0.3556,-0.22719 -0.67169,-0.45438 -0.30621,-0.22719 -0.50377,-0.51364 -0.18767,-0.28646 -0.18767,-0.69145 0,-0.4445 0.19755,-0.72107 0.20743,-0.28646 0.54328,-0.41487 0.33584,-0.13829 0.72108,-0.13829 z"
         id="path27069" />
      <path
         d="m 169.82042,160.08882 q -0.52352,0 -0.98777,-0.10866 -0.46426,-0.10865 -0.75071,-0.34572 -0.27658,-0.22719 -0.27658,-0.58279 0,-0.34572 0.27658,-0.59266 0.27657,-0.24695 0.75071,-0.37536 l 0.0593,0.15804 q -0.21731,0.0692 -0.34572,0.27658 -0.12841,0.20744 -0.12841,0.46426 0,0.45438 0.41487,0.69144 0.42474,0.24695 1.09643,0.24695 0.4445,0 0.86924,-0.11854 0.42475,-0.10865 0.70133,-0.37535 0.27657,-0.2667 0.27657,-0.70132 0,-0.32597 -0.23706,-0.5334 -0.22719,-0.21732 -0.90876,-0.21732 h -0.73095 q -0.31609,0 -0.61243,-0.0494 -0.29633,-0.0494 -0.48401,-0.20744 -0.18767,-0.15804 -0.18767,-0.48401 0,-0.33584 0.27657,-0.64206 0.27658,-0.31608 1.01741,-0.64205 l 0.11854,0.0889 q -0.33585,0.1778 -0.58279,0.36548 -0.24695,0.1778 -0.24695,0.42474 0,0.31609 0.47414,0.31609 h 1.23472 q 0.41487,0 0.76059,0.11853 0.3556,0.11854 0.57291,0.37536 0.21731,0.25682 0.21731,0.67169 0,0.46425 -0.29633,0.86924 -0.29634,0.40499 -0.889,0.65194 -0.58279,0.25682 -1.45204,0.25682 z m 0.0494,-3.96099 q -0.48401,0 -0.87912,-0.15805 -0.39511,-0.16792 -0.6223,-0.51364 -0.22719,-0.34572 -0.22719,-0.889 0,-0.54328 0.22719,-0.889 0.22719,-0.34572 0.6223,-0.50377 0.39511,-0.16792 0.87912,-0.16792 0.49389,0 0.87913,0.16792 0.39511,0.15805 0.6223,0.50377 0.22718,0.34572 0.22718,0.889 0,0.54328 -0.22718,0.889 -0.22719,0.34572 -0.6223,0.51364 -0.38524,0.15805 -0.87913,0.15805 z m 0,-0.1778 q 0.37536,0 0.58279,-0.29633 0.21731,-0.29634 0.21731,-1.08656 0,-0.79022 -0.21731,-1.08656 -0.20743,-0.29633 -0.58279,-0.29633 -0.36547,0 -0.58279,0.29633 -0.21731,0.29634 -0.21731,1.08656 0,0.79022 0.21731,1.08656 0.21732,0.29633 0.58279,0.29633 z m 1.4224,-2.12372 -0.1778,-0.0692 q 0.13829,-0.33584 0.47414,-0.59266 0.33584,-0.25683 0.70132,-0.25683 0.25682,0 0.41487,0.14817 0.15804,0.13829 0.15804,0.42474 0,0.30622 -0.16792,0.43463 -0.15805,0.11853 -0.32597,0.11853 -0.14816,0 -0.27658,-0.0988 -0.12841,-0.10865 -0.14816,-0.33584 -0.0198,-0.22719 0.13829,-0.58279 l 0.12841,0.0296 q -0.41487,0.15805 -0.59267,0.33585 -0.1778,0.16792 -0.32597,0.4445 z"
         id="path27071" />
      <path
         d="m 176.29037,153.00645 q 0.2667,0 0.46426,0.10866 0.20743,0.10865 0.31609,0.28645 0.11853,0.16792 0.11853,0.38524 0,0.24694 -0.15804,0.43462 -0.14817,0.18768 -0.40499,0.18768 -0.20744,0 -0.36548,-0.12842 -0.15805,-0.13828 -0.15805,-0.38523 0,-0.18768 0.0988,-0.31609 0.10866,-0.13829 0.23707,-0.21731 -0.0691,-0.0988 -0.20743,-0.0988 -0.30622,0 -0.56304,0.18768 -0.25682,0.1778 -0.43462,0.46426 -0.1778,0.28645 -0.27658,0.61242 -0.0988,0.31609 -0.0988,0.59267 v 2.09408 q 0,0.48402 0.27658,0.65194 0.28646,0.15804 0.77047,0.15804 v 0.20744 q -0.22719,-0.01 -0.64206,-0.0198 -0.41486,-0.0197 -0.87912,-0.0197 -0.33584,0 -0.67169,0.0197 -0.32597,0.01 -0.49389,0.0198 v -0.20744 q 0.40499,0 0.57291,-0.14816 0.1778,-0.14817 0.1778,-0.56304 v -3.09174 q 0,-0.4445 -0.15804,-0.65194 -0.15805,-0.21731 -0.59267,-0.21731 v -0.20743 q 0.31609,0.0296 0.61242,0.0296 0.28646,0 0.54328,-0.0296 0.2667,-0.0395 0.48401,-0.10866 v 1.23473 q 0.10866,-0.28646 0.30621,-0.57291 0.20744,-0.29634 0.49389,-0.49389 0.28646,-0.19756 0.63218,-0.19756 z"
         id="path27073" />
      <path
         d="m 179.01663,158.30094 q -0.40499,0 -0.70133,-0.14817 -0.29633,-0.15804 -0.45437,-0.43462 -0.14817,-0.27658 -0.14817,-0.64205 0,-0.43463 0.19756,-0.7112 0.20743,-0.27658 0.52352,-0.4445 0.31609,-0.16793 0.66181,-0.27658 0.3556,-0.11854 0.67169,-0.21731 0.31609,-0.10866 0.51364,-0.24695 0.20744,-0.13829 0.20744,-0.36548 v -0.61242 q 0,-0.41486 -0.12842,-0.63218 -0.11853,-0.21731 -0.32596,-0.28645 -0.20744,-0.079 -0.46426,-0.079 -0.24694,0 -0.5334,0.0691 -0.27658,0.0692 -0.4445,0.28646 0.18768,0.0395 0.32597,0.19755 0.13829,0.15805 0.13829,0.40499 0,0.24695 -0.15805,0.39511 -0.15804,0.13829 -0.40499,0.13829 -0.28645,0 -0.42474,-0.1778 -0.12841,-0.18768 -0.12841,-0.41487 0,-0.25682 0.12841,-0.41486 0.12841,-0.15805 0.32597,-0.29634 0.22719,-0.15804 0.58279,-0.2667 0.36547,-0.11853 0.81985,-0.11853 0.40499,0 0.69145,0.0988 0.28645,0.0889 0.47413,0.2667 0.25682,0.23707 0.33584,0.58279 0.079,0.33584 0.079,0.80998 v 2.74602 q 0,0.24694 0.0691,0.3556 0.079,0.10865 0.23707,0.10865 0.10865,0 0.20743,-0.0494 0.0988,-0.0494 0.23707,-0.15805 l 0.10865,0.16792 q -0.20743,0.15805 -0.39511,0.2667 -0.18768,0.0988 -0.50377,0.0988 -0.28645,0 -0.47413,-0.0988 -0.18768,-0.0988 -0.28645,-0.28645 -0.0889,-0.19756 -0.0889,-0.49389 -0.2667,0.4445 -0.64206,0.66181 -0.36548,0.21731 -0.82973,0.21731 z m 0.3556,-0.39511 q 0.32596,0 0.60254,-0.18768 0.28646,-0.18768 0.51365,-0.56303 v -1.93605 q -0.11854,0.16793 -0.34573,0.28646 -0.22719,0.10865 -0.49389,0.22719 -0.2667,0.10865 -0.51364,0.2667 -0.23707,0.14816 -0.39511,0.39511 -0.15805,0.24694 -0.15805,0.64205 0,0.39512 0.20744,0.63218 0.21731,0.23707 0.58279,0.23707 z"
         id="path27075" />
      <path
         d="m 185.85204,153.00645 q 0.37536,0 0.6223,0.0988 0.25683,0.0988 0.42475,0.27658 0.18768,0.19755 0.2667,0.49389 0.079,0.29633 0.079,0.8001 v 2.63736 q 0,0.41487 0.16792,0.56304 0.1778,0.14816 0.58279,0.14816 v 0.20744 q -0.16792,-0.01 -0.51364,-0.0198 -0.34572,-0.0197 -0.67169,-0.0197 -0.32597,0 -0.64206,0.0197 -0.30621,0.01 -0.46425,0.0198 v -0.20744 q 0.3556,0 0.50376,-0.14816 0.14817,-0.14817 0.14817,-0.56304 v -2.85468 q 0,-0.30621 -0.0494,-0.56303 -0.0494,-0.25682 -0.22719,-0.41487 -0.16792,-0.15804 -0.52352,-0.15804 -0.41487,0 -0.73095,0.23707 -0.30622,0.23706 -0.48402,0.65193 -0.16792,0.40499 -0.16792,0.90876 v 2.19286 q 0,0.41487 0.14817,0.56304 0.14817,0.14816 0.50377,0.14816 v 0.20744 q -0.15805,-0.01 -0.47414,-0.0198 -0.30621,-0.0197 -0.63218,-0.0197 -0.32596,0 -0.67169,0.0197 -0.34572,0.01 -0.51364,0.0198 v -0.20744 q 0.40499,0 0.57291,-0.14816 0.1778,-0.14817 0.1778,-0.56304 v -3.09174 q 0,-0.4445 -0.15804,-0.65194 -0.15805,-0.21731 -0.59267,-0.21731 v -0.20743 q 0.31609,0.0296 0.61242,0.0296 0.28646,0 0.54328,-0.0296 0.2667,-0.0395 0.48401,-0.10866 v 1.16558 q 0.25682,-0.67169 0.7112,-0.92851 0.46426,-0.2667 0.96802,-0.2667 z"
         id="path27077" />
      <path
         d="m 192.92452,150.48762 v 6.6675 q 0,0.4445 0.15804,0.66181 0.16793,0.20743 0.59267,0.20743 v 0.20744 q -0.30621,-0.0296 -0.61242,-0.0296 -0.28646,0 -0.55316,0.0296 -0.25682,0.0296 -0.47413,0.10865 v -6.6675 q 0,-0.4445 -0.15805,-0.65193 -0.15804,-0.21731 -0.59266,-0.21731 v -0.20744 q 0.31609,0.0296 0.61242,0.0296 0.28645,0 0.54328,-0.0296 0.2667,-0.0395 0.48401,-0.10865 z m -2.07434,2.51883 q 0.43463,0 0.80998,0.20743 0.38524,0.20744 0.51365,0.7112 l -0.12841,0.0988 q -0.13829,-0.41486 -0.43463,-0.60254 -0.28645,-0.18768 -0.68156,-0.18768 -0.58279,0 -0.9779,0.60254 -0.38524,0.60255 -0.37536,1.85703 0,0.8001 0.14817,1.3335 0.15804,0.52352 0.45438,0.79022 0.30621,0.25682 0.74083,0.25682 0.41487,0 0.75071,-0.3556 0.33584,-0.3556 0.40499,-1.04704 l 0.11853,0.13829 q -0.079,0.75071 -0.48401,1.1557 -0.39511,0.40499 -1.07668,0.40499 -0.61242,0 -1.07667,-0.29634 -0.45438,-0.29633 -0.70133,-0.889 -0.23706,-0.59267 -0.23706,-1.49154 0,-0.89888 0.30621,-1.49155 0.31609,-0.60254 0.81985,-0.89888 0.51365,-0.29633 1.10631,-0.29633 z"
         id="path27079" />
      <path
         d="m 197.42878,153.00645 q 0.34572,0 0.60254,0.0988 0.25683,0.0988 0.42475,0.27658 0.18768,0.19755 0.25682,0.51364 0.0691,0.31609 0.0691,0.78035 v 2.63736 q 0,0.41487 0.16793,0.56304 0.1778,0.14816 0.58279,0.14816 v 0.20744 q -0.16793,-0.01 -0.51365,-0.0198 -0.34572,-0.0197 -0.67169,-0.0197 -0.32596,0 -0.64205,0.0197 -0.30621,0.01 -0.46426,0.0198 v -0.20744 q 0.3556,0 0.50377,-0.14816 0.14816,-0.14817 0.14816,-0.56304 v -2.85468 q 0,-0.30621 -0.0395,-0.56303 -0.0395,-0.25682 -0.19755,-0.41487 -0.15805,-0.15804 -0.51365,-0.15804 -0.38523,0 -0.69144,0.23707 -0.29633,0.23706 -0.47413,0.65193 -0.16793,0.40499 -0.16793,0.90876 v 2.19286 q 0,0.41487 0.14817,0.56304 0.14817,0.14816 0.50377,0.14816 v 0.20744 q -0.15805,-0.01 -0.47414,-0.0198 -0.30621,-0.0197 -0.63217,-0.0197 -0.32597,0 -0.67169,0.0197 -0.34573,0.01 -0.51365,0.0198 v -0.20744 q 0.40499,0 0.57291,-0.14816 0.1778,-0.14817 0.1778,-0.56304 v -3.09174 q 0,-0.4445 -0.15804,-0.65194 -0.15805,-0.21731 -0.59267,-0.21731 v -0.20743 q 0.31609,0.0296 0.61242,0.0296 0.28646,0 0.54328,-0.0296 0.2667,-0.0395 0.48401,-0.10866 v 1.16558 q 0.25683,-0.64205 0.70133,-0.91863 0.4445,-0.27658 0.91863,-0.27658 z m 2.97321,0 q 0.34572,0 0.60255,0.0988 0.25682,0.0988 0.42474,0.27658 0.18768,0.19755 0.25682,0.51364 0.0691,0.31609 0.0691,0.78035 v 2.63736 q 0,0.41487 0.16792,0.56304 0.1778,0.14816 0.58279,0.14816 v 0.20744 q -0.16792,-0.01 -0.51365,-0.0198 -0.34572,-0.0197 -0.67169,-0.0197 -0.32596,0 -0.64205,0.0197 -0.30621,0.01 -0.46426,0.0198 v -0.20744 q 0.3556,0 0.50377,-0.14816 0.14817,-0.14817 0.14817,-0.56304 v -2.85468 q 0,-0.30621 -0.0395,-0.56303 -0.0395,-0.25682 -0.19756,-0.41487 -0.15804,-0.15804 -0.51364,-0.15804 -0.38524,0 -0.69145,0.23707 -0.29633,0.23706 -0.47413,0.64205 -0.16793,0.40499 -0.16793,0.90876 l -0.0296,-0.91864 q 0.2667,-0.68156 0.72108,-0.92851 0.45438,-0.25682 0.92851,-0.25682 z"
         id="path27081" />
      <path
         d="m 204.34321,158.30094 q -0.40499,0 -0.70132,-0.14817 -0.29634,-0.15804 -0.45438,-0.43462 -0.14817,-0.27658 -0.14817,-0.64205 0,-0.43463 0.19756,-0.7112 0.20743,-0.27658 0.52352,-0.4445 0.31609,-0.16793 0.66181,-0.27658 0.3556,-0.11854 0.67169,-0.21731 0.31609,-0.10866 0.51365,-0.24695 0.20743,-0.13829 0.20743,-0.36548 v -0.61242 q 0,-0.41486 -0.12841,-0.63218 -0.11853,-0.21731 -0.32597,-0.28645 -0.20743,-0.079 -0.46425,-0.079 -0.24695,0 -0.5334,0.0691 -0.27658,0.0692 -0.4445,0.28646 0.18767,0.0395 0.32596,0.19755 0.13829,0.15805 0.13829,0.40499 0,0.24695 -0.15804,0.39511 -0.15805,0.13829 -0.40499,0.13829 -0.28646,0 -0.42475,-0.1778 -0.12841,-0.18768 -0.12841,-0.41487 0,-0.25682 0.12841,-0.41486 0.12841,-0.15805 0.32597,-0.29634 0.22719,-0.15804 0.58279,-0.2667 0.36548,-0.11853 0.81985,-0.11853 0.40499,0 0.69145,0.0988 0.28646,0.0889 0.47413,0.2667 0.25683,0.23707 0.33585,0.58279 0.079,0.33584 0.079,0.80998 v 2.74602 q 0,0.24694 0.0691,0.3556 0.079,0.10865 0.23707,0.10865 0.10866,0 0.20743,-0.0494 0.0988,-0.0494 0.23707,-0.15805 l 0.10866,0.16792 q -0.20744,0.15805 -0.39511,0.2667 -0.18768,0.0988 -0.50377,0.0988 -0.28646,0 -0.47413,-0.0988 -0.18768,-0.0988 -0.28646,-0.28645 -0.0889,-0.19756 -0.0889,-0.49389 -0.2667,0.4445 -0.64206,0.66181 -0.36547,0.21731 -0.82973,0.21731 z m 0.3556,-0.39511 q 0.32597,0 0.60254,-0.18768 0.28646,-0.18768 0.51365,-0.56303 v -1.93605 q -0.11853,0.16793 -0.34572,0.28646 -0.22719,0.10865 -0.49389,0.22719 -0.2667,0.10865 -0.51365,0.2667 -0.23706,0.14816 -0.39511,0.39511 -0.15804,0.24694 -0.15804,0.64205 0,0.39512 0.20743,0.63218 0.21731,0.23707 0.58279,0.23707 z"
         id="path27083" />
      <path
         d="m 209.62782,153.00645 q 0.39511,0 0.67169,0.12841 0.27657,0.12841 0.40498,0.23707 0.32597,0.2667 0.39512,-0.3556 h 0.22718 q -0.0197,0.27658 -0.0296,0.66181 -0.01,0.37536 -0.01,1.01741 h -0.22719 q -0.0593,-0.36548 -0.20743,-0.7112 -0.13829,-0.34572 -0.41487,-0.56303 -0.27657,-0.22719 -0.72107,-0.22719 -0.34573,0 -0.58279,0.19755 -0.22719,0.18768 -0.22719,0.56304 0,0.29633 0.1778,0.51364 0.1778,0.20744 0.46425,0.39511 0.28646,0.1778 0.6223,0.39511 0.37536,0.23707 0.68157,0.48402 0.30621,0.24694 0.48401,0.54327 0.18768,0.29634 0.18768,0.70133 0,0.45437 -0.23707,0.76059 -0.23706,0.30621 -0.6223,0.46425 -0.37535,0.15805 -0.82973,0.15805 -0.21731,0 -0.41487,-0.0395 -0.18767,-0.0296 -0.36547,-0.0988 -0.0988,-0.0494 -0.20744,-0.11854 -0.0988,-0.0691 -0.19755,-0.14816 -0.0988,-0.079 -0.1778,0.01 -0.079,0.079 -0.11854,0.32597 h -0.22719 q 0.0198,-0.31609 0.0296,-0.77047 0.01,-0.45437 0.01,-1.20509 h 0.22718 q 0.0692,0.55316 0.19756,0.96803 0.12841,0.41486 0.40499,0.65193 0.27658,0.22719 0.77047,0.22719 0.19755,0 0.39511,-0.0889 0.20743,-0.0889 0.34572,-0.29633 0.13829,-0.20744 0.13829,-0.55316 0,-0.43462 -0.31609,-0.7112 -0.31609,-0.27658 -0.8001,-0.58279 -0.3556,-0.22719 -0.67169,-0.45438 -0.30621,-0.22719 -0.50377,-0.51364 -0.18767,-0.28646 -0.18767,-0.69145 0,-0.4445 0.19755,-0.72107 0.20743,-0.28646 0.54328,-0.41487 0.33584,-0.13829 0.72108,-0.13829 z"
         id="path27085" />
      <path
         d="m 213.86538,151.50503 v 1.64959 h 1.46191 v 0.19755 h -1.46191 v 3.8227 q 0,0.46426 0.16792,0.65194 0.16792,0.18768 0.46425,0.18768 0.29634,0 0.51365,-0.23707 0.21731,-0.24695 0.37535,-0.81986 l 0.19756,0.0494 q -0.0988,0.57291 -0.39511,0.96802 -0.28646,0.39512 -0.889,0.39512 -0.33585,0 -0.55316,-0.0889 -0.21731,-0.079 -0.38523,-0.23707 -0.21731,-0.22719 -0.30621,-0.54328 -0.079,-0.31609 -0.079,-0.83961 v -3.30906 h -0.94827 v -0.19755 h 0.94827 v -1.5113 q 0.24694,-0.01 0.47413,-0.0395 0.22719,-0.0296 0.41487,-0.0988 z"
         id="path27087" />
      <path
         d="m 218.17207,153.00645 q 0.86925,0 1.35326,0.5334 0.49389,0.52352 0.49389,1.63971 h -3.48686 l -0.01,-0.18768 h 2.54847 q 0.0198,-0.48401 -0.079,-0.889 -0.0988,-0.41486 -0.31609,-0.66181 -0.20743,-0.24694 -0.54328,-0.24694 -0.45438,0 -0.80998,0.45438 -0.34572,0.45437 -0.41486,1.44215 l 0.0296,0.0395 q -0.0198,0.14817 -0.0296,0.32597 -0.01,0.1778 -0.01,0.3556 0,0.67169 0.21731,1.1557 0.21731,0.48401 0.56303,0.74083 0.3556,0.24695 0.73096,0.24695 0.29633,0 0.56303,-0.0889 0.2667,-0.0988 0.49389,-0.31609 0.22719,-0.21731 0.39511,-0.58279 l 0.19756,0.079 q -0.10866,0.32597 -0.3556,0.63218 -0.24695,0.30621 -0.6223,0.50377 -0.37536,0.18768 -0.86925,0.18768 -0.7112,0 -1.22484,-0.32597 -0.50377,-0.32597 -0.78034,-0.89888 -0.2667,-0.58279 -0.2667,-1.3335 0,-0.86924 0.27657,-1.49154 0.27658,-0.63218 0.78035,-0.96803 0.50376,-0.34572 1.17545,-0.34572 z"
         id="path27089" />
      <path
         d="m 223.8419,153.00645 q 0.2667,0 0.46426,0.10866 0.20743,0.10865 0.31609,0.28645 0.11853,0.16792 0.11853,0.38524 0,0.24694 -0.15805,0.43462 -0.14816,0.18768 -0.40498,0.18768 -0.20744,0 -0.36548,-0.12842 -0.15805,-0.13828 -0.15805,-0.38523 0,-0.18768 0.0988,-0.31609 0.10866,-0.13829 0.23707,-0.21731 -0.0692,-0.0988 -0.20744,-0.0988 -0.30621,0 -0.56303,0.18768 -0.25682,0.1778 -0.43462,0.46426 -0.1778,0.28645 -0.27658,0.61242 -0.0988,0.31609 -0.0988,0.59267 v 2.09408 q 0,0.48402 0.27658,0.65194 0.28646,0.15804 0.77047,0.15804 v 0.20744 q -0.22719,-0.01 -0.64206,-0.0198 -0.41487,-0.0197 -0.87912,-0.0197 -0.33585,0 -0.67169,0.0197 -0.32597,0.01 -0.49389,0.0198 v -0.20744 q 0.40499,0 0.57291,-0.14816 0.1778,-0.14817 0.1778,-0.56304 v -3.09174 q 0,-0.4445 -0.15804,-0.65194 -0.15805,-0.21731 -0.59267,-0.21731 v -0.20743 q 0.31609,0.0296 0.61242,0.0296 0.28646,0 0.54328,-0.0296 0.2667,-0.0395 0.48401,-0.10866 v 1.23473 q 0.10866,-0.28646 0.30621,-0.57291 0.20744,-0.29634 0.49389,-0.49389 0.28646,-0.19756 0.63218,-0.19756 z"
         id="path27091" />
    </g>
  </g>
</svg>
