<svg xmlns="http://www.w3.org/2000/svg" xmlns:xlink="http://www.w3.org/1999/xlink" version="1.1" width="594.95999pt" height="841.92pt" viewBox="0 0 594.95999 841.92">
<defs>
<clipPath id="clip_2">
<path transform="matrix(.24,0,0,.24,0,0)" d="M116.66667 116.66669H2362.5003V3390.769H116.66667Z" fill-rule="evenodd"/>
</clipPath>
<path id="font_3_22" d="M.041992189 .19042969 .12988281 .20214844C.13997396 .15234375 .15714519 .11645508 .18139649 .09448242 .20564778 .072509769 .2351888 .061523439 .27001954 .061523439 .3113607 .061523439 .3462728 .07582092 .37475587 .10441589 .40323893 .13301087 .41748048 .1684316 .41748048 .2106781 .41748048 .25098167 .40429688 .2842102 .3779297 .31036378 .3515625 .3365275 .31803385 .34960938 .27734376 .34960938 .2607422 .34960938 .24007161 .34635417 .21533203 .33984376L.22509766 .4169922C.23095703 .41634117 .23567708 .41601563 .23925781 .41601563 .27669273 .41601563 .31038413 .42569987 .34033204 .44506837 .37027995 .46443687 .3852539 .4942932 .3852539 .53463748 .3852539 .56658938 .37434898 .59305319 .35253907 .61402896 .33072917 .63501486 .30257163 .6455078 .2680664 .6455078 .23388672 .6455078 .20540364 .6347656 .18261719 .61328127 .15983074 .5917969 .1451823 .5595703 .13867188 .51660159L.05078125 .53222659C.061523439 .591451 .0859375 .63734439 .12402344 .6699066 .16210938 .7024689 .20947266 .71875 .26611329 .71875 .30517579 .71875 .34114585 .71039327 .37402345 .6936798 .40690104 .67696639 .43204753 .6541646 .4494629 .62527468 .46687828 .59639486 .47558595 .5657247 .47558595 .53326418 .47558595 .5024312 .46728517 .47435508 .4506836 .44903565 .43408204 .4237264 .40950523 .40360514 .37695313 .38867188 .41927085 .37890626 .45214845 .35864259 .47558595 .32788087 .49902345 .29711915 .5107422 .2586263 .5107422 .21240235 .5107422 .14990235 .48795573 .09692383 .4423828 .053466798 .3968099 .010009766 .33919273-.01171875 .26953126-.01171875 .20670574-.01171875 .15454102 .007044474 .11303711 .044570924 .0715332 .082097377 .047851564 .13071697 .041992189 .19042969Z"/>
<path id="font_3_17" d="M.09082031 0V.10058594H.19091797V0H.09082031Z"/>
<path id="font_3_24" d="M.041503908 .18847656 .13378906 .19628906C.140625 .15151978 .15649414 .117863979 .18139649 .095321658 .20629883 .07278951 .23632813 .061523439 .27148438 .061523439 .3138021 .061523439 .34960938 .077448528 .37890626 .109298709 .40820313 .14115906 .42285157 .18341573 .42285157 .23606873 .42285157 .28612773 .4087728 .32562257 .38061524 .35455323 .35245768 .3834839 .31559245 .39794923 .27001954 .39794923 .24169922 .39794923 .21614583 .39156596 .19335938 .37879945 .17057292 .36603294 .15266927 .34946696 .13964844 .32910157L.057128908 .33984376 .12646485 .70703127H.48242188V.62402346H.19677735L.15820313 .43115235C.20117188 .46077476 .24625652 .47558595 .29345704 .47558595 .35595704 .47558595 .4086914 .45391337 .45166017 .41056825 .4946289 .36723329 .5161133 .31151835 .5161133 .24342346 .5161133 .17857361 .49723307 .122528079 .45947267 .075286868 .41357423 .017283122 .35091148-.01171875 .27148438-.01171875 .2063802-.01171875 .15323894 .006556193 .11206055 .04310608 .070882167 .07965597 .04736328 .1281128 .041503908 .18847656Z"/>
<path id="font_3_3" d="M0 0Z"/>
<path id="font_3_95" d="M.091796878-.2109375V.72753909H.16845703V-.2109375H.091796878Z"/>
<path id="font_3_52" d="M.6196289 .0770874C.6635742 .046844484 .70410159 .02472941 .74121096 .0107421879L.7133789-.055664064C.6619466-.037017824 .61067709-.0075785319 .5595703 .03265381 .50651046 .0030721029 .44791667-.01171875 .38378907-.01171875 .3190104-.01171875 .2602539 .0038960775 .20751953 .035125734 .15478516 .066355388 .11417643 .11027018 .08569336 .16687012 .057210287 .22348023 .04296875 .2872416 .04296875 .3581543 .04296875 .42874146 .057291669 .49298606 .0859375 .55088809 .114583339 .60880026 .15535482 .6528829 .20825196 .683136 .26114909 .7133891 .3203125 .7285156 .3857422 .7285156 .4518229 .7285156 .51139327 .7128194 .5644531 .681427 .617513 .6500346 .657959 .6061147 .685791 .54966738 .71362307 .4932302 .72753909 .42955528 .72753909 .35864259 .72753909 .299764 .7185872 .24682109 .7006836 .19981385 .68277999 .1528066 .6557617 .11189779 .6196289 .0770874M.4111328 .19824219C.4658203 .18284099 .51090499 .15990193 .5463867 .12942505 .6020508 .18029785 .6298828 .2567698 .6298828 .35884095 .6298828 .41689555 .6200358 .4676056 .6003418 .51097109 .58064779 .55434677 .5518392 .58801779 .513916 .61198428 .47599284 .6359609 .433431 .6479492 .38623048 .6479492 .31559245 .6479492 .2569987 .6237386 .21044922 .5753174 .16389974 .5268962 .140625 .45458985 .140625 .35839845 .140625 .26514689 .1636556 .193573 .2097168 .14367676 .25577799 .09379069 .31461589 .068847659 .38623048 .068847659 .42008464 .068847659 .4519857 .07520548 .4819336 .08792114 .4523112 .1071167 .4210612 .120778407 .3881836 .12890625L.4111328 .19824219Z"/>
<path id="font_3_88" d="M.40576173 0V.076171878C.36539714 .017578125 .31054688-.01171875 .24121094-.01171875 .21061199-.01171875 .18204753-.005859375 .15551758 .005859375 .12898763 .017578125 .10929362 .03230794 .09643555 .050048829 .08357748 .06778971 .07454427 .08951823 .06933594 .115234378 .06575521 .13248699 .063964847 .15983074 .063964847 .19726563V.5185547H.15185547V.23095703C.15185547 .1850586 .15364583 .15413411 .15722656 .1381836 .16276042 .11507162 .17447917 .09692383 .19238281 .083740238 .21028646 .07055664 .23242188 .063964847 .25878907 .063964847 .28515626 .063964847 .30989585 .0707194 .3330078 .084228519 .35611979 .09773763 .3724772 .116129558 .38208009 .1394043 .39168296 .16267903 .39648438 .19645183 .39648438 .24072266V.5185547H.484375V0H.40576173Z"/>
<path id="font_3_68" d="M.40429688 .06402588C.37174479 .03633626 .34041343 .016789755 .31030274 .0053863527 .28019206-.0060170495 .24788411-.01171875 .2133789-.01171875 .15641277-.01171875 .11263021 .0022074383 .08203125 .030059815 .051432294 .05791219 .036132814 .09350077 .036132814 .13682556 .036132814 .16222637 .04191081 .18542989 .053466798 .20643616 .06502279 .22745259 .08015951 .24431356 .09887695 .25701905 .1175944 .26972453 .13867188 .2793325 .16210938 .2858429 .17936199 .29041038 .20540364 .29480998 .24023438 .29904176 .3111979 .30744425 .363444 .3174642 .39697267 .32910157 .3972982 .34109498 .39746095 .3487142 .39746095 .35195924 .39746095 .38763429 .38916017 .4127655 .3725586 .4273529 .35009767 .44713847 .31673179 .45703126 .27246095 .45703126 .2311198 .45703126 .20060222 .44978843 .1809082 .43530274 .16121419 .42081706 .14664714 .39518229 .13720703 .35839845L.05126953 .3701172C.05908203 .40701295 .0719401 .43680827 .08984375 .45950318 .1077474 .4821981 .1336263 .4996643 .16748047 .51190188 .20133464 .5241496 .24055989 .53027346 .28515626 .53027346 .3294271 .53027346 .36539714 .5250651 .3930664 .51464846 .4207357 .50423178 .44108073 .49112956 .45410157 .4753418 .4671224 .45955406 .47623698 .43961589 .4814453 .41552735 .484375 .40055339 .48583985 .37353517 .48583985 .33447267V.21728516C.48583985 .13557942 .48771159 .08390299 .49145509 .06225586 .49519859 .040608724 .5026042 .019856772 .5136719 0H.421875C.4127604 .018249512 .40690104 .039591474 .40429688 .06402588M.39697267 .2607422C.36507163 .24760945 .31722007 .2364502 .25341798 .2272644 .21728516 .22203572 .19173177 .21615093 .17675781 .20960999 .16178386 .20307923 .15022786 .19351705 .14208985 .18092346 .13395183 .16834004 .12988281 .15436809 .12988281 .13900757 .12988281 .115478519 .13875325 .09586588 .15649414 .08016968 .17423503 .06448364 .20019531 .056640626 .234375 .056640626 .26822917 .056640626 .29833985 .064081829 .32470704 .07896423 .35107423 .09384664 .37044273 .11420695 .3828125 .14004517 .3922526 .16000366 .39697267 .18944295 .39697267 .22836304V.2607422Z"/>
<path id="font_3_71" d="M.40234376 0V.06542969C.36946617 .0139973959 .3211263-.01171875 .25732423-.01171875 .21598308-.01171875 .17797852-.00032552085 .14331055 .022460938 .10864258 .045247396 .08178711 .077067058 .06274414 .11791992 .043701173 .15877278 .034179689 .20572917 .034179689 .25878907 .034179689 .31054688 .04280599 .35750328 .060058595 .3996582 .077311199 .44181315 .1031901 .4741211 .13769531 .49658204 .17220052 .51904299 .21077474 .53027346 .25341798 .53027346 .28466798 .53027346 .3125 .52368167 .33691407 .51049807 .36132813 .49731446 .3811849 .48014323 .39648438 .45898438V.7158203H.48388673V0H.40234376M.12451172 .2590332C.12451172 .1928711 .13850911 .14341228 .1665039 .11065674 .1944987 .07790121 .22753906 .061523439 .265625 .061523439 .30403648 .061523439 .33666993 .077168788 .3635254 .10845947 .39038087 .13976033 .4038086 .18752034 .4038086 .2517395 .4038086 .32243858 .39013673 .3743286 .36279298 .40740968 .33544923 .44049073 .3017578 .45703126 .26171876 .45703126 .22265625 .45703126 .19002278 .4411367 .16381836 .40934754 .13761394 .37756858 .12451172 .32746379 .12451172 .2590332Z"/>
<path id="font_3_85" d="M.064941409 0V.5185547H.14404297V.4404297C.16422527 .4770101 .18286133 .50112918 .19995117 .51278689 .21704102 .5244446 .23583985 .53027346 .25634767 .53027346 .28597007 .53027346 .31608073 .520874 .3466797 .5020752L.31640626 .42089845C.29492188 .43359376 .2734375 .4399414 .25195313 .4399414 .23274739 .4399414 .2154948 .43415324 .20019531 .4225769 .18489583 .41101075 .17399089 .3949636 .16748047 .37443543 .15771485 .3431549 .15283203 .3089396 .15283203 .27178956V0H.064941409Z"/>
<path id="font_3_87" d="M.2578125 .07763672 .2705078 0C.24576824-.0045572917 .22363281-.0068359377 .20410156-.0068359377 .17220052-.0068359377 .14746094-.0017903646 .12988281 .008300781 .11230469 .018391928 .0999349 .031656904 .09277344 .048095704 .08561198 .06453451 .08203125 .099121097 .08203125 .15185547V.4501953H.017578125V.5185547H.08203125V.6473236L.1694336 .7001953V.5185547H.2578125V.4501953H.1694336V.14697266C.1694336 .121907558 .17097982 .10579427 .17407227 .09863281 .17716472 .09147135 .18221028 .08577474 .18920899 .08154297 .19620769 .077311199 .20621746 .07519531 .21923828 .07519531 .2290039 .07519531 .24186199 .07600912 .2578125 .07763672Z"/>
<path id="font_3_76" d="M.06640625 .6142578V.7158203H.15429688V.6142578H.06640625M.06640625 0V.5185547H.15429688V0H.06640625Z"/>
<path id="font_3_70" d="M.40429688 .19042969 .49072267 .17919922C.48128257 .11947632 .45711265 .07272339 .4182129 .03894043 .37931315 .005167643 .33154298-.01171875 .27490235-.01171875 .2039388-.01171875 .14689128 .011474609 .103759769 .057861329 .060628255 .10424805 .0390625 .17073567 .0390625 .25732423 .0390625 .3133138 .048339845 .3623047 .06689453 .40429688 .08544922 .44628907 .11368815 .4777832 .15161133 .4987793 .1895345 .5197754 .23079427 .53027346 .27539063 .53027346 .33170573 .53027346 .37776695 .51598617 .41357423 .4874115 .4493815 .45884706 .47233073 .4182841 .48242188 .36572267L.39697267 .35253907C.38883464 .38720704 .37443034 .4132894 .35375978 .43078614 .3330892 .44828288 .30810548 .45703126 .2788086 .45703126 .23453777 .45703126 .1985677 .4412384 .17089844 .4096527 .14322917 .37807719 .12939453 .32811485 .12939453 .25976563 .12939453 .19043987 .14274089 .1400655 .1694336 .10864258 .1961263 .07722982 .23095703 .061523439 .27392579 .061523439 .308431 .061523439 .3372396 .07206217 .36035157 .09313965 .38346354 .114217128 .39811198 .14664714 .40429688 .19042969Z"/>
<path id="font_3_40" d="M.07910156 0V.7158203H.5966797V.63134768H.17382813V.41210938H.5698242V.32910157H.17382813V.084472659H.61328127V0H.07910156Z"/>
<path id="font_3_84" d="M.39648438-.19921875V.05607605C.3828125 .03661601 .36368815 .020451865 .33911134 .007583618 .31453453-.0052846276 .28841148-.01171875 .2607422-.01171875 .19921875-.01171875 .14624024 .012858073 .10180664 .06201172 .057373048 .11116537 .03515625 .17854817 .03515625 .26416017 .03515625 .3162435 .044189454 .36295573 .06225586 .40429688 .080322269 .44563804 .106526698 .4769694 .14086914 .49829103 .1752116 .5196126 .21289063 .53027346 .25390626 .53027346 .31803385 .53027346 .3684896 .50358077 .40527345 .4501953V.5185547H.484375V-.19921875H.39648438M.12548828 .26171876C.12548828 .19498699 .13948567 .14493816 .16748047 .111572269 .19547527 .07820638 .2290039 .061523439 .2680664 .061523439 .3055013 .061523439 .33772788 .07739258 .3647461 .10913086 .3917643 .14086914 .40527345 .18912761 .40527345 .25390626 .40527345 .32291667 .3910319 .37483726 .36254884 .40966798 .33406578 .4444987 .3006185 .46191407 .26220704 .46191407 .2241211 .46191407 .19181316 .4457194 .1652832 .41333009 .13875325 .38094078 .12548828 .33040367 .12548828 .26171876Z"/>
<path id="font_3_82" d="M.033203126 .25927735C.033203126 .355306 .059895833 .42643229 .11328125 .47265626 .15787761 .5110677 .21223958 .53027346 .2763672 .53027346 .34765626 .53027346 .40592448 .5069173 .45117188 .46020509 .49641929 .41349284 .51904299 .34895835 .51904299 .26660157 .51904299 .1998698 .5090332 .14737956 .48901368 .10913086 .46899415 .070882167 .43986003 .041178388 .40161134 .020019532 .36336265-.0011393229 .3216146-.01171875 .2763672-.01171875 .20377605-.01171875 .1451009 .011555989 .1003418 .05810547 .055582685 .104654949 .033203126 .17171224 .033203126 .25927735M.123535159 .25952149C.123535159 .19335938 .13802083 .14381917 .16699219 .11090088 .19596355 .07798258 .23242188 .061523439 .2763672 .061523439 .31998698 .061523439 .35628257 .078063968 .3852539 .11114502 .41422526 .14422608 .42871095 .19465637 .42871095 .2624359 .42871095 .32632957 .4141439 .3747355 .38500978 .4076538 .35587565 .4405721 .31966148 .45703126 .2763672 .45703126 .23242188 .45703126 .19596355 .44065348 .16699219 .40789796 .13802083 .37514244 .123535159 .3256836 .123535159 .25952149Z"/>
<path id="font_3_81" d="M.06591797 0V.5185547H.14501953V.4453125C.18310547 .5019531 .23811849 .53027346 .3100586 .53027346 .3413086 .53027346 .3700358 .5246582 .39624024 .51342776 .42244468 .50219729 .44205729 .48746745 .45507813 .46923829 .46809898 .45100913 .47721354 .42936198 .48242188 .40429688 .4856771 .38802085 .4873047 .35953776 .4873047 .31884767V0H.39941407V.31576539C.39941407 .35161338 .3959961 .37841798 .38916017 .3961792 .38232423 .41394044 .37019859 .42811585 .3527832 .43870545 .33536784 .44929505 .3149414 .45458985 .2915039 .45458985 .254069 .45458985 .22176107 .44269309 .19458008 .41889955 .1673991 .39511619 .1538086 .34998576 .1538086 .2835083V0H.06591797Z"/>
<path id="font_3_86" d="M.030761719 .15527344 .11767578 .16894531C.122558597 .13426717 .1361491 .107691448 .15844727 .08921814 .18074544 .070755008 .21191406 .061523439 .25195313 .061523439 .29231773 .061523439 .32226563 .06967672 .34179688 .08598328 .36132813 .10230001 .37109376 .12143453 .37109376 .14338684 .37109376 .16309102 .36246745 .17859395 .34521485 .18989563 .33317057 .1976471 .30322267 .20749919 .2553711 .2194519 .19091797 .23573812 .14624024 .24982707 .12133789 .26171876 .09643555 .27361045 .077555339 .29006449 .064697269 .31108094 .05183919 .33209739 .045410158 .35531108 .045410158 .38072206 .045410158 .40385438 .05069987 .4252777 .061279298 .44499208 .07185873 .46470643 .08626302 .4810791 .10449219 .4941101 .11816406 .5042114 .13680013 .5127614 .16040039 .51976016 .18400066 .526769 .20930989 .53027346 .23632813 .53027346 .27701823 .53027346 .31274415 .52437338 .34350587 .51257327 .37426759 .50078329 .39697267 .48480735 .4116211 .4646454 .42626954 .44449363 .4363607 .4175415 .44189454 .38378907L.35595704 .3720703C.35205079 .39876304 .34073893 .41959635 .32202149 .4345703 .30330406 .44954429 .27685548 .45703126 .24267578 .45703126 .2023112 .45703126 .17350261 .45038859 .15625 .43710328 .13899739 .42382813 .1303711 .40827943 .1303711 .39045716 .1303711 .37912498 .13395183 .3689219 .14111328 .35984803 .14827474 .35045878 .1595052 .34268699 .17480469 .3365326 .18359375 .33328758 .20947266 .32583619 .2524414 .31417848 .31461589 .29758708 .35799156 .28400675 .38256837 .2734375 .40714518 .26286827 .42643229 .24749756 .4404297 .22732544 .4544271 .2071635 .46142579 .18212383 .46142579 .15220642 .46142579 .12292989 .45288087 .09536234 .43579103 .069503787 .41870118 .043655397 .39404298 .02365621 .3618164 .009506226 .32958985-.0046437585 .2931315-.01171875 .2524414-.01171875 .1850586-.01171875 .13370769 .002319336 .09838867 .030395508 .063069667 .05847168 .040527345 .100097659 .030761719 .15527344Z"/>
<path id="font_3_11" d="M.23388672-.2109375C.18538411-.14973958 .14436849-.078125 .110839847 .00390625 .077311199 .0859375 .060546876 .17089844 .060546876 .25878907 .060546876 .33626304 .07307943 .41048179 .09814453 .4814453 .1274414 .56380209 .1726888 .6458333 .23388672 .72753909H.296875C.25748698 .65983077 .23144531 .6114909 .21875 .58251956 .19889324 .53759768 .18326824 .49072267 .171875 .44189454 .15787761 .38102214 .1508789 .31982423 .1508789 .25830079 .1508789 .10172526 .19954427-.0546875 .296875-.2109375H.23388672Z"/>
<path id="font_3_41" d="M.08203125 0V.7158203H.5649414V.63134768H.17675781V.41015626H.5126953V.3256836H.17675781V0H.08203125Z"/>
<path id="font_3_79" d="M.063964847 0V.7158203H.15185547V0H.063964847Z"/>
<path id="font_3_12" d="M.123535159-.2109375H.060546876C.15787761-.0546875 .20654297 .10172526 .20654297 .25830079 .20654297 .3194987 .19954427 .38020835 .18554688 .4404297 .17447917 .4892578 .15901692 .5361328 .13916016 .5810547 .12646485 .61035159 .100260417 .6591797 .060546876 .72753909H.123535159C.18473308 .6458333 .22998047 .56380209 .25927735 .4814453 .28434245 .41048179 .296875 .33626304 .296875 .25878907 .296875 .17089844 .2800293 .0859375 .24633789 .00390625 .21264649-.078125 .17171224-.14973958 .123535159-.2109375Z"/>
<path id="font_3_20" d="M.3725586 0H.28466798V.5600586C.26350913 .5398763 .23575847 .51969406 .20141602 .49951173 .16707357 .47932945 .13623047 .46419273 .10888672 .45410157V.5390625C.15804036 .5621745 .20100911 .59016928 .23779297 .6230469 .2745768 .6559245 .3006185 .6878255 .31591798 .71875H.3725586V0Z"/>
<path id="font_3_21" d="M.50341799 .084472659V0H.030273438C.029622397 .021148682 .033040365 .041483564 .040527345 .06100464 .052571615 .09321085 .07185873 .124928798 .09838867 .15615845 .12491862 .1873881 .1632487 .22350057 .2133789 .26449586 .29117839 .3282369 .34375 .37872825 .37109376 .41596986 .3984375 .45321147 .41210938 .48841859 .41210938 .5215912 .41210938 .5563914 .3996582 .5857442 .37475587 .60964968 .34985353 .6335551 .3173828 .6455078 .27734376 .6455078 .23502605 .6455078 .20117188 .6328125 .17578125 .6074219 .15039063 .58203127 .13753255 .546875 .13720703 .5019531L.046875 .5112457C.053059896 .5787811 .07633463 .630249 .11669922 .6656494 .1570638 .7010498 .21126302 .71875 .27929688 .71875 .34798179 .71875 .40234376 .69970199 .4423828 .66160586 .48242188 .6235097 .5024414 .57629397 .5024414 .5199585 .5024414 .4913025 .49658204 .46313478 .48486329 .43545533 .47314454 .40777589 .45369468 .3786316 .42651368 .34802247 .39933268 .3174235 .35416667 .27542115 .29101563 .22201538 .23828125 .17779541 .20442708 .14779663 .18945313 .13201905 .17447917 .116251628 .16210938 .10040283 .15234375 .084472659H.50341799Z"/>
<path id="font_3_23" d="M.3232422 0V.17138672H.0126953129V.25195313L.33935548 .7158203H.4111328V.25195313H.5078125V.17138672H.4111328V0H.3232422M.3232422 .25195313V.57470706L.099121097 .25195313H.3232422Z"/>
<path id="font_3_25" d="M.4975586 .5400543 .41015626 .5332031C.40234376 .5675557 .39127604 .59251406 .37695313 .608078 .3531901 .6330312 .32389323 .6455078 .2890625 .6455078 .26106773 .6455078 .23649089 .637736 .21533203 .6221924 .18766277 .602122 .16585286 .57282 .14990235 .5342865 .13395183 .49575297 .12565105 .4408671 .125 .3696289 .14615886 .40185548 .17203777 .42578126 .20263672 .44140626 .23323567 .45703126 .26529948 .46484376 .29882813 .46484376 .35742188 .46484376 .40730796 .44327799 .44848634 .40014649 .4896647 .35701499 .5102539 .30126954 .5102539 .23291016 .5102539 .18798828 .50056967 .14624024 .48120118 .107666019 .46183268 .0690918 .43522135 .03955078 .4013672 .019042969 .36751304-.0014648438 .32910157-.01171875 .2861328-.01171875 .21289063-.01171875 .15315755 .015197754 .106933597 .06903076 .060709638 .12287394 .037597658 .2116038 .037597658 .33522035 .037597658 .47347514 .06315104 .57399496 .11425781 .6367798 .15885417 .6914266 .21891277 .71875 .2944336 .71875 .3507487 .71875 .39689128 .70292159 .43286134 .67126467 .4688314 .6396077 .49039714 .595871 .4975586 .5400543M.13867188 .23287964C.13867188 .20269776 .1451009 .17381287 .15795899 .14622498 .17081706 .118637088 .18880208 .09762064 .21191406 .08317566 .23502605 .068740848 .25927735 .061523439 .28466798 .061523439 .32177735 .061523439 .35367839 .07645162 .3803711 .10630798 .4070638 .13616435 .42041017 .17673238 .42041017 .22801209 .42041017 .27734886 .40722657 .31621299 .38085938 .3446045 .3544922 .3730062 .32128907 .38720704 .28125 .38720704 .24153646 .38720704 .20784505 .3730062 .18017578 .3446045 .15250652 .31621299 .13867188 .27897135 .13867188 .23287964Z"/>
<path id="font_4_3" d="M0 0Z"/>
<path id="font_4_32" d="M.055999757 .34700013C.055999757 .3556671 .060668947 .3623352 .070007327 .3670044H.70700076C.7170003 .3623352 .7220001 .3556671 .7220001 .34700013 .7220001 .33966575 .71733096 .33333335 .70799258 .32800294L.3899994 .32699586H.072006229C.061335248 .33033244 .055999757 .33700053 .055999757 .34700013M.055999757 .15299988C.055999757 .16299947 .061335248 .16966756 .072006229 .17300415H.70799258C.70866397 .17233277 .71016439 .17116292 .7124939 .16949463 .71483358 .1678365 .7165019 .1665039 .7174988 .16549683 .71849569 .16449993 .7194926 .16283162 .7204895 .16049195 .7214966 .15816243 .7220001 .15566509 .7220001 .15299988 .7220001 .14433289 .7170003 .1376648 .70700076 .1329956H.070007327C.060668947 .1376648 .055999757 .14433289 .055999757 .15299988Z"/>
<path id="font_4_23" d="M.46200563 0C.45266725 .0020039876 .40966288 .0030059815 .33299256 .0030059815 .25299583 .0030059815 .20833333 .0020039876 .19900513 0H.19000244V.04600525H.22099304C.24966939 .046666463 .26733909 .04832967 .27400209 .050994874 .2793325 .052327474 .2833303 .055664064 .28599549 .06100464 .28666688 .06233724 .28700257 .080337528 .28700257 .11500549V.16499329H.027999878V.21099854L.17900086 .44200135C.28100077 .5966644 .33266703 .67433169 .33399964 .67500308 .33533225 .67633566 .34233094 .67700198 .35499574 .67700198H.3730011L.3789978 .67100527V.21099854H.47099305V.16499329H.3789978V.11399841C.3789978 .08666483 .37916566 .07066345 .37950135 .06599426 .37983705 .061335248 .3816681 .057337446 .3849945 .054000856 .39033509 .049331666 .40933738 .046666463 .44200135 .04600525H.47099305V0H.46200563M.29299928 .21099854V.54499819L.07400513 .21200562 .18299866 .21099854H.29299928Z"/>
<path id="font_5_63" d="M.057998659 .27799989C.054000856 .28199769 .052001954 .2856649 .052001954 .28900147 .054667158 .30699668 .06499735 .32999674 .08299255 .3580017 .11433411 .40533448 .15367127 .43266807 .20100403 .44000245 .21033223 .44133506 .21733094 .44200135 .22200012 .44200135 .24533589 .44200135 .26683555 .43599955 .28649903 .42399598 .3061625 .41200257 .32032777 .39700318 .32899476 .3789978 .33766175 .39033 .34299723 .3973287 .34500123 .3999939 .3696696 .42799888 .3980001 .44200135 .42999269 .44200135 .45732627 .44200135 .4794922 .4341685 .49649049 .4185028 .51349899 .40283714 .5220032 .383667 .5220032 .36099244 .5220032 .34033204 .51616927 .32299806 .50450137 .30899049 .49283348 .29499308 .47733055 .28799439 .45799256 .28799439 .44532777 .28799439 .43499247 .2916616 .4269867 .29899598 .4189911 .30633036 .4149933 .31599937 .4149933 .32800294 .4149933 .35866294 .43166099 .3796641 .46499635 .39100648 .46499635 .3916677 .46132914 .3939972 .45399476 .397995 .44733177 .40200297 .43766786 .40400697 .42500306 .40400697 .41633607 .40400697 .41000367 .40333558 .40600587 .4019928 .3806661 .391332 .3619995 .3693339 .3500061 .33599855 .3480021 .33066813 .33833314 .2935028 .32099916 .22450257 .30366517 .15550232 .29433189 .1166687 .29299928 .10800171 .29099528 .09800211 .2899933 .088002528 .2899933 .07800293 .2899933 .062001546 .29465739 .049331666 .3039856 .039993287 .31332398 .03066508 .32566325 .026000977 .34100343 .026000977 .3689982 .026000977 .3943278 .037831624 .4169922 .06149292 .43966676 .08516439 .45500184 .111333217 .46299745 .13999939 .46500144 .1466624 .46700035 .15049236 .46899415 .15148926 .47099815 .15249634 .47633363 .15299988 .4850006 .15299988 .4976654 .15299988 .5039978 .15033467 .5039978 .14500427 .5039978 .14433289 .5033315 .1406657 .5019989 .13400269 .49066673 .092671718 .46733604 .056671144 .43200685 .026000977 .40066529 .001332601 .36766053-.011001587 .33299256-.011001587 .28633119-.011001587 .25100199 .009999593 .227005 .052001954 .20766704 .022003174 .18299866 .0020039876 .15299988-.0079956059 .14699809-.009328206 .1383311-.009994507 .1269989-.009994507 .08833313-.009994507 .060999555 .003672282 .04499817 .03100586 .038335165 .042338056 .035003663 .055669149 .035003663 .070999149 .035003663 .09099833 .041000368 .10799662 .052993776 .12199402 .06499735 .13600159 .080332439 .14300537 .09899902 .14300537 .1276652 .14300537 .14199829 .12900289 .14199829 .100997928 .14199829 .07632955 .1303304 .058329267 .10699463 .04699707 .105662029 .046335859 .103993739 .04550171 .101989749 .04449463 .09999593 .043497724 .098332729 .042663576 .09700012 .041992189 .09566752 .041330976 .09466553 .041000368 .09399414 .041000368L.09100342 .039993287C.09100342 .03799947 .09600321 .035003663 .10600281 .03100586 .11399841 .027669272 .122665408 .026000977 .13200379 .026000977 .15600078 .026000977 .17666626 .041000368 .19400025 .070999149 .20133464 .083002727 .21433513 .12633769 .23300171 .20100403 .23699951 .21633403 .24133301 .23333232 .2460022 .2519989 .2506714 .2706655 .25417076 .28499858 .25650025 .29499818 .25882975 .30499778 .2603302 .31099955 .2610016 .31300355 .26433818 .33099876 .26600648 .34399925 .26600648 .352005 .26600648 .36800639 .26167298 .38067118 .25300599 .3899994 .24433899 .39933778 .2323354 .40400697 .21699524 .40400697 .18699646 .40400697 .16099549 .39250694 .13899231 .36950685 .116999309 .34650675 .10166931 .32000224 .09300232 .2899933 .091669719 .28400169 .09016927 .28050233 .08850098 .27949525 .08683268 .27849833 .081334438 .27799989 .072006229 .27799989H.057998659Z"/>
<path id="font_4_193" d="M.0980072 .22999573C.08866882 .23466492 .083999637 .24133301 .083999637 .25 .083999637 .258667 .08866882 .26533509 .0980072 .27000428H.67900088C.6890004 .2646637 .69400027 .2579956 .69400027 .25 .69400027 .2420044 .6890004 .2353363 .67900088 .22999573H.0980072Z"/>
<path id="font_4_26" d="M.054992677 .45799256C.055664064 .45933534 .061335248 .4956716 .072006229 .56700137L.08799744 .673996C.08799744 .67532858 .09466553 .6759949 .10800171 .6759949H.12800598V.6719971C.12800598 .66533407 .13300579 .65966799 .14300537 .6549988 .15300496 .6503296 .17050171 .6473287 .1954956 .6459961 .22049968 .6446635 .27666728 .6439972 .3639984 .6439972H.4850006V.6049957L.41700746 .5119934C.40699769 .497996 .3956604 .48249818 .3829956 .46549989 .3703308 .4485016 .36066184 .43533326 .35398866 .42599488 .34732566 .41666667 .34332786 .41100059 .34199525 .40899659 .30732728 .35500083 .28666178 .28266908 .27999879 .19200135 .2773336 .16466777 .27566529 .1273346 .2749939 .08000183 .2749939 .07066345 .27482606 .06116231 .27449037 .051498414 .27416484 .041834516 .27400209 .034001668 .27400209 .027999878V.018997193C.27133689 .0076649987 .26483665-.0019989014 .25450135-.009994507 .24416606-.018000285 .23299663-.022003174 .22099304-.022003174 .20500183-.022003174 .19216919-.016499838 .18249512-.005493164 .17283122 .0055033366 .16799927 .020665488 .16799927 .039993287 .16799927 .049992879 .16933187 .068995159 .17199707 .09700012 .18199666 .18699646 .21299744 .2773285 .2649994 .36799623 .27833558 .389328 .30633546 .42966209 .34899903 .4889984L.39500428 .55200198H.30200196C.18600464 .55200198 .12500508 .55000308 .119003299 .54600527 .1163381 .54467269 .1126709 .53733828 .10800171 .5240021 .104003909 .5106659 .1006724 .4950002 .0980072 .477005 .09666443 .46567283 .09566244 .45933534 .09500122 .45799256V.45500184H.054992677V.45799256Z"/>
<path id="font_4_20" d="M.41600038 0C.40466819 .0020039876 .3516693 .0030059815 .25700379 .0030059815 .16367086 .0030059815 .111338298 .0020039876 .1000061 0H.08799744V.04600525H.11399841C.15266419 .04600525 .17766316 .047002157 .18899536 .04899597 .19433594 .04966736 .20233663 .053670248 .21299744 .06100464V.5780029C.21166484 .5780029 .20899964 .5770009 .20500183 .57499697 .17433167 .56300356 .13999939 .55667117 .102005008 .55599978H.08299255V.602005H.102005008C.15800476 .60399886 .20467122 .61666366 .2420044 .6399994 .2539978 .6466624 .264328 .6543274 .272995 .6629944 .2743276 .66499838 .2783254 .66600039 .2849884 .66600039 .2916616 .66600039 .29733277 .66400149 .30200196 .66000369V.36099244L.30299378 .06100464C.31299339 .051005048 .33466087 .04600525 .36799623 .04600525H.40100099 .42700196V0H.41600038Z"/>
<path id="font_4_22" d="M.1269989 .46299745C.1090037 .46299745 .09483846 .46866355 .084503177 .47999574 .074167888 .4913279 .069000247 .5059967 .069000247 .5240021 .069000247 .56199648 .083999637 .5938263 .11399841 .6194916 .14399719 .64516708 .17866516 .6603343 .21800232 .6649933H.23300171C.27500407 .6649933 .31200157 .657664 .34399415 .6430054 .3880005 .6210022 .41566978 .5896657 .42700196 .548996 .42899577 .54233297 .42999269 .5333354 .42999269 .5220032 .42999269 .48266603 .41782633 .4474945 .39349366 .41648866 .36916099 .38549296 .33866374 .36333213 .30200196 .3500061 .29866538 .3486735 .29866538 .3476715 .30200196 .34700013 .30333457 .34632875 .30666606 .34532676 .31199647 .34399415 .35266624 .33266197 .3869985 .31149293 .4149933 .28048707 .44299827 .24949138 .45700074 .21433003 .45700074 .17500305 .45700074 .14033509 .4481659 .10866801 .43049623 .08000183 .4128367 .05133565 .39034019 .029001872 .3630066 .013000488 .32567344-.010335286 .28400675-.022003174 .23800659-.022003174 .19400025-.022003174 .15499878-.012669881 .1210022 .005996704 .087005618 .02466329 .06400553 .049662275 .052001954 .08099365 .045338949 .09500122 .042007448 .111338298 .042007448 .13000489 .042007448 .14867147 .048171998 .16383362 .0605011 .17549134 .0728302 .18715923 .08766174 .19299317 .10499573 .19299317 .123662319 .19299317 .13899739 .18699138 .15100098 .1749878 .16300456 .16299439 .16900635 .14800008 .16900635 .13000489 .16900635 .11466471 .16467285 .10132853 .15600586 .08999634 .14733887 .07866415 .13567098 .07132975 .1210022 .067993167L.11399841 .06599426C.14999898 .035995485 .19133504 .020996094 .23800659 .020996094 .27466838 .020996094 .30233256 .03866577 .32099916 .07400513 .33233134 .09599813 .33799745 .12966411 .33799745 .17500305V.19500733C.33799745 .2583313 .31666566 .30066429 .27400209 .32200624 .26400248 .32600404 .2436676 .32833354 .21299744 .32899476L.17100525 .33000184 .16799927 .33200074C.16666667 .33400474 .16600037 .3393402 .16600037 .3480072 .16600037 .3560028 .16699727 .36099754 .16899109 .36299134 .17099507 .36499534 .17266338 .3659973 .17399597 .3659973 .19266255 .3659973 .21199544 .36766563 .23199463 .3710022 .26133219 .375 .28366599 .39149986 .29899598 .4205017 .31433616 .44950358 .32200624 .48433433 .32200624 .5249939 .32200624 .56832888 .31033836 .59733077 .28700257 .6119995 .27300517 .6213379 .25733949 .6260071 .2400055 .6260071 .20667012 .6260071 .17733257 .6170044 .1519928 .598999 .14932759 .59766647 .1463267 .5954997 .14299011 .5924988 .1396637 .58949789 .13699849 .58666488 .1349945 .58399966L.13200379 .58000186C.1339976 .57933047 .1363322 .5786641 .13900757 .5780029 .15233357 .57667037 .16349793 .57033798 .17250061 .55900576 .1815033 .5476735 .18600464 .53467306 .18600464 .5200043 .18600464 .50400289 .1805013 .49049888 .16949463 .4794922 .15849813 .4684957 .14433289 .46299745 .1269989 .46299745Z"/>
<path id="font_4_19" d="M.09599304 .5850067C.13332622 .6390025 .18432617 .66600039 .24899292 .66600039 .29766847 .66600039 .34033714 .6493327 .3769989 .6159973 .39500428 .59866335 .41033937 .57599899 .42300416 .54800418 .44767253 .49266563 .4600067 .41666667 .4600067 .32000733 .4600067 .21666463 .4456736 .13765972 .41700746 .08299255 .39834086 .044326784 .3710073 .016326905 .3350067-.0010070801 .30700175-.015004476 .27866618-.022003174 .25-.022003174 .17332967-.022003174 .11732992 .012995402 .08200073 .08299255 .053334554 .13765972 .039001466 .21666463 .039001466 .32000733 .039001466 .3819987 .043167116 .4331614 .051498414 .47349549 .059829713 .5138295 .074661258 .55099996 .09599304 .5850067M.32099916 .5970001C.30167137 .6183319 .27800498 .6289978 .25 .6289978 .22199504 .6289978 .19799297 .6183319 .17799378 .5970001 .16333516 .5816701 .15333557 .56300356 .147995 .54100039 .1426646 .5189972 .13933309 .4809977 .13800049 .42700196 .13800049 .42300416 .13783264 .41000367 .13749695 .3880005 .13716126 .3659973 .13699341 .34766136 .13699341 .33299256 .13699341 .2689972 .1376648 .22433472 .13900757 .19900513 .14167278 .15233357 .14567058 .11883036 .15100098 .09849548 .15633138 .07816061 .16633098 .06066386 .18099976 .04600525 .19899495 .026006064 .22199504 .01600647 .25 .01600647 .2773336 .01600647 .29999797 .026006064 .31799317 .04600525 .33266197 .06066386 .34266154 .07816061 .34799195 .09849548 .35333253 .11883036 .35733543 .15233357 .3600006 .19900513 .36133323 .22433472 .3619995 .2689972 .3619995 .33299256 .3619995 .34766136 .36183167 .3659973 .36149598 .3880005 .36116029 .41000367 .36099244 .42300416 .36099244 .42700196 .35965983 .4809977 .35632835 .5189972 .35099793 .54100039 .3456675 .56300356 .33566795 .5816701 .32099916 .5970001Z"/>
<path id="font_4_27" d="M.17199707 .3350067C.13933309 .3563385 .11416626 .3786672 .09649658 .4019928 .078837078 .42532859 .070007327 .45599876 .070007327 .4940033 .070007327 .5226695 .07533773 .54666647 .085998538 .56599429 .10066732 .59599307 .122166957 .6201579 .15049744 .63848879 .17882793 .65682986 .21132915 .66600039 .2480011 .66600039 .29332987 .66600039 .33266197 .6541646 .3659973 .63049319 .39933268 .60683187 .41999818 .57633468 .42799378 .53900149 .42866517 .53500369 .42900086 .527003 .42900086 .5149994 .42900086 .5003306 .42833457 .49033103 .42700196 .4850006 .41700236 .44100444 .38666789 .40300498 .33599855 .3710022 .33466593 .3703308 .3328298 .36932884 .3304901 .36799623 .3281606 .3666636 .32666526 .36533103 .32600404 .3639984L.32400514 .3630066C.3613383 .33766685 .38067118 .32433067 .38200379 .32299806 .43200175 .28299967 .45700074 .23333232 .45700074 .17399597 .45700074 .120000209 .4371643 .07383219 .39749146 .035491945 .35782878-.0028381348 .30832926-.022003174 .24899292-.022003174 .16700237-.022003174 .106669109 .0079956059 .067993167 .067993167 .051330568 .09200033 .042999269 .1210022 .042999269 .15499878 .042999269 .17032878 .04366557 .18066406 .04499817 .18600464 .05499776 .23666382 .08700053 .27999369 .14100647 .31599427 .14500427 .31866966 .15100098 .32233683 .15899658 .32699586 .16700237 .33166505 .17133586 .33433534 .17199707 .3350067M.3710022 .5130005C.3710022 .5416667 .3616689 .5659993 .34300233 .58599856 .32433573 .60599777 .30166627 .61866256 .2749939 .6239929 .27033488 .6246643 .25933839 .625 .2420044 .625 .20666504 .625 .17699687 .6130015 .15299988 .5890045 .13633728 .57366439 .12800598 .55532839 .12800598 .5339966 .12800598 .5053304 .14000447 .48266603 .16400147 .46600343 .16733806 .46266685 .18866985 .44866435 .22799683 .42399598L.28599549 .3860016C.28666688 .3866628 .29100038 .38949076 .29899598 .39448548 .30700175 .39949037 .31300355 .4039968 .31700135 .40800477 .35300193 .43667094 .3710022 .47166953 .3710022 .5130005M.10699463 .15699768C.10699463 .11767069 .12132772 .08516947 .1499939 .05949402 .17866008 .033828737 .21199544 .020996094 .25 .020996094 .2773336 .020996094 .3021647 .026662192 .3244934 .037994386 .34683229 .04932658 .36366783 .06399536 .375 .08200073 .38633219 .09933472 .3919983 .11766561 .3919983 .13699341 .3919983 .16565959 .3803304 .19099427 .35699464 .21299744 .35166423 .21832784 .32400004 .23733013 .27400209 .27000428 .2646637 .27600608 .25449626 .28250633 .24349976 .289505 .23250325 .2965037 .2240041 .30200196 .21800232 .30599977L.21000672 .31100465 .19799805 .30499269C.15599568 .27766929 .1283315 .24433899 .11500549 .20500183 .10966492 .18766785 .10699463 .17166646 .10699463 .15699768Z"/>
<path id="font_4_14" d="M.070007327 .22999573C.060668947 .23466492 .055999757 .24133301 .055999757 .25 .055999757 .258667 .060668947 .26533509 .070007327 .27000428H.3690033V.41999818L.36999513 .5700073C.3766683 .5786641 .38300578 .58299258 .38900758 .58299258 .3976644 .58299258 .4043274 .57799276 .40899659 .56799319V.27000428H.70700076C.7170003 .2646637 .7220001 .2579956 .7220001 .25 .7220001 .2420044 .7170003 .2353363 .70700076 .22999573H.40899659V-.067993167C.4043274-.07733154 .3976593-.08200073 .3889923-.08200073 .38033549-.08200073 .3736725-.07733154 .3690033-.067993167V.22999573H.070007327Z"/>
<path id="font_4_21" d="M.11000061 .42900086C.09133402 .42900086 .076665248 .43499757 .06599426 .44699098 .055333456 .45899455 .05000305 .47366334 .05000305 .4909973 .05000305 .53900149 .0681661 .5801697 .10449219 .61450198 .14082845 .6488342 .18433126 .66600039 .23500061 .66600039 .29233299 .66600039 .3398336 .65049746 .37750245 .6194916 .4151713 .5884959 .43833924 .5479991 .44700624 .4980011 .44833885 .48599754 .44900514 .47499595 .44900514 .46499635 .44900514 .42633058 .43733726 .3899994 .41400147 .3560028 .39533488 .32799784 .35766603 .2896627 .30099488 .24099732 .2769979 .22033692 .2436676 .18967183 .20100403 .14900208L.14199829 .09300232 .21800232 .09199524C.32266746 .09199524 .3783315 .093663539 .3849945 .09700012 .3876699 .09767151 .39100648 .104670207 .39500428 .117996219 .39766947 .12533061 .4023336 .14800008 .40899659 .18600464V.18899536H.44900514V.18600464L.42100526 .0030059815V0H.05000305V.018997193C.05000305 .032333375 .050669355 .04000346 .052001954 .042007448 .052663167 .043340047 .08066305 .07500204 .13600159 .13699341 .20866394 .21766155 .2553304 .2709961 .27600099 .29699708 .32066856 .35766603 .34300233 .41333518 .34300233 .46400453 .34300233 .5080007 .3315023 .5448303 .3085022 .5744934 .2855021 .6041667 .25333659 .6190033 .21200562 .6190033 .17333985 .6190033 .14200337 .6016693 .117996219 .56700137 .11666361 .5643361 .11466471 .56066897 .11199951 .55599978 .10999552 .55266317 .10899353 .5506592 .10899353 .5499878 .10899353 .5493266 .11066183 .548996 .11399841 .548996 .13067119 .548996 .14417012 .5429942 .15449524 .5309906 .16483052 .5189972 .16999817 .5049998 .16999817 .4889984 .16999817 .47233583 .16449483 .45817057 .15348816 .4465027 .14249166 .4348348 .1279958 .42900086 .11000061 .42900086Z"/>
<path id="font_4_24" d="M.10699463 .21400452C.12299601 .21400452 .13649495 .20850118 .14749146 .1974945 .15849813 .186498 .16400147 .17266846 .16400147 .15600586 .16400147 .1406657 .15833538 .12766011 .14700318 .116989139 .13567098 .10632833 .1230011 .100997928 .10899353 .100997928H.102005008L.10499573 .09599304C.11499532 .074661258 .1303304 .056996664 .15100098 .042999269 .17167156 .029001872 .19600423 .022003174 .22399903 .022003174 .2713318 .022003174 .30533348 .04200236 .32600404 .08200073 .33866883 .106669109 .34500123 .14933777 .34500123 .21000672 .34500123 .27867127 .33599855 .32500205 .31799317 .34899903 .30066935 .3710022 .27933757 .38200379 .2539978 .38200379 .20199585 .38200379 .16266378 .35933433 .13600159 .31399537 .13333638 .30933634 .13083394 .3065033 .12849427 .30549623 .12616475 .3044993 .1213328 .30400086 .11399841 .30400086 .10266622 .30400086 .096333827 .30599977 .09500122 .30999757 .09366862 .31266276 .09300232 .3709971 .09300232 .4850006 .09300232 .5049998 .09283447 .5286662 .09249878 .55599978 .092163089 .5833333 .09199524 .6006673 .09199524 .6080017 .09199524 .6453349 .09399923 .66400149 .0980072 .66400149 .099339809 .66533407 .1006724 .66600039 .102005008 .66600039L.11999512 .66000369C.16333008 .6426697 .20766704 .6340027 .25300599 .6340027 .30033876 .6340027 .3456726 .643336 .38900758 .66200259 .39433799 .6646678 .39866639 .66600039 .4019928 .66600039 .40733338 .66600039 .41000367 .6599986 .41000367 .647995V.6349945C.3559977 .57032778 .2876638 .5379944 .20500183 .5379944 .18433126 .5379944 .16566468 .53999838 .14900208 .54400637L.13900757 .54600527V.37399293C.17700196 .4046631 .21599834 .41999818 .2559967 .41999818 .2686615 .41999818 .28232829 .41832987 .29699708 .4149933 .34166465 .4036611 .37816368 .37832643 .40649415 .33898927 .4348348 .29966227 .44900514 .2536672 .44900514 .20100403 .44900514 .14033509 .4278361 .08799744 .38549806 .04399109 .34317018-.000005086263 .29100547-.022003174 .2290039-.022003174 .18700154-.022003174 .15133159-.010335286 .12199402 .013000488 .10932922 .020996094 .098332729 .03199768 .08900452 .04600525 .06300354 .07733663 .05000305 .1133372 .05000305 .15400696 .05000305 .17267354 .055333456 .18733724 .06599426 .19799805 .076665248 .20866902 .09033203 .21400452 .10699463 .21400452Z"/>
<path id="font_4_28" d="M.17300415 .09599304C.17300415 .08199564 .16949971 .07032776 .16249085 .06098938 .15549214 .051661176 .1463267 .046000165 .1349945 .044006349L.1309967 .042999269C.1309967 .042338056 .1333313 .040507 .13800049 .037506105 .14266968 .034505208 .14633687 .032669069 .14900208 .03199768 .16433208 .025334677 .18332927 .022003174 .20599365 .022003174 .21866863 .022003174 .22733562 .022669474 .23199463 .024002076 .2639974 .03199768 .29100038 .052663167 .31300355 .085998538 .33900453 .1233317 .352005 .18799846 .352005 .27999879V.28700257L.34700013 .27900697C.31966654 .23366802 .2813314 .21099854 .23199463 .21099854 .17866008 .21099854 .13332622 .23399861 .09599304 .27999879 .076665248 .30399577 .06283569 .32732646 .054504396 .34999085 .046173097 .3726654 .042007448 .40133668 .042007448 .43600465 .042007448 .4746704 .047170003 .5063324 .057495119 .5309906 .067830409 .555659 .08566284 .580663 .11099243 .6060028 .1456604 .6406708 .18699646 .6603343 .23500061 .6649933 .23766582 .66633608 .2450002 .66633608 .25700379 .6649933 .2710012 .6649933 .28066508 .66432699 .28599549 .6629944 .34000144 .651001 .38233439 .6166687 .41299439 .55999758 .44166056 .50200399 .45599366 .42667137 .45599366 .33399964 .45599366 .2406667 .43599449 .16166687 .3959961 .09700012 .3726603 .05966695 .34449259 .030497233 .31149293 .009490967 .27849327-.011505127 .24399312-.022003174 .20799256-.022003174 .16600037-.022003174 .13216655-.012171428 .10649109 .0074920656 .080825809 .027165732 .067993167 .055669149 .067993167 .09300232 .067993167 .1303355 .08566284 .14900208 .1210022 .14900208 .1363322 .14900208 .14882915 .14433289 .15849304 .1349945 .16816712 .1256663 .17300415 .11266581 .17300415 .09599304M.27400209 .6230011C.26733909 .6243337 .25800578 .625 .2460022 .625 .22066243 .625 .19899495 .6160024 .18099976 .5980072 .16700237 .58333846 .15783692 .5658366 .15350342 .5455017 .14916992 .5251668 .14700318 .49033103 .14700318 .44099427 .14700318 .3956655 .14866638 .35966493 .1519928 .33299256 .15532939 .30766297 .16516114 .2871653 .18148804 .27149964 .19782512 .25583396 .21866353 .2480011 .2440033 .2480011 .2633311 .2480011 .28016154 .2533315 .29449464 .2639923 .30882774 .2746633 .31999208 .28916423 .32798768 .30749513 .33599345 .32583619 .3418274 .34516908 .3454895 .36549378 .34916178 .38582865 .35099793 .40732829 .35099793 .42999269 .35099793 .48199464 .34833274 .5193329 .34300233 .54200747 .33966575 .56133529 .3314972 .5786641 .3184967 .59399417 .30549623 .6093343 .29066468 .6190033 .27400209 .6230011Z"/>
<path id="font_4_25" d="M.3730011 .6009979C.3583323 .6156667 .33766685 .6240031 .31100465 .6260071 .2643331 .6260071 .22533162 .6060028 .19400025 .56599429 .16266887 .5226695 .14700318 .45533753 .14700318 .3639984L.147995 .3600006 .15600586 .3730011C.18333943 .41299949 .22033692 .43299867 .2669983 .43299867 .29766847 .43299867 .32467143 .42666627 .3480072 .41400147 .3733368 .39933268 .3960012 .3773295 .41600038 .34799195 .43599955 .31866456 .44866435 .28700257 .45399476 .25300599 .45532737 .2450002 .45599366 .23066712 .45599366 .21000672V.19200135C.45599366 .17667134 .45433045 .16233826 .45100404 .14900208 .44299827 .10966492 .42233277 .07266235 .38900758 .037994386 .3603312 .0079956059 .32832847-.0106709799 .29299928-.018005372 .28232829-.020670573 .2689972-.022003174 .25300599-.022003174 .24033101-.022003174 .22899373-.02100118 .21899414-.018997193 .15766399-.007003784 .11283366 .029159546 .084503177 .0894928 .056172689 .14982605 .042007448 .22432964 .042007448 .31300355 .042007448 .38500468 .05467224 .44800315 .08000183 .5019989 .10533142 .5559947 .1406657 .597997 .18600464 .628006 .2220052 .6533356 .2610016 .66600039 .30299378 .66600039 .34165956 .66600039 .37282817 .6556651 .39649964 .6349945 .4201711 .6143341 .43200685 .5860036 .43200685 .55000308 .43200685 .53333029 .4271698 .5199941 .41749574 .5099945 .40783183 .4999949 .39499919 .49499513 .3789978 .49499513 .36299644 .49499513 .3501638 .4996592 .34049989 .5089874 .33083598 .5183258 .32600404 .53133139 .32600404 .54800418 .32600404 .5780029 .3416697 .59566757 .3730011 .6009979M.32899476 .36099244C.31032817 .3849996 .28633119 .39700318 .25700379 .39700318 .2323354 .39700318 .21233623 .3893331 .19700623 .37399293 .16433208 .34132896 .147995 .28866578 .147995 .21600342 .147995 .15666707 .15199788 .11566671 .16000366 .09300232 .16666667 .073003139 .17799886 .055999757 .19400025 .041992189 .21000164 .027994791 .2290039 .020996094 .25100709 .020996094 .28500367 .020996094 .31099955 .033665975 .32899476 .059005739 .33899436 .073003139 .34532676 .08966573 .34799195 .10899353 .35066734 .1283315 .352005 .15633138 .352005 .19299317V.20899964 .2250061C.352005 .2630005 .35066734 .2916616 .34799195 .31098939 .34532676 .33032737 .33899436 .34699504 .32899476 .36099244Z"/>
</defs>
<g clip-path="url(#clip_2)">
<use data-text="3" xlink:href="#font_3_22" transform="matrix(10.23083,0,0,-10.23083,397.40226,54.287538)"/>
<use data-text="." xlink:href="#font_3_17" transform="matrix(10.23083,0,0,-10.23083,403.09214,54.287538)"/>
<use data-text="5" xlink:href="#font_3_24" transform="matrix(10.23083,0,0,-10.23083,405.9346,54.287538)"/>
<use data-text=" " xlink:href="#font_3_3" transform="matrix(10.23083,0,0,-10.23083,411.6245,54.287538)"/>
<use data-text="|" xlink:href="#font_3_95" transform="matrix(10.23083,0,0,-10.23083,414.46699,54.287538)"/>
<use data-text=" " xlink:href="#font_3_3" transform="matrix(10.23083,0,0,-10.23083,417.12458,54.287538)"/>
<use data-text="Q" xlink:href="#font_3_52" transform="matrix(10.23083,0,0,-10.23083,419.96705,54.287538)"/>
<use data-text="u" xlink:href="#font_3_88" transform="matrix(10.23083,0,0,-10.23083,427.92488,54.287538)"/>
<use data-text="a" xlink:href="#font_3_68" transform="matrix(10.23083,0,0,-10.23083,433.61479,54.287538)"/>
<use data-text="d" xlink:href="#font_3_71" transform="matrix(10.23083,0,0,-10.23083,439.3047,54.287538)"/>
<use data-text="r" xlink:href="#font_3_85" transform="matrix(10.23083,0,0,-10.23083,444.9946,54.287538)"/>
<use data-text="a" xlink:href="#font_3_68" transform="matrix(10.23083,0,0,-10.23083,448.40156,54.287538)"/>
<use data-text="t" xlink:href="#font_3_87" transform="matrix(10.23083,0,0,-10.23083,454.09144,54.287538)"/>
<use data-text="i" xlink:href="#font_3_76" transform="matrix(10.23083,0,0,-10.23083,456.9339,54.287538)"/>
<use data-text="c" xlink:href="#font_3_70" transform="matrix(10.23083,0,0,-10.23083,459.20515,54.287538)"/>
<use data-text=" " xlink:href="#font_3_3" transform="matrix(10.23083,0,0,-10.23083,464.3223,54.287538)"/>
<use data-text="E" xlink:href="#font_3_40" transform="matrix(10.23083,0,0,-10.23083,467.16477,54.287538)"/>
<use data-text="q" xlink:href="#font_3_84" transform="matrix(10.23083,0,0,-10.23083,473.98863,54.287538)"/>
<use data-text="u" xlink:href="#font_3_88" transform="matrix(10.23083,0,0,-10.23083,479.67854,54.287538)"/>
<use data-text="a" xlink:href="#font_3_68" transform="matrix(10.23083,0,0,-10.23083,485.36845,54.287538)"/>
<use data-text="t" xlink:href="#font_3_87" transform="matrix(10.23083,0,0,-10.23083,491.05836,54.287538)"/>
<use data-text="i" xlink:href="#font_3_76" transform="matrix(10.23083,0,0,-10.23083,493.90083,54.287538)"/>
<use data-text="o" xlink:href="#font_3_82" transform="matrix(10.23083,0,0,-10.23083,496.17207,54.287538)"/>
<use data-text="n" xlink:href="#font_3_81" transform="matrix(10.23083,0,0,-10.23083,501.86369,54.287538)"/>
<use data-text="s" xlink:href="#font_3_86" transform="matrix(10.23083,0,0,-10.23083,507.5536,54.287538)"/>
<use data-text=" " xlink:href="#font_3_3" transform="matrix(10.23083,0,0,-10.23083,512.669,54.287538)"/>
<use data-text="(" xlink:href="#font_3_11" transform="matrix(10.23083,0,0,-10.23083,515.5115,54.287538)"/>
<use data-text="F" xlink:href="#font_3_41" transform="matrix(10.23083,0,0,-10.23083,518.9184,54.287538)"/>
<use data-text="r" xlink:href="#font_3_85" transform="matrix(10.23083,0,0,-10.23083,525.1678,54.287538)"/>
<use data-text="a" xlink:href="#font_3_68" transform="matrix(10.23083,0,0,-10.23083,528.5747,54.287538)"/>
<use data-text="c" xlink:href="#font_3_70" transform="matrix(10.23083,0,0,-10.23083,534.26467,54.287538)"/>
<use data-text="t" xlink:href="#font_3_87" transform="matrix(10.23083,0,0,-10.23083,539.38009,54.287538)"/>
<use data-text="i" xlink:href="#font_3_76" transform="matrix(10.23083,0,0,-10.23083,542.22256,54.287538)"/>
<use data-text="o" xlink:href="#font_3_82" transform="matrix(10.23083,0,0,-10.23083,544.4938,54.287538)"/>
<use data-text="n" xlink:href="#font_3_81" transform="matrix(10.23083,0,0,-10.23083,550.18539,54.287538)"/>
<use data-text="a" xlink:href="#font_3_68" transform="matrix(10.23083,0,0,-10.23083,555.8753,54.287538)"/>
<use data-text="l" xlink:href="#font_3_79" transform="matrix(10.23083,0,0,-10.23083,561.5652,54.287538)"/>
<use data-text=")" xlink:href="#font_3_12" transform="matrix(10.23083,0,0,-10.23083,563.8364,54.287538)"/>
<path transform="matrix(.7104743,0,0,.7104743,28,-757.7846)" d="M0 1165H380V1166H0Z" fill="#d9d9d9"/>
<path transform="matrix(.7104743,0,0,.7104743,28,-757.7846)" d="M0 1165H1V1482H0Z" fill="#d9d9d9"/>
<use data-text="1" xlink:href="#font_3_20" transform="matrix(11.367589,0,0,-11.367589,35.815217,89.81122)"/>
<use data-text="." xlink:href="#font_3_17" transform="matrix(11.367589,0,0,-11.367589,42.135599,89.81122)"/>
<use data-text=" " xlink:href="#font_3_3" transform="matrix(11.367589,0,0,-11.367589,45.295785,89.81122)"/>
<path transform="matrix(.7104743,0,0,.7104743,28,-757.7846)" d="M380 1165H759V1166H380Z" fill="#d9d9d9"/>
<path transform="matrix(.7104743,0,0,.7104743,28,-757.7846)" d="M758 1165H759V1482H758Z" fill="#d9d9d9"/>
<path transform="matrix(.7104743,0,0,.7104743,28,-757.7846)" d="M380 1165H381V1482H380Z" fill="#d9d9d9"/>
<use data-text="2" xlink:href="#font_3_21" transform="matrix(11.367589,0,0,-11.367589,305.44023,89.81122)"/>
<use data-text="." xlink:href="#font_3_17" transform="matrix(11.367589,0,0,-11.367589,311.7606,89.81122)"/>
<use data-text=" " xlink:href="#font_3_3" transform="matrix(11.367589,0,0,-11.367589,314.92079,89.81122)"/>
<path transform="matrix(.7104743,0,0,.7104743,28,-757.7846)" d="M0 1482H380V1483H0Z" fill="#d9d9d9"/>
<path transform="matrix(.7104743,0,0,.7104743,28,-757.7846)" d="M0 1482H1V1801H0Z" fill="#d9d9d9"/>
<use data-text="3" xlink:href="#font_3_22" transform="matrix(11.367589,0,0,-11.367589,35.815217,316.9632)"/>
<use data-text="." xlink:href="#font_3_17" transform="matrix(11.367589,0,0,-11.367589,42.135599,316.9632)"/>
<use data-text=" " xlink:href="#font_3_3" transform="matrix(11.367589,0,0,-11.367589,45.295785,316.9632)"/>
<path transform="matrix(.7104743,0,0,.7104743,28,-757.7846)" d="M380 1482H759V1483H380Z" fill="#d9d9d9"/>
<path transform="matrix(.7104743,0,0,.7104743,28,-757.7846)" d="M758 1482H759V1801H758Z" fill="#d9d9d9"/>
<path transform="matrix(.7104743,0,0,.7104743,28,-757.7846)" d="M380 1482H381V1801H380Z" fill="#d9d9d9"/>
<use data-text="4" xlink:href="#font_3_23" transform="matrix(11.367589,0,0,-11.367589,305.44023,315.03157)"/>
<use data-text="." xlink:href="#font_3_17" transform="matrix(11.367589,0,0,-11.367589,311.7606,315.03157)"/>
<use data-text=" " xlink:href="#font_3_3" transform="matrix(11.367589,0,0,-11.367589,314.92079,315.03157)"/>
<path transform="matrix(.7104743,0,0,.7104743,28,-757.7846)" d="M0 1801H380V1802H0Z" fill="#d9d9d9"/>
<path transform="matrix(.7104743,0,0,.7104743,28,-757.7846)" d="M0 2119H380V2120H0Z" fill="#d9d9d9"/>
<path transform="matrix(.7104743,0,0,.7104743,28,-757.7846)" d="M0 1801H1V2120H0Z" fill="#d9d9d9"/>
<use data-text="5" xlink:href="#font_3_24" transform="matrix(11.367589,0,0,-11.367589,35.815217,543.60458)"/>
<use data-text="." xlink:href="#font_3_17" transform="matrix(11.367589,0,0,-11.367589,42.135599,543.60458)"/>
<use data-text=" " xlink:href="#font_3_3" transform="matrix(11.367589,0,0,-11.367589,45.295785,543.60458)"/>
<path transform="matrix(.7104743,0,0,.7104743,28,-757.7846)" stroke-width="1" stroke-linecap="butt" stroke-miterlimit="4" stroke-linejoin="miter" fill="none" stroke="#d9d9d9" d="M380.5 1801.5H758.5V2119.5H380.5Z"/>
<use data-text="6" xlink:href="#font_3_25" transform="matrix(11.367589,0,0,-11.367589,305.44023,541.6729)"/>
<use data-text="." xlink:href="#font_3_17" transform="matrix(11.367589,0,0,-11.367589,311.7606,541.6729)"/>
<use data-text=" " xlink:href="#font_3_3" transform="matrix(11.367589,0,0,-11.367589,314.92079,541.6729)"/>
<use data-text=" " xlink:href="#font_4_3" transform="matrix(.7104743,0,0,-.7104743,90.58835,89.81122)"/>
<use data-text="=" xlink:href="#font_4_32" transform="matrix(13.754783,0,0,-13.754783,95.339649,89.81122)"/>
<use data-text="4" xlink:href="#font_4_23" transform="matrix(9.626927,0,0,-9.626927,58.661409,94.784549)"/>
<use data-text="x" xlink:href="#font_5_63" transform="matrix(9.626927,0,0,-9.626927,63.47931,94.784549)"/>
<use data-text="&#x2212;" xlink:href="#font_4_193" transform="matrix(9.626927,0,0,-9.626927,68.99659,94.784549)"/>
<use data-text="7" xlink:href="#font_4_26" transform="matrix(9.626927,0,0,-9.626927,76.48987,94.784549)"/>
<path transform="matrix(.7104743,0,0,.7104743,28,-757.7846)" d="M31 1188H87V1189H31Z"/>
<use data-text="&#x2212;" xlink:href="#font_4_193" transform="matrix(9.626927,0,0,-9.626927,50.10241,84.83795)"/>
<use data-text="1" xlink:href="#font_4_20" transform="matrix(9.626927,0,0,-9.626927,57.595697,84.83795)"/>
<use data-text="3" xlink:href="#font_4_22" transform="matrix(9.626927,0,0,-9.626927,62.409154,84.83795)"/>
<use data-text="x" xlink:href="#font_5_63" transform="matrix(9.626927,0,0,-9.626927,67.23151,84.83795)"/>
<use data-text="&#x2212;" xlink:href="#font_4_193" transform="matrix(9.626927,0,0,-9.626927,72.74878,84.83795)"/>
<use data-text="1" xlink:href="#font_4_20" transform="matrix(9.626927,0,0,-9.626927,80.242069,84.83795)"/>
<use data-text="0" xlink:href="#font_4_19" transform="matrix(9.626927,0,0,-9.626927,85.05553,84.83795)"/>
<use data-text="&#x2212;" xlink:href="#font_4_193" transform="matrix(13.754783,0,0,-13.754783,109.85996,89.81122)"/>
<use data-text=" " xlink:href="#font_4_3" transform="matrix(.7104743,0,0,-.7104743,157.87248,89.81122)"/>
<use data-text="3" xlink:href="#font_4_22" transform="matrix(9.626927,0,0,-9.626927,137.26874,94.784549)"/>
<path transform="matrix(.7104743,0,0,.7104743,28,-757.7846)" d="M133 1188H182V1189H133Z"/>
<use data-text="&#x2212;" xlink:href="#font_4_193" transform="matrix(9.626927,0,0,-9.626927,122.20445,84.83795)"/>
<use data-text="8" xlink:href="#font_4_27" transform="matrix(9.626927,0,0,-9.626927,129.69774,84.83795)"/>
<use data-text="x" xlink:href="#font_5_63" transform="matrix(9.626927,0,0,-9.626927,134.51564,84.83795)"/>
<use data-text="+" xlink:href="#font_4_14" transform="matrix(9.626927,0,0,-9.626927,140.03293,84.83795)"/>
<use data-text="1" xlink:href="#font_4_20" transform="matrix(9.626927,0,0,-9.626927,147.5262,84.83795)"/>
<use data-text="1" xlink:href="#font_4_20" transform="matrix(9.626927,0,0,-9.626927,152.33966,84.83795)"/>
<use data-text="&#x2212;" xlink:href="#font_4_193" transform="matrix(13.754783,0,0,-13.754783,318.08445,89.81122)"/>
<use data-text=" " xlink:href="#font_4_3" transform="matrix(.7104743,0,0,-.7104743,358.60368,89.81122)"/>
<use data-text="=" xlink:href="#font_4_32" transform="matrix(13.754783,0,0,-13.754783,363.35499,89.81122)"/>
<use data-text="1" xlink:href="#font_4_20" transform="matrix(9.626927,0,0,-9.626927,339.34318,94.784549)"/>
<use data-text="0" xlink:href="#font_4_19" transform="matrix(9.626927,0,0,-9.626927,344.15663,94.784549)"/>
<path transform="matrix(.7104743,0,0,.7104743,28,-757.7846)" d="M426 1188H464V1189H426Z"/>
<use data-text="1" xlink:href="#font_4_20" transform="matrix(9.626927,0,0,-9.626927,330.42893,84.83795)"/>
<use data-text="0" xlink:href="#font_4_19" transform="matrix(9.626927,0,0,-9.626927,335.2424,84.83795)"/>
<use data-text="x" xlink:href="#font_5_63" transform="matrix(9.626927,0,0,-9.626927,340.06474,84.83795)"/>
<use data-text="+" xlink:href="#font_4_14" transform="matrix(9.626927,0,0,-9.626927,345.58204,84.83795)"/>
<use data-text="2" xlink:href="#font_4_21" transform="matrix(9.626927,0,0,-9.626927,353.0753,84.83795)"/>
<use data-text=" " xlink:href="#font_4_3" transform="matrix(.7104743,0,0,-.7104743,412.51094,89.81122)"/>
<use data-text="1" xlink:href="#font_4_20" transform="matrix(9.626927,0,0,-9.626927,379.51829,94.784549)"/>
<use data-text="1" xlink:href="#font_4_20" transform="matrix(9.626927,0,0,-9.626927,384.33174,94.784549)"/>
<use data-text="x" xlink:href="#font_5_63" transform="matrix(9.626927,0,0,-9.626927,389.15409,94.784549)"/>
<use data-text="+" xlink:href="#font_4_14" transform="matrix(9.626927,0,0,-9.626927,394.67137,94.784549)"/>
<use data-text="1" xlink:href="#font_4_20" transform="matrix(9.626927,0,0,-9.626927,402.16465,94.784549)"/>
<use data-text="4" xlink:href="#font_4_23" transform="matrix(9.626927,0,0,-9.626927,406.97813,94.784549)"/>
<path transform="matrix(.7104743,0,0,.7104743,28,-757.7846)" d="M495 1188H540V1189H495Z"/>
<use data-text="1" xlink:href="#font_4_20" transform="matrix(9.626927,0,0,-9.626927,381.92723,84.83795)"/>
<use data-text="1" xlink:href="#font_4_20" transform="matrix(9.626927,0,0,-9.626927,386.7407,84.83795)"/>
<use data-text="x" xlink:href="#font_5_63" transform="matrix(9.626927,0,0,-9.626927,391.56303,84.83795)"/>
<use data-text="&#x2212;" xlink:href="#font_4_193" transform="matrix(9.626927,0,0,-9.626927,397.0803,84.83795)"/>
<use data-text="3" xlink:href="#font_4_22" transform="matrix(9.626927,0,0,-9.626927,404.57359,84.83795)"/>
<use data-text=" " xlink:href="#font_4_3" transform="matrix(.7104743,0,0,-.7104743,105.04206,316.45259)"/>
<use data-text="=" xlink:href="#font_4_32" transform="matrix(13.754783,0,0,-13.754783,109.79336,316.9632)"/>
<use data-text="8" xlink:href="#font_4_27" transform="matrix(9.626927,0,0,-9.626927,65.88826,321.42585)"/>
<use data-text="x" xlink:href="#font_5_63" transform="matrix(9.626927,0,0,-9.626927,70.70616,321.42585)"/>
<use data-text="&#x2212;" xlink:href="#font_4_193" transform="matrix(9.626927,0,0,-9.626927,76.22344,321.42585)"/>
<use data-text="5" xlink:href="#font_4_24" transform="matrix(9.626927,0,0,-9.626927,83.71673,321.42585)"/>
<path transform="matrix(.7104743,0,0,.7104743,28,-757.7846)" d="M31 1507H107V1508H31Z"/>
<use data-text="1" xlink:href="#font_4_20" transform="matrix(9.626927,0,0,-9.626927,50.10241,311.4792)"/>
<use data-text="1" xlink:href="#font_4_20" transform="matrix(9.626927,0,0,-9.626927,54.91587,311.4792)"/>
<use data-text="x" xlink:href="#font_5_63" transform="matrix(9.626927,0,0,-9.626927,59.73822,311.4792)"/>
<use data-text="+" xlink:href="#font_4_14" transform="matrix(9.626927,0,0,-9.626927,69.37402,311.4792)"/>
<use data-text="1" xlink:href="#font_4_20" transform="matrix(9.626927,0,0,-9.626927,76.86731,311.4792)"/>
<use data-text="9" xlink:href="#font_4_28" transform="matrix(9.626927,0,0,-9.626927,81.68077,311.4792)"/>
<use data-text="x" xlink:href="#font_5_63" transform="matrix(9.626927,0,0,-9.626927,86.50312,311.4792)"/>
<use data-text="&#x2212;" xlink:href="#font_4_193" transform="matrix(9.626927,0,0,-9.626927,92.02039,311.4792)"/>
<use data-text="2" xlink:href="#font_4_21" transform="matrix(9.626927,0,0,-9.626927,99.51368,311.4792)"/>
<use data-text="2" xlink:href="#font_4_21" transform="matrix(6.8773915,0,0,-6.8773915,65.25549,307.21638)"/>
<use data-text=" " xlink:href="#font_4_3" transform="matrix(.7104743,0,0,-.7104743,161.62468,316.45259)"/>
<use data-text="9" xlink:href="#font_4_28" transform="matrix(9.626927,0,0,-9.626927,141.02092,321.42585)"/>
<path transform="matrix(.7104743,0,0,.7104743,28,-757.7846)" d="M138 1507H187V1508H138Z"/>
<use data-text="&#x2212;" xlink:href="#font_4_193" transform="matrix(9.626927,0,0,-9.626927,125.95664,311.4792)"/>
<use data-text="7" xlink:href="#font_4_26" transform="matrix(9.626927,0,0,-9.626927,133.44992,311.4792)"/>
<use data-text="x" xlink:href="#font_5_63" transform="matrix(9.626927,0,0,-9.626927,138.26782,311.4792)"/>
<use data-text="+" xlink:href="#font_4_14" transform="matrix(9.626927,0,0,-9.626927,143.78511,311.4792)"/>
<use data-text="1" xlink:href="#font_4_20" transform="matrix(9.626927,0,0,-9.626927,151.2784,311.4792)"/>
<use data-text="9" xlink:href="#font_4_28" transform="matrix(9.626927,0,0,-9.626927,156.09186,311.4792)"/>
<use data-text=" " xlink:href="#font_4_3" transform="matrix(.7104743,0,0,-.7104743,352.72007,314.3211)"/>
<use data-text="=" xlink:href="#font_4_32" transform="matrix(13.754783,0,0,-13.754783,357.47138,315.03157)"/>
<use data-text="1" xlink:href="#font_4_20" transform="matrix(9.626927,0,0,-9.626927,319.72743,319.2945)"/>
<use data-text="4" xlink:href="#font_4_23" transform="matrix(9.626927,0,0,-9.626927,324.54087,319.2945)"/>
<use data-text="x" xlink:href="#font_5_63" transform="matrix(9.626927,0,0,-9.626927,329.36323,319.2945)"/>
<use data-text="+" xlink:href="#font_4_14" transform="matrix(9.626927,0,0,-9.626927,334.8805,319.2945)"/>
<use data-text="1" xlink:href="#font_4_20" transform="matrix(9.626927,0,0,-9.626927,342.37379,319.2945)"/>
<use data-text="8" xlink:href="#font_4_27" transform="matrix(9.626927,0,0,-9.626927,347.18727,319.2945)"/>
<path transform="matrix(.7104743,0,0,.7104743,28,-757.7846)" d="M411 1504H456V1505H411Z"/>
<use data-text="5" xlink:href="#font_4_24" transform="matrix(9.626927,0,0,-9.626927,324.54533,309.34785)"/>
<use data-text="x" xlink:href="#font_5_63" transform="matrix(9.626927,0,0,-9.626927,329.36323,309.34785)"/>
<use data-text="&#x2212;" xlink:href="#font_4_193" transform="matrix(9.626927,0,0,-9.626927,334.8805,309.34785)"/>
<use data-text="6" xlink:href="#font_4_25" transform="matrix(9.626927,0,0,-9.626927,342.37379,309.34785)"/>
<use data-text=" " xlink:href="#font_4_3" transform="matrix(.7104743,0,0,-.7104743,401.8094,314.3211)"/>
<use data-text="4" xlink:href="#font_4_23" transform="matrix(9.626927,0,0,-9.626927,384.95783,319.2945)"/>
<path transform="matrix(.7104743,0,0,.7104743,28,-757.7846)" d="M486 1504H525V1505H486Z"/>
<use data-text="1" xlink:href="#font_4_20" transform="matrix(9.626927,0,0,-9.626927,373.63465,309.34785)"/>
<use data-text="5" xlink:href="#font_4_24" transform="matrix(9.626927,0,0,-9.626927,378.44813,309.34785)"/>
<use data-text="x" xlink:href="#font_5_63" transform="matrix(9.626927,0,0,-9.626927,383.27046,309.34785)"/>
<use data-text="+" xlink:href="#font_4_14" transform="matrix(9.626927,0,0,-9.626927,388.78776,309.34785)"/>
<use data-text="6" xlink:href="#font_4_25" transform="matrix(9.626927,0,0,-9.626927,396.281,309.34785)"/>
<use data-text=" " xlink:href="#font_4_3" transform="matrix(.7104743,0,0,-.7104743,80.95254,543.0938)"/>
<use data-text="=" xlink:href="#font_4_32" transform="matrix(13.754783,0,0,-13.754783,85.703838,543.0938)"/>
<use data-text="5" xlink:href="#font_4_24" transform="matrix(9.626927,0,0,-9.626927,62.757738,548.0672)"/>
<path transform="matrix(.7104743,0,0,.7104743,28,-757.7846)" d="M31 1826H74V1827H31Z"/>
<use data-text="&#x2212;" xlink:href="#font_4_193" transform="matrix(9.626927,0,0,-9.626927,50.10241,538.12057)"/>
<use data-text="4" xlink:href="#font_4_23" transform="matrix(9.626927,0,0,-9.626927,57.595697,538.12057)"/>
<use data-text="x" xlink:href="#font_5_63" transform="matrix(9.626927,0,0,-9.626927,62.4136,538.12057)"/>
<use data-text="+" xlink:href="#font_4_14" transform="matrix(9.626927,0,0,-9.626927,67.93088,538.12057)"/>
<use data-text="7" xlink:href="#font_4_26" transform="matrix(9.626927,0,0,-9.626927,75.424167,538.12057)"/>
<use data-text=" " xlink:href="#font_4_3" transform="matrix(.7104743,0,0,-.7104743,164.30005,543.0938)"/>
<use data-text="x" xlink:href="#font_5_63" transform="matrix(9.626927,0,0,-9.626927,123.814128,548.0672)"/>
<use data-text="+" xlink:href="#font_4_14" transform="matrix(9.626927,0,0,-9.626927,129.33139,548.0672)"/>
<use data-text="2" xlink:href="#font_4_21" transform="matrix(9.626927,0,0,-9.626927,136.82468,548.0672)"/>
<path transform="matrix(.7104743,0,0,.7104743,28,-757.7846)" d="M104 1826H191V1827H104Z"/>
<use data-text="&#x2212;" xlink:href="#font_4_193" transform="matrix(9.626927,0,0,-9.626927,101.86713,538.12057)"/>
<use data-text="1" xlink:href="#font_4_20" transform="matrix(9.626927,0,0,-9.626927,109.36041,538.12057)"/>
<use data-text="1" xlink:href="#font_4_20" transform="matrix(9.626927,0,0,-9.626927,114.17387,538.12057)"/>
<use data-text="x" xlink:href="#font_5_63" transform="matrix(9.626927,0,0,-9.626927,118.996219,538.12057)"/>
<use data-text="&#x2212;" xlink:href="#font_4_193" transform="matrix(9.626927,0,0,-9.626927,128.63202,538.12057)"/>
<use data-text="7" xlink:href="#font_4_26" transform="matrix(9.626927,0,0,-9.626927,136.1253,538.12057)"/>
<use data-text="x" xlink:href="#font_5_63" transform="matrix(9.626927,0,0,-9.626927,140.9432,538.12057)"/>
<use data-text="&#x2212;" xlink:href="#font_4_193" transform="matrix(9.626927,0,0,-9.626927,146.46048,538.12057)"/>
<use data-text="1" xlink:href="#font_4_20" transform="matrix(9.626927,0,0,-9.626927,153.95377,538.12057)"/>
<use data-text="1" xlink:href="#font_4_20" transform="matrix(9.626927,0,0,-9.626927,158.76723,538.12057)"/>
<use data-text="2" xlink:href="#font_4_21" transform="matrix(6.8773915,0,0,-6.8773915,124.5135,533.8577)"/>
<use data-text=" " xlink:href="#font_4_3" transform="matrix(.7104743,0,0,-.7104743,350.57756,540.96249)"/>
<use data-text="=" xlink:href="#font_4_32" transform="matrix(13.754783,0,0,-13.754783,355.32884,541.6729)"/>
<use data-text="1" xlink:href="#font_4_20" transform="matrix(9.626927,0,0,-9.626927,321.05955,545.9357)"/>
<use data-text="7" xlink:href="#font_4_26" transform="matrix(9.626927,0,0,-9.626927,325.87303,545.9357)"/>
<use data-text="x" xlink:href="#font_5_63" transform="matrix(9.626927,0,0,-9.626927,330.69538,545.9357)"/>
<use data-text="&#x2212;" xlink:href="#font_4_193" transform="matrix(9.626927,0,0,-9.626927,336.21266,545.9357)"/>
<use data-text="1" xlink:href="#font_4_20" transform="matrix(9.626927,0,0,-9.626927,343.70594,545.9357)"/>
<path transform="matrix(.7104743,0,0,.7104743,28,-757.7846)" d="M411 1823H453V1824H411Z"/>
<use data-text="&#x2212;" xlink:href="#font_4_193" transform="matrix(9.626927,0,0,-9.626927,319.72743,535.9891)"/>
<use data-text="5" xlink:href="#font_4_24" transform="matrix(9.626927,0,0,-9.626927,327.2207,535.9891)"/>
<use data-text="x" xlink:href="#font_5_63" transform="matrix(9.626927,0,0,-9.626927,332.0386,535.9891)"/>
<use data-text="&#x2212;" xlink:href="#font_4_193" transform="matrix(9.626927,0,0,-9.626927,337.55589,535.9891)"/>
<use data-text="9" xlink:href="#font_4_28" transform="matrix(9.626927,0,0,-9.626927,345.04917,535.9891)"/>
<use data-text="&#x2212;" xlink:href="#font_4_193" transform="matrix(13.754783,0,0,-13.754783,369.84916,541.6729)"/>
<use data-text=" " xlink:href="#font_4_3" transform="matrix(.7104743,0,0,-.7104743,417.86167,540.96249)"/>
<use data-text="9" xlink:href="#font_4_28" transform="matrix(9.626927,0,0,-9.626927,397.25794,545.9357)"/>
<path transform="matrix(.7104743,0,0,.7104743,28,-757.7846)" d="M499 1823H548V1824H499Z"/>
<use data-text="&#x2212;" xlink:href="#font_4_193" transform="matrix(9.626927,0,0,-9.626927,382.19364,535.9891)"/>
<use data-text="6" xlink:href="#font_4_25" transform="matrix(9.626927,0,0,-9.626927,389.68693,535.9891)"/>
<use data-text="x" xlink:href="#font_5_63" transform="matrix(9.626927,0,0,-9.626927,394.50483,535.9891)"/>
<use data-text="&#x2212;" xlink:href="#font_4_193" transform="matrix(9.626927,0,0,-9.626927,400.02214,535.9891)"/>
<use data-text="1" xlink:href="#font_4_20" transform="matrix(9.626927,0,0,-9.626927,407.51539,535.9891)"/>
<use data-text="0" xlink:href="#font_4_19" transform="matrix(9.626927,0,0,-9.626927,412.3289,535.9891)"/>
<path transform="matrix(.7104743,0,0,.7104743,28,-757.7846)" d="M0 2150H759V2151H0Z" fill="#d9d9d9"/>
<use data-text="1" xlink:href="#font_3_20" transform="matrix(10.79921,0,0,-10.79921,554.1284,785.36557)"/>
</g>
</svg>
