<?xml version="1.0" encoding="UTF-8" standalone="no"?>
<!-- Created with Inkscape (http://www.inkscape.org/) -->

<svg
   width="256"
   height="256"
   viewBox="0 0 67.733332 67.733333"
   version="1.1"
   id="svg6375"
   inkscape:version="1.2.2 (732a01da63, 2022-12-09)"
   sodipodi:docname="teacher.svg"
   xmlns:inkscape="http://www.inkscape.org/namespaces/inkscape"
   xmlns:sodipodi="http://sodipodi.sourceforge.net/DTD/sodipodi-0.dtd"
   xmlns="http://www.w3.org/2000/svg"
   xmlns:svg="http://www.w3.org/2000/svg">
  <sodipodi:namedview
     id="namedview6377"
     pagecolor="#ffffff"
     bordercolor="#000000"
     borderopacity="0.25"
     inkscape:showpageshadow="2"
     inkscape:pageopacity="0.0"
     inkscape:pagecheckerboard="0"
     inkscape:deskcolor="#d1d1d1"
     inkscape:document-units="mm"
     showgrid="false"
     inkscape:zoom="2.0888419"
     inkscape:cx="-14.122658"
     inkscape:cy="143.62026"
     inkscape:window-width="1920"
     inkscape:window-height="1009"
     inkscape:window-x="-8"
     inkscape:window-y="-8"
     inkscape:window-maximized="1"
     inkscape:current-layer="layer1"
     showguides="false" />
  <defs
     id="defs6372">
    <inkscape:path-effect
       effect="mirror_symmetry"
       start_point="38.221001,39.45579"
       end_point="29.675108,64.993634"
       center_point="29.675108,42.668027"
       id="path-effect7555"
       is_visible="true"
       lpeversion="1.2"
       lpesatellites=""
       mode="vertical"
       discard_orig_path="false"
       fuse_paths="false"
       oposite_fuse="false"
       split_items="false"
       split_open="false"
       link_styles="false" />
    <inkscape:path-effect
       effect="mirror_symmetry"
       start_point="39.183931,47.635784"
       end_point="39.183931,49.01485"
       center_point="39.183931,48.325317"
       id="path-effect7188"
       is_visible="true"
       lpeversion="1.2"
       lpesatellites=""
       mode="vertical"
       discard_orig_path="false"
       fuse_paths="false"
       oposite_fuse="false"
       split_items="false"
       split_open="false"
       link_styles="false" />
    <inkscape:path-effect
       effect="mirror_symmetry"
       start_point="40.635237,45.418644"
       end_point="40.635237,47.917671"
       center_point="40.635237,46.668157"
       id="path-effect6982"
       is_visible="true"
       lpeversion="1.2"
       lpesatellites=""
       mode="vertical"
       discard_orig_path="false"
       fuse_paths="false"
       oposite_fuse="false"
       split_items="false"
       split_open="false"
       link_styles="false" />
    <inkscape:path-effect
       effect="mirror_symmetry"
       start_point="49.932902,43.599351"
       end_point="49.932902,65.114294"
       center_point="49.932902,54.356822"
       id="path-effect6978"
       is_visible="true"
       lpeversion="1.2"
       lpesatellites=""
       mode="vertical"
       discard_orig_path="false"
       fuse_paths="false"
       oposite_fuse="false"
       split_items="false"
       split_open="false"
       link_styles="false" />
    <inkscape:path-effect
       effect="mirror_symmetry"
       start_point="44.839439,23.243043"
       end_point="44.839439,44.712776"
       center_point="44.839439,33.977909"
       id="path-effect6609"
       is_visible="true"
       lpeversion="1.2"
       lpesatellites=""
       mode="vertical"
       discard_orig_path="false"
       fuse_paths="false"
       oposite_fuse="false"
       split_items="false"
       split_open="false"
       link_styles="false" />
    <inkscape:path-effect
       effect="mirror_symmetry"
       start_point="94.031365,106.15199"
       end_point="128.46,106.15199"
       center_point="107.69602,106.15199"
       id="path-effect6096"
       is_visible="true"
       lpeversion="1.2"
       lpesatellites=""
       mode="vertical"
       discard_orig_path="false"
       fuse_paths="false"
       oposite_fuse="false"
       split_items="false"
       split_open="false"
       link_styles="false" />
  </defs>
  <g
     inkscape:label="Layer 1"
     inkscape:groupmode="layer"
     id="layer1">
    <path
       style="fill:none;fill-opacity:0;fill-rule:evenodd;stroke:#434343;stroke-width:0.37562;stroke-opacity:1"
       d="m 33.866668,37.526649 c 4.508363,-0.02954 5.8673,-1.401909 8.219318,-3.789125 2.816227,-2.858376 4.931308,-9.581881 5.02111,-11.540351 0.06165,-2.122097 0.353339,-3.899109 0.03292,-6.594305 m -13.27335,21.923781 c -4.508361,-0.02954 -5.8673,-1.401909 -8.219318,-3.789125 -2.816226,-2.858376 -4.931307,-9.581881 -5.02111,-11.540351 -0.06164,-2.122097 -0.353339,-3.899109 -0.03292,-6.594305"
       id="path6607"
       sodipodi:nodetypes="cscc" />
    <path
       style="fill:none;fill-opacity:0;fill-rule:evenodd;stroke:#434343;stroke-width:0.37562;stroke-linecap:round;stroke-opacity:1"
       d="m 20.59332,15.602868 c 1.726812,0.07194 4.700044,0.662661 6.521453,-0.02216 2.112049,-0.846876 4.323015,-1.462941 6.751893,-1.570545 1.524991,0.138133 2.799809,0.139819 5.432907,0.882372 3.175528,1.105398 5.830189,1.405827 7.840444,0.710352"
       id="path6611"
       sodipodi:nodetypes="ccccc" />
    <path
       style="fill:none;fill-opacity:0;fill-rule:evenodd;stroke:#434343;stroke-width:0.376211;stroke-linecap:round;stroke-dasharray:none;stroke-opacity:1"
       d="m 40.730009,35.073964 c 0.649887,0.792672 0.808171,1.380882 3.243174,2.570248 3.753726,1.106483 5.715467,1.723343 8.629396,2.549892 1.640605,0.684364 8.123124,2.500314 8.98819,4.154103 -9.559298,2.325454 -16.479981,3.034796 -16.404872,4.923882 3.494937,0.68666 6.85701,1.995138 9.065319,3.655657 -6.657146,2.660634 -13.688896,6.106698 -20.38455,11.33122 M 27.003325,35.073964 c -0.649886,0.792672 -0.808171,1.380882 -3.243173,2.570248 -3.753726,1.106483 -5.715466,1.723343 -8.629397,2.549892 -1.640604,0.684364 -8.1231233,2.500314 -8.9881903,4.154103 9.5592983,2.325454 16.4799813,3.034796 16.4048733,4.923882 -3.494936,0.68666 -6.85701,1.995138 -9.06532,3.655657 6.657146,2.660634 13.688897,6.106698 20.38455,11.33122"
       id="path6613"
       sodipodi:nodetypes="ccccccc" />
    <path
       style="fill:none;fill-opacity:0;fill-rule:evenodd;stroke:#434343;stroke-width:0.37562;stroke-opacity:1"
       d="m 45.878038,38.302445 c -5.028849,3.935203 -5.238287,21.296687 -8.85633,23.637769 M 21.855296,38.302445 c 5.02885,3.935203 5.238288,21.296687 8.856332,23.637769"
       id="path6980"
       sodipodi:nodetypes="cc" />
    <path
       style="fill:none;fill-opacity:0;fill-rule:evenodd;stroke:#434343;stroke-width:0.37562;stroke-opacity:1"
       d="m 47.08393,38.647249 c 1.362732,-0.86537 1.782432,-2.122421 2.216802,-4.22561 0.817417,-2.617845 0.809137,-5.156221 0.891118,-7.774065 0.159127,-4.853988 0.03891,-9.568296 -0.224776,-14.210872 C 50.022183,9.8709278 48.674002,7.4136172 45.664728,5.9045262 35.782618,2.190903 27.914312,3.1242629 21.512309,6.0589856 19.52367,7.1095992 18.813434,8.4158949 18.399492,9.7814471 17.101961,16.022274 16.993968,21.198954 17.26197,25.136624 c 0.663376,5.084379 0.822321,6.808208 0.970937,8.148177 0.215535,2.021372 0.186054,4.31281 2.202642,5.423081"
       id="path6984"
       sodipodi:nodetypes="cccccccccc" />
    <path
       style="fill:none;fill-opacity:0;fill-rule:evenodd;stroke:#434343;stroke-width:0.37562;stroke-opacity:1"
       d="m 43.30258,42.236937 c -2.780447,2.00304 -6.022883,2.620116 -9.435912,2.725411 m -9.435913,-2.725411 c 2.780448,2.00304 6.022883,2.620116 9.435911,2.725411"
       id="path7186"
       sodipodi:nodetypes="cc" />
    <path
       id="path7190"
       d="m 42.821292,24.012396 c 0,2.203316 -1.786141,3.989458 -3.989458,3.989458 -2.203317,0 -3.989459,-1.786142 -3.989459,-3.989458 0,-2.203317 1.786142,-3.98946 3.989459,-3.98946 2.203317,0 3.989458,1.786143 3.989458,3.98946 z m -17.909247,0 c 0,2.203316 1.78614,3.989458 3.989458,3.989458 2.203317,0 3.989458,-1.786142 3.989458,-3.989458 0,-2.203317 -1.786141,-3.98946 -3.989458,-3.98946 -2.203318,0 -3.989458,1.786143 -3.989458,3.98946 z"
       style="fill:none;fill-opacity:0;fill-rule:evenodd;stroke:#434343;stroke-width:0.37562;stroke-opacity:1" />
    <path
       style="fill:none;fill-opacity:0;fill-rule:evenodd;stroke:#434343;stroke-width:0.37562;stroke-opacity:1"
       d="M 34.842377,24.012393 H 32.873956"
       id="path7557" />
  </g>
</svg>
