<?xml version="1.0" encoding="utf-8"?>
<svg viewBox="96 50.9045 307.5761 398.0955" xmlns="http://www.w3.org/2000/svg">
  <path style="fill: rgba(216, 216, 216, 0); stroke: rgb(151, 151, 151); paint-order: fill;" d="M 254 443 C 238 425 201 220 230 135 C 232 129 235 132 240 132 C 254 136 265 124 268 122 C 276 116 285 100 292 91 C 297 87 302 80 301 77 C 299 72 288 74 283 76 C 269 80 247 90 240 106 C 236 116 235 122 236 127 C 244 129 251 119 255 115 C 268 99 270 89 271 74 C 270 56 259 55 252 57 C 235 61 229 82 226 89 C 223 95 218 118 223 121 C 229 129 234 131 225 117 C 220 108 218 103 218 97 C 219 78 233 75 232 62 C 231 55 228 52 221 51 C 216 50 217 57 217 65 C 216 84 206 98 210 116 C 212 122 220 130 227 129" transform="matrix(1, 0, 0, 1, -5.684341886080802e-14, 0)"/>
  <path style="fill: rgba(216, 216, 216, 0); stroke: rgb(151, 151, 151); paint-order: fill;" d="M 219 435 C 218 428 209 399 194 383 C 187 375 180 365 175 358 C 170 351 169 345 167 333 C 165 326 158 321 153 315 C 143 307 135 287 133 261 C 130 233 115 206 116 193 C 116 186 108 170 96 152 C 96 151 103 154 112 160 C 121 166 149 188 171 230 C 190 275 228 365 226 370 C 229 379 232 392 232 403 C 231 420 230 432 232 433 C 233 440 232 448 228 449 C 227 440 223 410 221 374 C 225 303 237 231 311 196 C 313 194 322 196 323 199 C 326 202 338 214 381 200 C 391 197 409 204 402 194 C 398 191 400 186 386 188 C 369 190 361 191 357 192 C 352 193 344 192 333 191 C 324 190 319 196 337 200 C 346 203 384 196 395 179 C 399 172 398 161 386 161 C 388 157 386 151 377 149 C 350 146 322 167 319 188 C 325 190 366 158 365 153 C 364 148 371 143 362 137 C 362 132 364 131 365 130 C 364 128 361 128 354 131 C 330 156 313 161 312 177 C 312 181 312 189 314 190" transform="matrix(1, 0, 0, 1, -5.684341886080802e-14, 0)"/>
</svg>